<?xml version="1.0" encoding="UTF-8"?>
<svg id="Layer_2" xmlns="http://www.w3.org/2000/svg" version="1.1" viewBox="0 0 1258.58 170.08">
  <!-- Generator: Adobe Illustrator 29.0.1, SVG Export Plug-In . SVG Version: 2.1.0 Build 192)  -->
  <defs>
    <style>
      .st0 {
        fill: #fff;
      }
    </style>
  </defs>
  <g>
    <path class="st0" d="M740.36,62.23v51.18c0,3.07-2.49,5.55-5.55,5.55h-51.18c-3.07,0-5.55-2.49-5.55-5.55v-56.74c0-3.07,2.49-5.55,5.55-5.55h102.42V5.43h-102.37c-28.3,0-51.23,22.94-51.23,51.23v56.75c0,28.3,22.94,51.23,51.23,51.23h102.37V62.22h-45.69Z"/>
    <path class="st0" d="M961.92,5.43v45.69h40.14c3.07,0,5.55,2.49,5.55,5.55v107.98h45.69V56.67c0-3.07,2.49-5.55,5.55-5.55h40.14V5.43h-137.07Z"/>
    <path class="st0" d="M899.58,5.43h-51.2c-28.3,0-51.23,22.94-51.23,51.23v107.99h45.69v-51.21c0-3.07,2.49-5.55,5.55-5.55h51.18c3.07,0,5.55,2.49,5.55,5.55v51.21h45.69V56.66c0-28.3-22.94-51.23-51.23-51.23ZM842.84,56.67h0c0-3.07,2.49-5.55,5.55-5.55h51.18c3.07,0,5.55,2.49,5.55,5.55h0c0,3.05-2.47,5.52-5.52,5.52h-51.24c-3.05,0-5.52-2.47-5.52-5.52Z"/>
    <path class="st0" d="M5.67,56.66v56.75c0,28.29,22.94,51.23,51.23,51.23h91.58v-45.69H56.85c-3.07,0-5.55-2.49-5.55-5.55v-56.74c0-3.07,2.49-5.55,5.55-5.55h91.63V5.43H56.9C28.61,5.43,5.67,28.37,5.67,56.66Z"/>
    <path class="st0" d="M415.94,5.43h-91.58v159.22h0s91.58,0,91.58,0c28.3,0,51.23-22.94,51.23-51.23v-56.75c0-28.29-22.94-51.23-51.23-51.23ZM421.55,113.41c0,3.07-2.49,5.55-5.55,5.55h-45.94V51.12h45.94c3.07,0,5.55,2.49,5.55,5.55v56.74Z"/>
    <path class="st0" d="M262.02,5.43h-51.2c-28.29,0-51.23,22.94-51.23,51.23v56.75c0,28.3,22.94,51.23,51.23,51.23h51.2c28.29,0,51.23-22.94,51.23-51.23v-56.75c0-28.3-22.94-51.23-51.23-51.23ZM267.57,113.41c0,3.07-2.49,5.55-5.55,5.55h-51.18c-3.07,0-5.55-2.49-5.55-5.55v-56.74c0-3.07,2.49-5.55,5.55-5.55h51.18c3.07,0,5.55,2.49,5.55,5.55v56.74Z"/>
    <path class="st0" d="M529.47,51.12h91.63V5.43h-91.58c-28.3,0-51.23,22.94-51.23,51.23v56.75c0,28.3,22.94,51.23,51.23,51.23h91.58v-45.69h-91.63c-3.07,0-5.55-2.49-5.55-5.55h0c0-3.05,2.47-5.52,5.52-5.52h80.59v-45.69h-80.59c-3.05,0-5.52-2.47-5.52-5.52h0c0-3.07,2.49-5.55,5.55-5.55Z"/>
    <path class="st0" d="M1161.28,51.12h91.63V5.43h-91.58c-28.3,0-51.23,22.94-51.23,51.23v56.75c0,28.3,22.94,51.23,51.23,51.23h91.58v-45.69h-91.63c-3.07,0-5.55-2.49-5.55-5.55h0c0-3.05,2.47-5.52,5.52-5.52h80.59v-45.69h-80.59c-3.05,0-5.52-2.47-5.52-5.52h0c0-3.07,2.49-5.55,5.55-5.55Z"/>
  </g>
</svg>