<svg width="730" height="411" viewBox="0 0 730 411" fill="none" xmlns="http://www.w3.org/2000/svg">
<g clip-path="url(#clip0_1528_5413)">
<rect width="729.75" height="410.484" fill="#F9FAF9"/>
<path d="M408.845 775.863H0.125V774.863H408.845V775.863ZM1550.62 775.863H1141.91V774.863H1550.62V775.863ZM408.87 771.004L408.86 772.004L0.160156 767.844L0.169922 766.844L408.87 771.004ZM1550.59 767.844L1141.89 772.004L1141.88 771.004L1550.58 766.844L1550.59 767.844ZM408.936 767.164L408.925 767.664L408.915 768.164L0.275391 759.834L0.294922 758.834L408.936 767.164ZM1550.46 759.334L1550.48 759.834L1141.83 768.164L1141.82 767.164L1550.46 758.834L1550.46 759.334ZM409.04 763.334L409.025 763.834L409.01 764.334L0.479492 751.834L0.510742 750.834L409.04 763.334ZM1550.28 751.834L1141.74 764.334L1141.71 763.334L1550.25 750.834L1550.28 751.834ZM409.176 759.514L409.155 760.014L409.135 760.513L0.754883 743.854L0.795898 742.854L409.176 759.514ZM1550 743.854L1141.62 760.513L1141.59 760.014L1141.57 759.514L1549.95 742.854L1550 743.854ZM409.36 755.713L409.335 756.213L409.309 756.712L1.11914 735.892L1.16992 734.894L409.36 755.713ZM1549.64 735.892L1141.44 756.712L1141.42 756.213L1141.39 755.713L1549.59 734.894L1549.64 735.892ZM409.575 751.924L409.545 752.424L409.515 752.923L1.55469 727.942L1.61523 726.944L409.575 751.924ZM1549.2 727.942L1141.24 752.923L1141.21 752.424L1141.17 751.924L1549.13 726.944L1549.2 727.942ZM409.831 748.154L409.795 748.653L409.76 749.152L2.08008 720.022L2.15039 719.024L409.831 748.154ZM1548.63 719.523L1548.67 720.022L1140.99 749.152L1140.92 748.154L1548.6 719.024L1548.63 719.523ZM410.126 744.395L410.085 744.894L410.044 745.392L2.67383 712.111L2.75586 711.115L410.126 744.395ZM1548.08 712.111L1140.71 745.392L1140.67 744.894L1140.62 744.395L1547.99 711.115L1548.08 712.111ZM410.451 740.645L410.359 741.641L3.35938 704.221L3.45117 703.225L410.451 740.645ZM1547.39 704.221L1140.39 741.641L1140.3 740.645L1547.3 703.225L1547.39 704.221ZM410.826 736.916L410.775 737.413L410.725 737.911L4.11426 696.351L4.21582 695.356L410.826 736.916ZM1546.64 696.351L1140.04 737.911L1139.99 737.413L1139.93 736.916L1546.53 695.356L1546.64 696.351ZM411.23 733.197L411.175 733.694L411.119 734.19L4.95898 688.501L5.07031 687.507L411.23 733.197ZM1545.8 688.501L1139.64 734.19L1139.58 733.694L1139.53 733.197L1545.69 687.507L1545.8 688.501ZM411.665 729.487L411.544 730.479L5.87402 680.68L5.99512 679.688L411.665 729.487ZM1544.82 680.184L1544.89 680.68L1139.21 730.479L1139.08 729.487L1544.76 679.688L1544.82 680.184ZM412.141 725.798L412.075 726.293L412.009 726.789L6.8584 672.869L6.99121 671.877L412.141 725.798ZM1543.83 672.373L1543.89 672.869L1138.74 726.789L1138.67 726.293L1138.61 725.798L1543.76 671.877L1543.83 672.373ZM412.656 722.119L412.585 722.614L412.514 723.108L7.93359 665.089L8.07617 664.099L412.656 722.119ZM1542.82 665.089L1138.24 723.108L1138.17 722.614L1138.09 722.119L1542.67 664.099L1542.82 665.089ZM413.211 718.45L413.136 718.944L413.06 719.438L9.0791 657.328L9.23145 656.34L413.211 718.45ZM1541.67 657.328L1137.7 719.438L1137.55 718.45L1541.52 656.34L1541.67 657.328ZM413.796 714.801L413.634 715.787L10.3037 649.587L10.4658 648.601L413.796 714.801ZM1540.45 649.587L1137.12 715.787L1136.95 714.801L1540.28 648.601L1540.45 649.587ZM414.411 711.17L414.325 711.663L414.239 712.155L11.6094 641.875L11.7812 640.891L414.411 711.17ZM1539.14 641.875L1136.51 712.155L1136.42 711.663L1136.34 711.17L1538.97 640.891L1539.14 641.875ZM415.076 707.542L414.985 708.033L414.895 708.525L12.9844 634.185L13.166 633.202L415.076 707.542ZM1537.68 633.693L1537.77 634.185L1135.87 708.525L1135.78 708.033L1135.68 707.542L1537.58 633.202L1537.68 633.693ZM415.761 703.933L415.665 704.424L415.569 704.914L14.4395 626.514L14.6309 625.533L415.761 703.933ZM1536.31 626.514L1135.18 704.914L1135.08 704.424L1134.99 703.933L1536.12 625.533L1536.31 626.514ZM416.486 700.343L416.386 700.833L416.284 701.322L15.9648 618.872L16.166 617.894L416.486 700.343ZM1534.69 618.383L1534.79 618.872L1134.47 701.322L1134.37 700.833L1134.26 700.343L1534.58 617.894L1534.69 618.383ZM417.251 696.765L417.145 697.254L417.039 697.742L17.5693 611.262L17.7803 610.285L417.251 696.765ZM1533.08 610.773L1533.18 611.262L1133.71 697.742L1133.61 697.254L1133.5 696.765L1532.97 610.285L1533.08 610.773ZM418.046 693.195L417.936 693.684L417.825 694.171L19.2451 603.681L19.4658 602.706L418.046 693.195ZM1531.5 603.681L1132.92 694.171L1132.81 693.684L1132.7 693.195L1531.28 602.706L1531.5 603.681ZM418.881 689.637L418.766 690.123L418.649 690.609L21 596.119L21.2305 595.146L418.881 689.637ZM1529.63 595.633L1529.75 596.119L1132.11 690.609L1131.88 689.637L1529.52 595.146L1529.63 595.633ZM419.746 686.099L419.625 686.584L419.505 687.068L22.8252 588.589L23.0654 587.618L419.746 686.099ZM1527.92 588.589L1131.25 687.068L1131.13 686.584L1131.01 686.099L1527.68 587.618L1527.92 588.589ZM420.64 682.579L420.39 683.548L24.7197 581.088L24.9697 580.119L420.64 682.579ZM1526.03 581.088L1130.36 683.548L1130.11 682.579L1525.78 580.119L1526.03 581.088ZM421.575 679.07L421.445 679.553L421.315 680.036L26.6953 573.605L26.9551 572.641L421.575 679.07ZM1524.06 573.605L1129.43 680.036L1129.3 679.553L1129.17 679.07L1523.8 572.641L1524.06 573.605ZM422.54 675.572L422.271 676.535L28.7305 566.165L29 565.202L422.54 675.572ZM1522.02 566.165L1128.48 676.535L1128.21 675.572L1521.75 565.202L1522.02 566.165ZM423.545 672.094L423.405 672.573L423.266 673.054L30.8457 558.744L31.125 557.783L423.545 672.094ZM1519.91 558.744L1127.5 673.054L1127.36 672.573L1127.22 672.094L1519.63 557.783L1519.91 558.744ZM424.579 668.624L424.29 669.581L33.0303 551.361L33.3193 550.404L424.579 668.624ZM1517.72 551.361L1126.47 669.581L1126.18 668.624L1517.43 550.404L1517.72 551.361ZM425.645 665.166L425.346 666.121L35.2959 544.001L35.5947 543.046L425.645 665.166ZM1515.46 544.001L1125.4 666.121L1125.11 665.166L1515.17 543.046L1515.46 544.001ZM426.739 661.737L426.585 662.213L426.432 662.688L37.6211 536.679L37.9297 535.728L426.739 661.737ZM1512.97 536.203L1513.13 536.679L1124.32 662.688L1124.01 661.737L1512.82 535.728L1512.97 536.203ZM427.874 658.31L427.715 658.784L427.556 659.258L40.0156 529.388L40.334 528.44L427.874 658.31ZM1510.73 529.388L1123.19 659.258L1123.04 658.784L1122.88 658.31L1510.42 528.44L1510.73 529.388ZM429.038 654.899L428.875 655.372L428.711 655.845L42.4805 522.125L42.8086 521.18L429.038 654.899ZM1508.11 521.652L1508.27 522.125L1122.04 655.845L1121.71 654.899L1507.94 521.18L1508.11 521.652ZM430.243 651.513L429.907 652.454L45.0273 514.904L45.3633 513.963L430.243 651.513ZM1505.56 514.434L1505.73 514.904L1120.84 652.454L1120.51 651.513L1505.4 513.963L1505.56 514.434ZM431.478 648.133L431.305 648.603L431.132 649.071L47.6318 507.701L47.9775 506.764L431.478 648.133ZM1503.13 507.701L1119.63 649.071L1119.46 648.603L1119.28 648.133L1502.78 506.764L1503.13 507.701ZM432.733 644.767L432.556 645.234L432.378 645.701L50.3076 500.552L50.6631 499.616L432.733 644.767ZM1500.45 500.552L1118.37 645.701L1118.2 645.234L1118.02 644.767L1500.1 499.616L1500.45 500.552ZM434.037 641.418L433.854 641.883L433.673 642.349L53.042 493.419L53.4072 492.487L434.037 641.418ZM1497.53 492.953L1497.71 493.419L1117.09 642.349L1116.91 641.883L1116.72 641.418L1497.34 492.487L1497.53 492.953ZM435.361 638.09L435.175 638.554L434.988 639.017L55.8584 486.327L56.2314 485.399L435.361 638.09ZM1494.89 486.327L1115.76 639.017L1115.58 638.554L1115.39 638.09L1494.52 485.399L1494.89 486.327ZM436.716 634.771L436.333 635.694L58.7334 479.265L59.1162 478.341L436.716 634.771ZM1492.02 479.265L1114.42 635.694L1114.03 634.771L1491.63 478.341L1492.02 479.265ZM438.111 631.474L437.719 632.394L61.6787 472.243L62.0713 471.323L438.111 631.474ZM1489.07 472.243L1113.03 632.394L1112.64 631.474L1488.68 471.323L1489.07 472.243ZM439.535 628.185L439.335 628.643L439.134 629.101L64.6943 465.261L65.0947 464.345L439.535 628.185ZM1486.07 465.261L1111.62 629.101L1111.21 628.185L1485.67 464.345L1486.07 465.261ZM440.989 624.917L440.784 625.374L440.58 625.83L67.7695 458.31L68.1797 457.397L440.989 624.917ZM1482.99 458.31L1110.17 625.83L1109.96 625.374L1109.76 624.917L1482.58 457.397L1482.99 458.31ZM442.475 621.669L442.266 622.123L442.056 622.577L70.9062 451.397L71.3242 450.489L442.475 621.669ZM1479.64 450.943L1479.84 451.397L1108.69 622.577L1108.28 621.669L1479.43 450.489L1479.64 450.943ZM443.989 618.431L443.775 618.883L443.562 619.334L74.1211 444.515L74.5488 443.61L443.989 618.431ZM1476.64 444.515L1107.19 619.334L1106.97 618.883L1106.76 618.431L1476.21 443.61L1476.64 444.515ZM445.544 615.213L445.325 615.662L445.107 616.112L77.3867 437.683L77.8242 436.782L445.544 615.213ZM1473.36 437.683L1105.65 616.112L1105.44 615.662L1105.22 615.213L1472.93 436.782L1473.36 437.683ZM447.118 612.016L446.896 612.464L446.673 612.911L80.7227 430.881L81.168 429.986L447.118 612.016ZM1470.03 430.881L1104.08 612.911L1103.86 612.464L1103.63 612.016L1469.58 429.986L1470.03 430.881ZM448.732 608.828L448.506 609.273L448.278 609.72L84.1289 424.119L84.582 423.229L448.732 608.828ZM1466.41 423.674L1466.63 424.119L1102.48 609.72L1102.25 609.273L1102.03 608.828L1466.18 423.229L1466.41 423.674ZM450.367 605.66L450.136 606.104L449.904 606.546L87.584 417.396L88.0469 416.51L450.367 605.66ZM1463.17 417.396L1100.85 606.546L1100.62 606.104L1100.38 605.66L1462.7 416.51L1463.17 417.396ZM452.041 602.513L451.806 602.954L451.569 603.395L91.1201 410.705L91.5908 409.822L452.041 602.513ZM1459.41 410.264L1459.64 410.705L1099.19 603.395L1098.96 602.954L1098.72 602.513L1459.17 409.822L1459.41 410.264ZM453.735 599.374L453.495 599.813L453.255 600.252L94.7051 404.062L95.1855 403.185L453.735 599.374ZM1456.04 404.062L1097.5 600.252L1097.25 599.813L1097.01 599.374L1455.56 403.185L1456.04 404.062ZM455.469 596.268L455.225 596.704L454.98 597.14L98.3506 397.45L98.8389 396.577L455.469 596.268ZM1452.4 397.45L1095.77 597.14L1095.53 596.704L1095.28 596.268L1451.91 396.577L1452.4 397.45ZM457.224 593.169L456.976 593.604L456.727 594.037L102.067 390.887L102.563 390.02L457.224 593.169ZM1448.44 390.453L1448.68 390.887L1094.02 594.037L1093.78 593.604L1093.53 593.169L1448.19 390.02L1448.44 390.453ZM459.018 590.092L458.512 590.955L105.842 384.365L106.348 383.502L459.018 590.092ZM1444.91 384.365L1092.24 590.955L1091.73 590.092L1444.4 383.502L1444.91 384.365ZM460.831 587.024L460.317 587.882L109.678 377.882L110.191 377.024L460.831 587.024ZM1441.07 377.882L1090.43 587.882L1089.92 587.024L1440.56 377.024L1441.07 377.882ZM462.686 583.987L462.425 584.414L462.164 584.84L113.574 371.44L114.096 370.587L462.686 583.987ZM1437.18 371.44L1088.6 584.84L1088.33 584.414L1088.07 583.987L1436.65 370.587L1437.18 371.44ZM464.561 580.959L464.295 581.384L464.029 581.808L117.529 365.037L118.061 364.189L464.561 580.959ZM1433.22 365.037L1086.72 581.808L1086.46 581.384L1086.19 580.959L1432.69 364.189L1433.22 365.037ZM466.465 577.963L466.195 578.384L465.926 578.806L121.546 358.675L122.085 357.833L466.465 577.963ZM1429.2 358.675L1084.82 578.806L1084.55 578.384L1084.29 577.963L1428.67 357.833L1429.2 358.675ZM468.397 574.975L468.125 575.394L467.852 575.812L125.621 352.362L126.168 351.524L468.397 574.975ZM1424.86 351.943L1425.13 352.362L1082.9 575.812L1082.35 574.975L1424.58 351.524L1424.86 351.943ZM470.362 572.008L469.808 572.84L129.758 346.09L130.312 345.258L470.362 572.008ZM1421 346.09L1080.94 572.84L1080.39 572.008L1420.45 345.258L1421 346.09ZM472.356 569.061L472.074 569.474L471.793 569.887L133.943 339.856L134.506 339.03L472.356 569.061ZM1416.81 339.856L1078.97 569.887L1078.4 569.061L1416.24 339.03L1416.81 339.856ZM474.371 566.134L474.085 566.544L473.8 566.954L138.2 333.664L138.771 332.844L474.371 566.134ZM1412.28 333.254L1412.56 333.664L1076.95 566.954L1076.38 566.134L1411.99 332.844L1412.28 333.254ZM476.424 563.226L476.135 563.634L475.846 564.041L142.506 327.521L143.084 326.705L476.424 563.226ZM1408.24 327.521L1074.91 564.041L1074.62 563.634L1074.34 563.226L1407.67 326.705L1408.24 327.521ZM478.498 560.339L478.205 560.743L477.912 561.148L146.872 321.429L147.458 320.618L478.498 560.339ZM1403.58 321.023L1403.88 321.429L1072.85 561.148L1072.55 560.743L1072.26 560.339L1403.29 320.618L1403.58 321.023ZM480.592 557.471L480.295 557.873L479.998 558.274L151.288 315.375L151.882 314.57L480.592 557.471ZM1399.46 315.375L1070.75 558.274L1070.46 557.873L1070.16 557.471L1398.87 314.57L1399.46 315.375ZM482.727 554.634L482.425 555.033L482.124 555.432L155.774 309.362L156.376 308.563L482.727 554.634ZM1394.99 309.362L1068.63 555.432L1068.33 555.033L1068.02 554.634L1394.38 308.563L1394.99 309.362ZM484.88 551.808L484.271 552.601L160.311 303.4L160.92 302.607L484.88 551.808ZM1390.45 303.4L1066.48 552.601L1065.87 551.808L1389.84 302.607L1390.45 303.4ZM487.063 549L486.446 549.787L164.896 297.487L165.514 296.7L487.063 549ZM1385.85 297.487L1064.3 549.787L1063.69 549L1385.24 296.7L1385.85 297.487ZM489.278 546.223L488.966 546.612L488.653 547.003L169.543 291.613L170.168 290.832L489.278 546.223ZM1381.21 291.613L1062.1 547.003L1061.79 546.612L1061.47 546.223L1380.58 290.832L1381.21 291.613ZM491.512 543.455L491.195 543.843L490.879 544.229L174.249 285.79L174.882 285.015L491.512 543.455ZM1376.19 285.402L1376.51 285.79L1059.87 544.229L1059.55 543.843L1059.24 543.455L1375.88 285.015L1376.19 285.402ZM493.775 540.719L493.455 541.104L493.136 541.487L179.005 280.008L179.646 279.238L493.775 540.719ZM1371.43 279.623L1371.75 280.008L1057.62 541.487L1057.29 541.104L1056.97 540.719L1371.12 279.238L1371.43 279.623ZM496.068 538.001L495.745 538.383L495.421 538.764L183.812 274.283L184.458 273.521L496.068 538.001ZM1366.62 273.902L1366.94 274.283L1055.33 538.764L1055 538.383L1054.68 538.001L1366.29 273.521L1366.62 273.902ZM498.382 535.314L497.728 536.07L188.678 268.601L189.332 267.845L498.382 535.314ZM1362.07 268.601L1053.02 536.07L1052.37 535.314L1361.42 267.845L1362.07 268.601ZM500.726 532.639L500.063 533.389L193.594 262.969L194.256 262.219L500.726 532.639ZM1357.16 262.969L1050.69 533.389L1050.02 532.639L1356.49 262.219L1357.16 262.969ZM503.089 529.992L502.755 530.364L502.42 530.735L198.561 257.376L199.229 256.632L503.089 529.992ZM1351.86 257.004L1352.19 257.376L1048.33 530.735L1048 530.364L1047.66 529.992L1351.52 256.632L1351.86 257.004ZM505.482 527.364L505.145 527.732L504.807 528.102L203.587 251.841L204.263 251.104L505.482 527.364ZM1347.16 251.841L1045.94 528.102L1045.61 527.732L1045.27 527.364L1346.49 251.104L1347.16 251.841ZM507.896 524.757L507.555 525.122L507.214 525.487L208.663 246.348L209.347 245.617L507.896 524.757ZM1341.75 245.982L1342.09 246.348L1043.54 525.487L1042.85 524.757L1341.4 245.617L1341.75 245.982ZM510.34 522.181L509.995 522.543L509.649 522.904L213.79 240.915L214.479 240.19L510.34 522.181ZM1336.62 240.553L1336.96 240.915L1041.1 522.904L1040.75 522.543L1040.41 522.181L1336.27 240.19L1336.62 240.553ZM512.813 519.625L512.465 519.984L512.117 520.343L218.977 235.522L219.674 234.806L512.813 519.625ZM1331.43 235.164L1331.78 235.522L1038.64 520.343L1038.29 519.984L1037.95 519.625L1331.09 234.806L1331.43 235.164ZM515.297 517.089L514.944 517.444L514.593 517.8L224.203 230.18L224.906 229.469L515.297 517.089ZM1326.19 229.824L1326.55 230.18L1036.16 517.8L1035.45 517.089L1325.84 229.469L1326.19 229.824ZM517.811 514.581L517.455 514.933L517.1 515.285L229.479 224.895L230.19 224.191L517.811 514.581ZM1321.27 224.895L1033.65 515.285L1033.29 514.933L1032.94 514.581L1320.56 224.191L1321.27 224.895ZM520.354 512.104L519.995 512.452L519.636 512.801L234.816 219.661L235.533 218.964L520.354 512.104ZM1315.58 219.312L1315.93 219.661L1031.11 512.801L1030.75 512.452L1030.4 512.104L1315.22 218.964L1315.58 219.312ZM522.917 509.638L522.556 509.983L522.193 510.328L240.203 214.468L240.928 213.778L522.917 509.638ZM1310.56 214.468L1028.56 510.328L1028.2 509.983L1027.83 509.638L1309.83 213.778L1310.56 214.468ZM525.5 507.203L525.135 507.544L524.77 507.886L245.63 209.336L246.36 208.652L525.5 507.203ZM1305.12 209.336L1025.98 507.886L1025.62 507.544L1025.25 507.203L1304.39 208.652L1305.12 209.336ZM528.114 504.796L527.745 505.134L527.377 505.472L251.117 204.252L251.854 203.576L528.114 504.796ZM1299.26 203.914L1299.63 204.252L1023.37 505.472L1022.64 504.796L1298.9 203.576L1299.26 203.914ZM530.746 502.408L530.375 502.743L530.003 503.077L256.643 199.217L257.387 198.549L530.746 502.408ZM1293.74 198.883L1294.11 199.217L1020.75 503.077L1020.38 502.743L1020 502.408L1293.36 198.549L1293.74 198.883ZM533.4 500.053L532.65 500.715L262.23 194.245L262.98 193.583L533.4 500.053ZM1288.53 194.245L1018.1 500.715L1017.35 500.053L1287.78 193.583L1288.53 194.245ZM536.083 497.717L535.327 498.371L267.857 189.321L268.613 188.667L536.083 497.717ZM1282.9 189.321L1015.43 498.371L1014.68 497.717L1282.15 188.667L1282.9 189.321ZM538.776 495.409L538.396 495.733L538.014 496.057L273.534 184.446L274.296 183.8L538.776 495.409ZM1276.85 184.123L1277.23 184.446L1012.74 496.057L1012.36 495.733L1011.97 495.409L1276.46 183.8L1276.85 184.123ZM541.499 493.123L541.115 493.442L540.73 493.763L279.25 179.633L280.02 178.992L541.499 493.123ZM1271.12 179.312L1271.5 179.633L1010.02 493.763L1009.63 493.442L1009.25 493.123L1270.73 178.992L1271.12 179.312ZM544.242 490.866L543.855 491.183L543.468 491.499L285.027 174.869L285.803 174.236L544.242 490.866ZM1265.33 174.553L1265.72 174.869L1007.28 491.499L1006.51 490.866L1264.95 174.236L1265.33 174.553ZM547.016 488.642L546.625 488.954L546.235 489.267L290.845 170.156L291.626 169.531L547.016 488.642ZM1259.91 170.156L1004.53 489.267L1003.74 488.642L1259.12 169.531L1259.91 170.156ZM549.799 486.435L549.012 487.052L296.712 165.502L297.499 164.885L549.799 486.435ZM1254.04 165.502L1001.74 487.052L1000.95 486.435L1253.25 164.885L1254.04 165.502ZM552.611 484.259L551.818 484.868L302.618 160.908L303.411 160.299L552.611 484.259ZM1248.13 160.908L998.932 484.868L998.139 484.259L1247.34 160.299L1248.13 160.908ZM555.443 482.111L555.045 482.412L554.646 482.714L308.575 156.363L309.374 155.762L555.443 482.111ZM1241.77 156.062L1242.17 156.363L996.114 482.714L995.715 482.412L995.315 482.111L1241.38 155.762L1241.77 156.062ZM558.287 479.987L557.886 480.284L557.483 480.581L314.583 151.871L315.388 151.277L558.287 479.987ZM1235.77 151.574L1236.17 151.871L993.268 480.581L992.463 479.987L1235.36 151.277L1235.77 151.574ZM561.16 477.899L560.755 478.192L560.351 478.485L320.63 147.445L321.44 146.859L561.16 477.899ZM1229.71 147.152L1230.12 147.445L990.4 478.485L989.59 477.899L1229.31 146.859L1229.71 147.152ZM564.053 475.834L563.646 476.123L563.237 476.412L326.717 143.072L327.533 142.494L564.053 475.834ZM1223.63 142.783L1224.03 143.072L987.514 476.412L986.697 475.834L1223.22 142.494L1223.63 142.783ZM566.965 473.787L566.555 474.072L566.145 474.358L332.854 138.758L333.675 138.188L566.965 473.787ZM1217.9 138.758L984.605 474.358L984.195 474.072L983.785 473.787L1217.08 138.188L1217.9 138.758ZM569.898 471.781L569.485 472.062L569.072 472.345L339.042 134.494L339.868 133.932L569.898 471.781ZM1211.71 134.494L981.678 472.345L981.265 472.062L980.852 471.781L1210.88 133.932L1211.71 134.494ZM572.851 469.796L572.019 470.351L345.269 130.301L346.101 129.746L572.851 469.796ZM1205.49 130.301L978.731 470.351L977.899 469.796L1204.66 129.746L1205.49 130.301ZM575.824 467.84L575.405 468.113L574.986 468.386L351.536 126.156L352.374 125.609L575.824 467.84ZM1199.22 126.156L975.774 468.386L975.355 468.113L974.937 467.84L1198.39 125.609L1199.22 126.156ZM578.816 465.913L578.395 466.183L577.974 466.452L357.844 122.072L358.686 121.533L578.816 465.913ZM1192.49 121.803L1192.91 122.072L972.786 466.452L971.944 465.913L1192.06 121.533L1192.49 121.803ZM581.819 464.018L581.396 464.283L580.971 464.549L364.201 118.049L365.049 117.518L581.819 464.018ZM1186.56 118.049L969.779 464.549L968.932 464.018L1185.71 117.518L1186.56 118.049ZM584.852 462.153L584.426 462.414L583.999 462.675L370.599 114.085L371.452 113.563L584.852 462.153ZM1179.74 113.824L1180.16 114.085L966.752 462.675L965.898 462.153L1179.31 113.563L1179.74 113.824ZM587.894 460.307L587.036 460.82L377.036 110.181L377.894 109.667L587.894 460.307ZM1173.29 109.924L1173.72 110.181L963.714 460.82L962.856 460.307L1172.87 109.667L1173.29 109.924ZM590.967 458.501L590.104 459.007L383.514 106.337L384.377 105.831L590.967 458.501ZM1167.24 106.337L960.656 459.007L959.793 458.501L1166.37 105.831L1167.24 106.337ZM594.049 456.714L593.615 456.963L593.181 457.211L390.031 102.551L390.898 102.055L594.049 456.714ZM1160.28 102.303L1160.72 102.551L957.578 457.211L957.145 456.963L956.711 456.714L1159.85 102.055L1160.28 102.303ZM597.151 454.97L596.716 455.214L596.279 455.458L396.589 98.8281L397.462 98.3398L597.151 454.97ZM1153.72 98.584L1154.16 98.8281L954.481 455.458L953.608 454.97L1153.29 98.3398L1153.72 98.584ZM600.264 453.243L599.825 453.483L599.386 453.724L403.196 95.1738L404.073 94.6934L600.264 453.243ZM1147.12 94.9336L1147.55 95.1738L951.363 453.724L950.486 453.243L1146.68 94.6934L1147.12 94.9336ZM603.406 451.558L602.966 451.794L602.524 452.029L409.834 91.5791L410.717 91.1084L603.406 451.558ZM1140.48 91.3438L1140.92 91.5791L948.227 452.029L947.785 451.794L947.344 451.558L1140.03 91.1084L1140.48 91.3438ZM606.558 449.892L606.115 450.123L605.672 450.354L416.521 88.0342L417.408 87.5713L606.558 449.892ZM1134.24 88.0342L945.078 450.354L944.191 449.892L1133.35 87.5713L1134.24 88.0342ZM609.73 448.267L609.284 448.494L608.839 448.721L423.239 84.5703L424.13 84.1172L609.73 448.267ZM1127.08 84.3438L1127.52 84.5713L941.91 448.721L941.465 448.494L941.02 448.267L1126.63 84.1162L1127.08 84.3438ZM612.923 446.661L612.476 446.884L612.027 447.106L429.998 81.1562L430.893 80.7109L612.923 446.661ZM1120.31 80.9336L1120.75 81.1562L938.723 447.106L937.828 446.661L1119.86 80.7109L1120.31 80.9336ZM616.125 445.096L615.675 445.313L615.226 445.532L436.795 77.8125L437.695 77.375L616.125 445.096ZM1113.52 77.5938L1113.96 77.8125L935.525 445.532L935.075 445.313L934.625 445.096L1113.07 77.375L1113.52 77.5938ZM619.347 443.551L618.896 443.765L618.443 443.979L443.623 74.5381L444.527 74.1104L619.347 443.551ZM1107.13 74.5381L932.308 443.979L931.403 443.551L1106.22 74.1104L1107.13 74.5381ZM622.589 442.044L622.135 442.254L621.681 442.463L450.501 71.3125L451.409 70.8945L622.589 442.044ZM1100.25 71.3125L929.069 442.463L928.615 442.254L928.161 442.044L1099.34 70.8945L1100.25 71.3125ZM625.842 440.568L625.386 440.772L624.929 440.978L457.409 68.168L458.321 67.7578L625.842 440.568ZM1092.89 67.9629L1093.34 68.168L925.821 440.978L925.365 440.772L924.909 440.568L1092.43 67.7578L1092.89 67.9629ZM629.113 439.122L628.655 439.323L628.197 439.523L464.357 65.083L465.273 64.6826L629.113 439.122ZM1086.39 65.083L922.553 439.523L922.095 439.323L921.637 439.122L1085.48 64.6826L1086.39 65.083ZM632.405 437.707L631.485 438.1L471.335 62.0596L472.255 61.667L632.405 437.707ZM1079.42 62.0596L919.265 438.1L918.345 437.707L1078.5 61.667L1079.42 62.0596ZM635.707 436.322L634.783 436.705L478.354 59.1055L479.277 58.7227L635.707 436.322ZM1072.4 59.1055L915.967 436.705L915.043 436.322L1071.47 58.7227L1072.4 59.1055ZM639.028 434.977L638.565 435.163L638.102 435.35L485.411 56.2197L486.339 55.8467L639.028 434.977ZM1064.88 56.0332L1065.34 56.2197L912.648 435.35L911.721 434.977L1064.41 55.8467L1064.88 56.0332ZM642.36 433.661L641.895 433.843L641.43 434.025L492.499 53.3955L493.431 53.0303L642.36 433.661ZM1057.79 53.2129L1058.25 53.3955L909.321 434.025L908.855 433.843L908.39 433.661L1057.32 53.0303L1057.79 53.2129ZM645.712 432.365L645.245 432.543L644.777 432.721L499.627 50.6504L500.562 50.2949L645.712 432.365ZM1050.67 50.4727L1051.13 50.6504L905.973 432.721L905.037 432.365L1050.2 50.2949L1050.67 50.4727ZM649.084 431.12L648.615 431.293L648.146 431.466L506.776 47.9658L507.714 47.6201L649.084 431.12ZM1043.5 47.793L1043.97 47.9658L902.613 431.466L901.676 431.12L1043.04 47.6201L1043.5 47.793ZM652.466 429.896L651.524 430.231L513.975 45.3516L514.916 45.0156L652.466 429.896ZM1036.79 45.3516L899.235 430.231L898.294 429.896L1035.84 45.0156L1036.79 45.3516ZM655.857 428.699L655.385 428.863L654.912 429.026L521.192 42.7969L522.138 42.4688L655.857 428.699ZM1029.56 42.7969L895.838 429.026L895.365 428.863L894.893 428.699L1028.61 42.4688L1029.56 42.7969ZM659.269 427.545L658.795 427.704L658.32 427.863L528.451 40.3232L529.398 40.0049L659.269 427.545ZM1021.83 40.1641L1022.3 40.3232L892.429 427.863L891.481 427.545L1021.35 40.0049L1021.83 40.1641ZM662.7 426.42L662.225 426.573L661.749 426.728L535.739 37.918L536.69 37.6094L662.7 426.42ZM1015.01 37.918L889.011 426.728L888.535 426.573L888.06 426.42L1014.06 37.6094L1015.01 37.918ZM666.133 425.334L665.178 425.633L543.058 35.583L544.013 35.2842L666.133 425.334ZM1007.69 35.583L885.572 425.633L884.617 425.334L1006.74 35.2842L1007.69 35.583ZM669.593 424.279L668.636 424.568L550.416 33.3086L551.373 33.0195L669.593 424.279ZM1000.33 33.3086L882.113 424.568L881.156 424.279L999.376 33.0195L1000.33 33.3086ZM673.065 423.253L672.585 423.393L672.105 423.532L557.795 31.1123L558.756 30.833L673.065 423.253ZM992.475 30.9727L992.955 31.1123L878.655 423.532L877.694 423.253L991.995 30.833L992.475 30.9727ZM676.547 422.259L675.584 422.528L565.214 28.9883L566.177 28.7188L676.547 422.259ZM985.546 28.9883L875.166 422.528L874.203 422.259L984.583 28.7188L985.546 28.9883ZM680.048 421.303L679.564 421.433L679.082 421.562L572.652 26.9424L573.617 26.6826L680.048 421.303ZM978.098 26.9424L871.678 421.562L870.713 421.303L977.133 26.6826L978.098 26.9424ZM683.56 420.379L682.591 420.629L580.131 24.959L581.1 24.709L683.56 420.379ZM970.145 24.834L970.629 24.959L868.159 420.629L867.19 420.379L969.661 24.709L970.145 24.834ZM687.08 419.493L686.596 419.613L686.11 419.734L587.63 23.0537L588.601 22.8135L687.08 419.493ZM963.131 23.0537L864.641 419.734L864.155 419.613L863.67 419.493L962.16 22.8135L963.131 23.0537ZM690.621 418.638L690.135 418.754L689.648 418.869L595.158 21.2188L596.131 20.9883L690.621 418.638ZM955.592 21.2188L861.102 418.869L860.615 418.754L860.129 418.638L954.619 20.9883L955.592 21.2188ZM694.183 417.813L693.695 417.924L693.207 418.034L602.718 19.4541L603.692 19.2334L694.183 417.813ZM948.042 19.4541L857.542 418.034L856.567 417.813L947.067 19.2334L948.042 19.4541ZM697.754 417.028L697.266 417.134L696.776 417.24L610.297 17.7695L611.273 17.5586L697.754 417.028ZM939.965 17.6641L940.454 17.7695L853.983 417.24L853.495 417.134L853.007 417.028L939.477 17.5586L939.965 17.6641ZM701.334 416.271L700.845 416.373L700.354 416.474L617.905 16.1533L618.884 15.9521L701.334 416.271ZM932.355 16.0527L932.845 16.1533L850.404 416.474L849.915 416.373L849.426 416.271L931.865 15.9521L932.355 16.0527ZM704.926 415.558L704.436 415.653L703.944 415.749L625.545 14.6191L626.525 14.4277L704.926 415.558ZM924.716 14.5234L925.206 14.6191L846.806 415.749L845.825 415.558L924.225 14.4277L924.716 14.5234ZM708.537 414.882L708.045 414.973L707.554 415.063L633.214 13.1533L634.196 12.9717L708.537 414.882ZM917.055 13.0625L917.547 13.1533L843.196 415.063L842.214 414.882L916.563 12.9717L917.055 13.0625ZM712.167 414.228L711.675 414.313L711.182 414.399L640.902 11.7695L641.887 11.5977L712.167 414.228ZM909.365 11.6836L909.857 11.7695L839.577 414.399L838.593 414.228L908.872 11.5977L909.365 11.6836ZM715.799 413.622L714.812 413.784L648.612 10.4541L649.599 10.292L715.799 413.622ZM902.139 10.4541L835.938 413.784L834.952 413.622L901.152 10.292L902.139 10.4541ZM719.449 413.047L718.955 413.123L718.461 413.198L656.351 9.21875L657.339 9.06641L719.449 413.047ZM894.409 9.21875L832.289 413.198L831.795 413.123L831.301 413.047L893.421 9.06641L894.409 9.21875ZM723.12 412.503L722.626 412.574L722.131 412.646L664.11 8.06543L665.101 7.92285L723.12 412.503ZM886.65 8.06543L828.62 412.646L827.63 412.503L885.66 7.92285L886.65 8.06543ZM726.801 411.998L726.305 412.064L725.81 412.13L671.889 6.98047L672.881 6.84766L726.801 411.998ZM878.365 6.91406L878.861 6.98047L824.941 412.13L824.445 412.064L823.949 411.998L877.87 6.84766L878.365 6.91406ZM730.491 411.533L729.499 411.654L679.699 5.98438L680.691 5.86328L730.491 411.533ZM870.564 5.92383L871.062 5.98438L821.251 411.654L820.259 411.533L870.068 5.86328L870.564 5.92383ZM734.201 411.108L733.705 411.164L733.208 411.22L687.518 5.05957L688.512 4.94824L734.201 411.108ZM862.734 5.00391L863.231 5.05957L817.552 411.22L816.558 411.108L862.238 4.94824L862.734 5.00391ZM737.923 410.712L737.425 410.763L736.928 410.813L695.368 4.20312L696.362 4.10156L737.923 410.712ZM854.885 4.15234L855.383 4.20312L813.832 410.813L812.838 410.712L854.388 4.10156L854.885 4.15234ZM741.653 410.347L740.657 410.438L703.237 3.43848L704.233 3.34668L741.653 410.347ZM847.513 3.43848L810.093 410.438L809.097 410.347L846.517 3.34668L847.513 3.43848ZM745.403 410.032L744.905 410.073L744.406 410.114L711.127 2.74414L712.123 2.66211L745.403 410.032ZM839.126 2.70312L839.624 2.74414L806.354 410.114L805.357 410.032L838.627 2.66211L839.126 2.70312ZM749.164 409.748L748.665 409.783L748.166 409.819L719.036 2.13867L720.034 2.06836L749.164 409.748ZM831.714 2.13867L802.594 409.819L802.095 409.783L801.596 409.748L830.716 2.06836L831.714 2.13867ZM752.935 409.504L752.436 409.534L751.936 409.564L726.956 1.60449L727.954 1.54395L752.935 409.504ZM823.296 1.57422L823.795 1.60449L798.814 409.564L797.816 409.504L822.796 1.54395L823.296 1.57422ZM756.725 409.297L756.226 409.323L755.726 409.349L734.906 1.1582L735.904 1.10742L756.725 409.297ZM815.346 1.13281L815.845 1.1582L795.024 409.349L794.525 409.323L794.026 409.297L814.846 1.10742L815.346 1.13281ZM760.524 409.123L760.025 409.144L759.525 409.164L742.865 0.78418L743.865 0.743164L760.524 409.123ZM807.385 0.763672L807.884 0.78418L791.225 409.164L790.225 409.123L806.885 0.743164L807.385 0.763672ZM764.345 408.997L763.845 409.013L763.345 409.027L750.845 0.498047L751.845 0.466797L764.345 408.997ZM799.905 0.498047L787.405 409.027L786.905 409.013L786.405 408.997L798.905 0.466797L799.905 0.498047ZM768.175 408.903L767.675 408.913L767.175 408.924L758.845 0.283203L759.845 0.263672L768.175 408.903ZM791.915 0.283203L783.575 408.924L783.075 408.913L782.575 408.903L790.915 0.263672L791.915 0.283203ZM772.016 408.848L771.016 408.857L766.855 0.157227L767.855 0.147461L772.016 408.848ZM783.905 0.157227L779.735 408.857L778.735 408.848L782.905 0.147461L783.905 0.157227ZM775.875 408.833H774.875V0.113281H775.875V408.833Z" fill="url(#paint0_linear_1528_5413)"/>
</g>
<defs>
<linearGradient id="paint0_linear_1528_5413" x1="775.375" y1="0.113281" x2="775.375" y2="775.863" gradientUnits="userSpaceOnUse">
<stop offset="0.00961538" stop-color="#6E6080" stop-opacity="0.4"/>
<stop offset="1" stop-color="#6E6080"/>
</linearGradient>
<clipPath id="clip0_1528_5413">
<rect width="729.75" height="410.484" fill="white"/>
</clipPath>
</defs>
</svg>
