<svg width="730" height="411" viewBox="0 0 730 411" fill="none" xmlns="http://www.w3.org/2000/svg">
<g clip-path="url(#clip0_1528_5407)">
<rect width="729.75" height="410.484" fill="#2E6E3E"/>
<g style="mix-blend-mode:soft-light">
<path d="M0.703765 -156.614L22.6486 -182.838L44.5934 -156.614M0.703765 -156.614L22.6486 -173.998L44.5934 -156.614M0.703765 -156.614L22.6486 -165.663L44.5934 -156.614M0.703765 -156.614L22.6486 -194.623L44.5934 -156.614M62.06 -156.614L84.0048 -182.838L105.95 -156.614M62.06 -156.614L84.0048 -173.998L105.95 -156.614M62.06 -156.614L84.0048 -165.663L105.95 -156.614M62.06 -156.614L84.0048 -194.623L105.95 -156.614M123.416 -156.614L145.361 -182.838L167.306 -156.614M123.416 -156.614L145.361 -173.998L167.306 -156.614M123.416 -156.614L145.361 -165.663L167.306 -156.614M123.416 -156.614L145.361 -194.623L167.306 -156.614M184.772 -156.614L206.717 -182.838L228.662 -156.614M184.772 -156.614L206.717 -173.998L228.662 -156.614M184.772 -156.614L206.717 -165.663L228.662 -156.614M184.772 -156.614L206.717 -194.623L228.662 -156.614M246.129 -156.614L268.074 -182.838L290.018 -156.614M246.129 -156.614L268.074 -173.998L290.018 -156.614M246.129 -156.614L268.074 -165.663L290.018 -156.614M246.129 -156.614L268.074 -194.623L290.018 -156.614M307.485 -156.614L329.43 -182.838L351.375 -156.614M307.485 -156.614L329.43 -173.998L351.375 -156.614M307.485 -156.614L329.43 -165.663L351.375 -156.614M307.485 -156.614L329.43 -194.623L351.375 -156.614M368.841 -156.614L390.786 -182.838L412.731 -156.614M368.841 -156.614L390.786 -173.998L412.731 -156.614M368.841 -156.614L390.786 -165.663L412.731 -156.614M368.841 -156.614L390.786 -194.623L412.731 -156.614M430.197 -156.614L452.142 -182.838L474.087 -156.614M430.197 -156.614L452.142 -173.998L474.087 -156.614M430.197 -156.614L452.142 -165.663L474.087 -156.614M430.197 -156.614L452.142 -194.623L474.087 -156.614M491.554 -156.614L513.499 -182.838L535.443 -156.614M491.554 -156.614L513.499 -173.998L535.443 -156.614M491.554 -156.614L513.499 -165.663L535.443 -156.614M491.554 -156.614L513.499 -194.623L535.443 -156.614M552.91 -156.614L574.855 -182.838L596.8 -156.614M552.91 -156.614L574.855 -173.998L596.8 -156.614M552.91 -156.614L574.855 -165.663L596.8 -156.614M552.91 -156.614L574.855 -194.623L596.8 -156.614M614.266 -156.614L636.211 -182.838L658.156 -156.614M614.266 -156.614L636.211 -173.998L658.156 -156.614M614.266 -156.614L636.211 -165.663L658.156 -156.614M614.266 -156.614L636.211 -194.623L658.156 -156.614M675.622 -156.614L697.567 -182.838L719.512 -156.614M675.622 -156.614L697.567 -173.998L719.512 -156.614M675.622 -156.614L697.567 -165.663L719.512 -156.614M675.622 -156.614L697.567 -194.623L719.512 -156.614M736.979 -156.614L758.924 -182.838L780.868 -156.614M736.979 -156.614L758.924 -173.998L780.868 -156.614M736.979 -156.614L758.924 -165.663L780.868 -156.614M736.979 -156.614L758.924 -194.623L780.868 -156.614M798.335 -156.614L820.28 -182.838L842.225 -156.614M798.335 -156.614L820.28 -173.998L842.225 -156.614M798.335 -156.614L820.28 -165.663L842.225 -156.614M798.335 -156.614L820.28 -194.623L842.225 -156.614M859.691 -156.614L881.636 -182.838L903.581 -156.614M859.691 -156.614L881.636 -173.998L903.581 -156.614M859.691 -156.614L881.636 -165.663L903.581 -156.614M859.691 -156.614L881.636 -194.623L903.581 -156.614M921.047 -156.614L942.992 -182.838L964.937 -156.614M921.047 -156.614L942.992 -173.998L964.937 -156.614M921.047 -156.614L942.992 -165.663L964.937 -156.614M921.047 -156.614L942.992 -194.623L964.937 -156.614M982.404 -156.614L1004.35 -182.838L1026.29 -156.614M982.404 -156.614L1004.35 -173.998L1026.29 -156.614M982.404 -156.614L1004.35 -165.663L1026.29 -156.614M982.404 -156.614L1004.35 -194.623L1026.29 -156.614M0.703765 -3.94028L22.6486 -30.164L44.5934 -3.94028M0.703765 -3.94028L22.6486 -21.324L44.5934 -3.94028M0.703765 -3.94028L22.6486 -12.9885L44.5934 -3.94028M0.703765 -3.94028L22.6486 -41.9489L44.5934 -3.94028M62.06 -3.94028L84.0048 -30.164L105.95 -3.94028M62.06 -3.94028L84.0048 -21.324L105.95 -3.94028M62.06 -3.94028L84.0048 -12.9885L105.95 -3.94028M62.06 -3.94028L84.0048 -41.9489L105.95 -3.94028M123.416 -3.94028L145.361 -30.164L167.306 -3.94028M123.416 -3.94028L145.361 -21.324L167.306 -3.94028M123.416 -3.94028L145.361 -12.9885L167.306 -3.94028M123.416 -3.94028L145.361 -41.9489L167.306 -3.94028M184.772 -3.94028L206.717 -30.164L228.662 -3.94028M184.772 -3.94028L206.717 -21.324L228.662 -3.94028M184.772 -3.94028L206.717 -12.9885L228.662 -3.94028M184.772 -3.94028L206.717 -41.9489L228.662 -3.94028M246.129 -3.94028L268.074 -30.164L290.018 -3.94028M246.129 -3.94028L268.074 -21.324L290.018 -3.94028M246.129 -3.94028L268.074 -12.9885L290.018 -3.94028M246.129 -3.94028L268.074 -41.9489L290.018 -3.94028M307.485 -3.94028L329.43 -30.164L351.375 -3.94028M307.485 -3.94028L329.43 -21.324L351.375 -3.94028M307.485 -3.94028L329.43 -12.9885L351.375 -3.94028M307.485 -3.94028L329.43 -41.9489L351.375 -3.94028M368.841 -3.94028L390.786 -30.164L412.731 -3.94028M368.841 -3.94028L390.786 -21.324L412.731 -3.94028M368.841 -3.94028L390.786 -12.9885L412.731 -3.94028M368.841 -3.94028L390.786 -41.9489L412.731 -3.94028M430.197 -3.94028L452.142 -30.164L474.087 -3.94028M430.197 -3.94028L452.142 -21.324L474.087 -3.94028M430.197 -3.94028L452.142 -12.9885L474.087 -3.94028M430.197 -3.94028L452.142 -41.9489L474.087 -3.94028M491.554 -3.94028L513.499 -30.164L535.443 -3.94028M491.554 -3.94028L513.499 -21.324L535.443 -3.94028M491.554 -3.94028L513.499 -12.9885L535.443 -3.94028M491.554 -3.94028L513.499 -41.9489L535.443 -3.94028M552.91 -3.94028L574.855 -30.164L596.8 -3.94028M552.91 -3.94028L574.855 -21.324L596.8 -3.94028M552.91 -3.94028L574.855 -12.9885L596.8 -3.94028M552.91 -3.94028L574.855 -41.9489L596.8 -3.94028M614.266 -3.94028L636.211 -30.164L658.156 -3.94028M614.266 -3.94028L636.211 -21.324L658.156 -3.94028M614.266 -3.94028L636.211 -12.9885L658.156 -3.94028M614.266 -3.94028L636.211 -41.9489L658.156 -3.94028M675.622 -3.94028L697.567 -30.164L719.512 -3.94028M675.622 -3.94028L697.567 -21.324L719.512 -3.94028M675.622 -3.94028L697.567 -12.9885L719.512 -3.94028M675.622 -3.94028L697.567 -41.9489L719.512 -3.94028M736.979 -3.94028L758.924 -30.164L780.868 -3.94028M736.979 -3.94028L758.924 -21.324L780.868 -3.94028M736.979 -3.94028L758.924 -12.9885L780.868 -3.94028M736.979 -3.94028L758.924 -41.9489L780.868 -3.94028M798.335 -3.94028L820.28 -30.164L842.225 -3.94028M798.335 -3.94028L820.28 -21.324L842.225 -3.94028M798.335 -3.94028L820.28 -12.9885L842.225 -3.94028M798.335 -3.94028L820.28 -41.9489L842.225 -3.94028M859.691 -3.94028L881.636 -30.164L903.581 -3.94028M859.691 -3.94028L881.636 -21.324L903.581 -3.94028M859.691 -3.94028L881.636 -12.9885L903.581 -3.94028M859.691 -3.94028L881.636 -41.9489L903.581 -3.94028M921.047 -3.94028L942.992 -30.164L964.937 -3.94028M921.047 -3.94028L942.992 -21.324L964.937 -3.94028M921.047 -3.94028L942.992 -12.9885L964.937 -3.94028M921.047 -3.94028L942.992 -41.9489L964.937 -3.94028M982.404 -3.94028L1004.35 -30.164L1026.29 -3.94028M982.404 -3.94028L1004.35 -21.324L1026.29 -3.94028M982.404 -3.94028L1004.35 -12.9885L1026.29 -3.94028M982.404 -3.94028L1004.35 -41.9489L1026.29 -3.94028M0.703765 148.734L22.6486 122.51L44.5934 148.734M0.703765 148.734L22.6486 131.35L44.5934 148.734M0.703765 148.734L22.6486 139.686L44.5934 148.734M0.703765 148.734L22.6486 110.725L44.5934 148.734M62.06 148.734L84.0048 122.51L105.95 148.734M62.06 148.734L84.0048 131.35L105.95 148.734M62.06 148.734L84.0048 139.686L105.95 148.734M62.06 148.734L84.0048 110.725L105.95 148.734M123.416 148.734L145.361 122.51L167.306 148.734M123.416 148.734L145.361 131.35L167.306 148.734M123.416 148.734L145.361 139.686L167.306 148.734M123.416 148.734L145.361 110.725L167.306 148.734M184.772 148.734L206.717 122.51L228.662 148.734M184.772 148.734L206.717 131.35L228.662 148.734M184.772 148.734L206.717 139.686L228.662 148.734M184.772 148.734L206.717 110.725L228.662 148.734M246.129 148.734L268.074 122.51L290.018 148.734M246.129 148.734L268.074 131.35L290.018 148.734M246.129 148.734L268.074 139.686L290.018 148.734M246.129 148.734L268.074 110.725L290.018 148.734M307.485 148.734L329.43 122.51L351.375 148.734M307.485 148.734L329.43 131.35L351.375 148.734M307.485 148.734L329.43 139.686L351.375 148.734M307.485 148.734L329.43 110.725L351.375 148.734M368.841 148.734L390.786 122.51L412.731 148.734M368.841 148.734L390.786 131.35L412.731 148.734M368.841 148.734L390.786 139.686L412.731 148.734M368.841 148.734L390.786 110.725L412.731 148.734M430.197 148.734L452.142 122.51L474.087 148.734M430.197 148.734L452.142 131.35L474.087 148.734M430.197 148.734L452.142 139.686L474.087 148.734M430.197 148.734L452.142 110.725L474.087 148.734M491.554 148.734L513.499 122.51L535.443 148.734M491.554 148.734L513.499 131.35L535.443 148.734M491.554 148.734L513.499 139.686L535.443 148.734M491.554 148.734L513.499 110.725L535.443 148.734M552.91 148.734L574.855 122.51L596.8 148.734M552.91 148.734L574.855 131.35L596.8 148.734M552.91 148.734L574.855 139.686L596.8 148.734M552.91 148.734L574.855 110.725L596.8 148.734M614.266 148.734L636.211 122.51L658.156 148.734M614.266 148.734L636.211 131.35L658.156 148.734M614.266 148.734L636.211 139.686L658.156 148.734M614.266 148.734L636.211 110.725L658.156 148.734M675.622 148.734L697.567 122.51L719.512 148.734M675.622 148.734L697.567 131.35L719.512 148.734M675.622 148.734L697.567 139.686L719.512 148.734M675.622 148.734L697.567 110.725L719.512 148.734M736.979 148.734L758.924 122.51L780.868 148.734M736.979 148.734L758.924 131.35L780.868 148.734M736.979 148.734L758.924 139.686L780.868 148.734M736.979 148.734L758.924 110.725L780.868 148.734M798.335 148.734L820.28 122.51L842.225 148.734M798.335 148.734L820.28 131.35L842.225 148.734M798.335 148.734L820.28 139.686L842.225 148.734M798.335 148.734L820.28 110.725L842.225 148.734M859.691 148.734L881.636 122.51L903.581 148.734M859.691 148.734L881.636 131.35L903.581 148.734M859.691 148.734L881.636 139.686L903.581 148.734M859.691 148.734L881.636 110.725L903.581 148.734M921.047 148.734L942.992 122.51L964.937 148.734M921.047 148.734L942.992 131.35L964.937 148.734M921.047 148.734L942.992 139.686L964.937 148.734M921.047 148.734L942.992 110.725L964.937 148.734M982.404 148.734L1004.35 122.51L1026.29 148.734M982.404 148.734L1004.35 131.35L1026.29 148.734M982.404 148.734L1004.35 139.686L1026.29 148.734M982.404 148.734L1004.35 110.725L1026.29 148.734M0.703765 301.408L22.6486 275.184L44.5934 301.408M0.703765 301.408L22.6486 284.024L44.5934 301.408M0.703765 301.408L22.6486 292.36L44.5934 301.408M0.703765 301.408L22.6486 263.399L44.5934 301.408M62.06 301.408L84.0048 275.184L105.95 301.408M62.06 301.408L84.0048 284.024L105.95 301.408M62.06 301.408L84.0048 292.36L105.95 301.408M62.06 301.408L84.0048 263.399L105.95 301.408M123.416 301.408L145.361 275.184L167.306 301.408M123.416 301.408L145.361 284.024L167.306 301.408M123.416 301.408L145.361 292.36L167.306 301.408M123.416 301.408L145.361 263.399L167.306 301.408M184.772 301.408L206.717 275.184L228.662 301.408M184.772 301.408L206.717 284.024L228.662 301.408M184.772 301.408L206.717 292.36L228.662 301.408M184.772 301.408L206.717 263.399L228.662 301.408M246.129 301.408L268.074 275.184L290.018 301.408M246.129 301.408L268.074 284.024L290.018 301.408M246.129 301.408L268.074 292.36L290.018 301.408M246.129 301.408L268.074 263.399L290.018 301.408M307.485 301.408L329.43 275.184L351.375 301.408M307.485 301.408L329.43 284.024L351.375 301.408M307.485 301.408L329.43 292.36L351.375 301.408M307.485 301.408L329.43 263.399L351.375 301.408M368.841 301.408L390.786 275.184L412.731 301.408M368.841 301.408L390.786 284.024L412.731 301.408M368.841 301.408L390.786 292.36L412.731 301.408M368.841 301.408L390.786 263.399L412.731 301.408M430.197 301.408L452.142 275.184L474.087 301.408M430.197 301.408L452.142 284.024L474.087 301.408M430.197 301.408L452.142 292.36L474.087 301.408M430.197 301.408L452.142 263.399L474.087 301.408M491.554 301.408L513.499 275.184L535.443 301.408M491.554 301.408L513.499 284.024L535.443 301.408M491.554 301.408L513.499 292.36L535.443 301.408M491.554 301.408L513.499 263.399L535.443 301.408M552.91 301.408L574.855 275.184L596.8 301.408M552.91 301.408L574.855 284.024L596.8 301.408M552.91 301.408L574.855 292.36L596.8 301.408M552.91 301.408L574.855 263.399L596.8 301.408M614.266 301.408L636.211 275.184L658.156 301.408M614.266 301.408L636.211 284.024L658.156 301.408M614.266 301.408L636.211 292.36L658.156 301.408M614.266 301.408L636.211 263.399L658.156 301.408M675.622 301.408L697.567 275.184L719.512 301.408M675.622 301.408L697.567 284.024L719.512 301.408M675.622 301.408L697.567 292.36L719.512 301.408M675.622 301.408L697.567 263.399L719.512 301.408M736.979 301.408L758.924 275.184L780.868 301.408M736.979 301.408L758.924 284.024L780.868 301.408M736.979 301.408L758.924 292.36L780.868 301.408M736.979 301.408L758.924 263.399L780.868 301.408M798.335 301.408L820.28 275.184L842.225 301.408M798.335 301.408L820.28 284.024L842.225 301.408M798.335 301.408L820.28 292.36L842.225 301.408M798.335 301.408L820.28 263.399L842.225 301.408M859.691 301.408L881.636 275.184L903.581 301.408M859.691 301.408L881.636 284.024L903.581 301.408M859.691 301.408L881.636 292.36L903.581 301.408M859.691 301.408L881.636 263.399L903.581 301.408M921.047 301.408L942.992 275.184L964.937 301.408M921.047 301.408L942.992 284.024L964.937 301.408M921.047 301.408L942.992 292.36L964.937 301.408M921.047 301.408L942.992 263.399L964.937 301.408M982.404 301.408L1004.35 275.184L1026.29 301.408M982.404 301.408L1004.35 284.024L1026.29 301.408M982.404 301.408L1004.35 292.36L1026.29 301.408M982.404 301.408L1004.35 263.399L1026.29 301.408M0.703765 454.082L22.6486 427.858L44.5934 454.082M0.703765 454.082L22.6486 436.698L44.5934 454.082M0.703765 454.082L22.6486 445.034L44.5934 454.082M0.703765 454.082L22.6486 416.074L44.5934 454.082M62.06 454.082L84.0048 427.858L105.95 454.082M62.06 454.082L84.0048 436.698L105.95 454.082M62.06 454.082L84.0048 445.034L105.95 454.082M62.06 454.082L84.0048 416.074L105.95 454.082M123.416 454.082L145.361 427.858L167.306 454.082M123.416 454.082L145.361 436.698L167.306 454.082M123.416 454.082L145.361 445.034L167.306 454.082M123.416 454.082L145.361 416.074L167.306 454.082M184.772 454.082L206.717 427.858L228.662 454.082M184.772 454.082L206.717 436.698L228.662 454.082M184.772 454.082L206.717 445.034L228.662 454.082M184.772 454.082L206.717 416.074L228.662 454.082M246.129 454.082L268.074 427.858L290.018 454.082M246.129 454.082L268.074 436.698L290.018 454.082M246.129 454.082L268.074 445.034L290.018 454.082M246.129 454.082L268.074 416.074L290.018 454.082M307.485 454.082L329.43 427.858L351.375 454.082M307.485 454.082L329.43 436.698L351.375 454.082M307.485 454.082L329.43 445.034L351.375 454.082M307.485 454.082L329.43 416.074L351.375 454.082M368.841 454.082L390.786 427.858L412.731 454.082M368.841 454.082L390.786 436.698L412.731 454.082M368.841 454.082L390.786 445.034L412.731 454.082M368.841 454.082L390.786 416.074L412.731 454.082M430.197 454.082L452.142 427.858L474.087 454.082M430.197 454.082L452.142 436.698L474.087 454.082M430.197 454.082L452.142 445.034L474.087 454.082M430.197 454.082L452.142 416.074L474.087 454.082M491.554 454.082L513.499 427.858L535.443 454.082M491.554 454.082L513.499 436.698L535.443 454.082M491.554 454.082L513.499 445.034L535.443 454.082M491.554 454.082L513.499 416.074L535.443 454.082M552.91 454.082L574.855 427.858L596.8 454.082M552.91 454.082L574.855 436.698L596.8 454.082M552.91 454.082L574.855 445.034L596.8 454.082M552.91 454.082L574.855 416.074L596.8 454.082M614.266 454.082L636.211 427.858L658.156 454.082M614.266 454.082L636.211 436.698L658.156 454.082M614.266 454.082L636.211 445.034L658.156 454.082M614.266 454.082L636.211 416.074L658.156 454.082M675.622 454.082L697.567 427.858L719.512 454.082M675.622 454.082L697.567 436.698L719.512 454.082M675.622 454.082L697.567 445.034L719.512 454.082M675.622 454.082L697.567 416.074L719.512 454.082M736.979 454.082L758.924 427.858L780.868 454.082M736.979 454.082L758.924 436.698L780.868 454.082M736.979 454.082L758.924 445.034L780.868 454.082M736.979 454.082L758.924 416.074L780.868 454.082M798.335 454.082L820.28 427.858L842.225 454.082M798.335 454.082L820.28 436.698L842.225 454.082M798.335 454.082L820.28 445.034L842.225 454.082M798.335 454.082L820.28 416.074L842.225 454.082M859.691 454.082L881.636 427.858L903.581 454.082M859.691 454.082L881.636 436.698L903.581 454.082M859.691 454.082L881.636 445.034L903.581 454.082M859.691 454.082L881.636 416.074L903.581 454.082M921.047 454.082L942.992 427.858L964.937 454.082M921.047 454.082L942.992 436.698L964.937 454.082M921.047 454.082L942.992 445.034L964.937 454.082M921.047 454.082L942.992 416.074L964.937 454.082M982.404 454.082L1004.35 427.858L1026.29 454.082M982.404 454.082L1004.35 436.698L1026.29 454.082M982.404 454.082L1004.35 445.034L1026.29 454.082M982.404 454.082L1004.35 416.074L1026.29 454.082M0.703765 606.756L22.6486 580.533L44.5934 606.756M0.703765 606.756L22.6486 589.373L44.5934 606.756M0.703765 606.756L22.6486 597.708L44.5934 606.756M0.703765 606.756L22.6486 568.748L44.5934 606.756M62.06 606.756L84.0048 580.533L105.95 606.756M62.06 606.756L84.0048 589.373L105.95 606.756M62.06 606.756L84.0048 597.708L105.95 606.756M62.06 606.756L84.0048 568.748L105.95 606.756M123.416 606.756L145.361 580.533L167.306 606.756M123.416 606.756L145.361 589.373L167.306 606.756M123.416 606.756L145.361 597.708L167.306 606.756M123.416 606.756L145.361 568.748L167.306 606.756M184.772 606.756L206.717 580.533L228.662 606.756M184.772 606.756L206.717 589.373L228.662 606.756M184.772 606.756L206.717 597.708L228.662 606.756M184.772 606.756L206.717 568.748L228.662 606.756M246.129 606.756L268.074 580.533L290.018 606.756M246.129 606.756L268.074 589.373L290.018 606.756M246.129 606.756L268.074 597.708L290.018 606.756M246.129 606.756L268.074 568.748L290.018 606.756M307.485 606.756L329.43 580.533L351.375 606.756M307.485 606.756L329.43 589.373L351.375 606.756M307.485 606.756L329.43 597.708L351.375 606.756M307.485 606.756L329.43 568.748L351.375 606.756M368.841 606.756L390.786 580.533L412.731 606.756M368.841 606.756L390.786 589.373L412.731 606.756M368.841 606.756L390.786 597.708L412.731 606.756M368.841 606.756L390.786 568.748L412.731 606.756M430.197 606.756L452.142 580.533L474.087 606.756M430.197 606.756L452.142 589.373L474.087 606.756M430.197 606.756L452.142 597.708L474.087 606.756M430.197 606.756L452.142 568.748L474.087 606.756M491.554 606.756L513.499 580.533L535.443 606.756M491.554 606.756L513.499 589.373L535.443 606.756M491.554 606.756L513.499 597.708L535.443 606.756M491.554 606.756L513.499 568.748L535.443 606.756M552.91 606.756L574.855 580.533L596.8 606.756M552.91 606.756L574.855 589.373L596.8 606.756M552.91 606.756L574.855 597.708L596.8 606.756M552.91 606.756L574.855 568.748L596.8 606.756M614.266 606.756L636.211 580.533L658.156 606.756M614.266 606.756L636.211 589.373L658.156 606.756M614.266 606.756L636.211 597.708L658.156 606.756M614.266 606.756L636.211 568.748L658.156 606.756M675.622 606.756L697.567 580.533L719.512 606.756M675.622 606.756L697.567 589.373L719.512 606.756M675.622 606.756L697.567 597.708L719.512 606.756M675.622 606.756L697.567 568.748L719.512 606.756M736.979 606.756L758.924 580.533L780.868 606.756M736.979 606.756L758.924 589.373L780.868 606.756M736.979 606.756L758.924 597.708L780.868 606.756M736.979 606.756L758.924 568.748L780.868 606.756M798.335 606.756L820.28 580.533L842.225 606.756M798.335 606.756L820.28 589.373L842.225 606.756M798.335 606.756L820.28 597.708L842.225 606.756M798.335 606.756L820.28 568.748L842.225 606.756M859.691 606.756L881.636 580.533L903.581 606.756M859.691 606.756L881.636 589.373L903.581 606.756M859.691 606.756L881.636 597.708L903.581 606.756M859.691 606.756L881.636 568.748L903.581 606.756M921.047 606.756L942.992 580.533L964.937 606.756M921.047 606.756L942.992 589.373L964.937 606.756M921.047 606.756L942.992 597.708L964.937 606.756M921.047 606.756L942.992 568.748L964.937 606.756M982.404 606.756L1004.35 580.533L1026.29 606.756M982.404 606.756L1004.35 589.373L1026.29 606.756M982.404 606.756L1004.35 597.708L1026.29 606.756M982.404 606.756L1004.35 568.748L1026.29 606.756M0.703765 759.43L22.6486 733.207L44.5934 759.43M0.703765 759.43L22.6486 742.047L44.5934 759.43M0.703765 759.43L22.6486 750.382L44.5934 759.43M0.703765 759.43L22.6486 721.422L44.5934 759.43M62.06 759.43L84.0048 733.207L105.95 759.43M62.06 759.43L84.0048 742.047L105.95 759.43M62.06 759.43L84.0048 750.382L105.95 759.43M62.06 759.43L84.0048 721.422L105.95 759.43M123.416 759.43L145.361 733.207L167.306 759.43M123.416 759.43L145.361 742.047L167.306 759.43M123.416 759.43L145.361 750.382L167.306 759.43M123.416 759.43L145.361 721.422L167.306 759.43M184.772 759.43L206.717 733.207L228.662 759.43M184.772 759.43L206.717 742.047L228.662 759.43M184.772 759.43L206.717 750.382L228.662 759.43M184.772 759.43L206.717 721.422L228.662 759.43M246.129 759.43L268.074 733.207L290.018 759.43M246.129 759.43L268.074 742.047L290.018 759.43M246.129 759.43L268.074 750.382L290.018 759.43M246.129 759.43L268.074 721.422L290.018 759.43M307.485 759.43L329.43 733.207L351.375 759.43M307.485 759.43L329.43 742.047L351.375 759.43M307.485 759.43L329.43 750.382L351.375 759.43M307.485 759.43L329.43 721.422L351.375 759.43M368.841 759.43L390.786 733.207L412.731 759.43M368.841 759.43L390.786 742.047L412.731 759.43M368.841 759.43L390.786 750.382L412.731 759.43M368.841 759.43L390.786 721.422L412.731 759.43M430.197 759.43L452.142 733.207L474.087 759.43M430.197 759.43L452.142 742.047L474.087 759.43M430.197 759.43L452.142 750.382L474.087 759.43M430.197 759.43L452.142 721.422L474.087 759.43M491.554 759.43L513.499 733.207L535.443 759.43M491.554 759.43L513.499 742.047L535.443 759.43M491.554 759.43L513.499 750.382L535.443 759.43M491.554 759.43L513.499 721.422L535.443 759.43M552.91 759.43L574.855 733.207L596.8 759.43M552.91 759.43L574.855 742.047L596.8 759.43M552.91 759.43L574.855 750.382L596.8 759.43M552.91 759.43L574.855 721.422L596.8 759.43M614.266 759.43L636.211 733.207L658.156 759.43M614.266 759.43L636.211 742.047L658.156 759.43M614.266 759.43L636.211 750.382L658.156 759.43M614.266 759.43L636.211 721.422L658.156 759.43M675.622 759.43L697.567 733.207L719.512 759.43M675.622 759.43L697.567 742.047L719.512 759.43M675.622 759.43L697.567 750.382L719.512 759.43M675.622 759.43L697.567 721.422L719.512 759.43M736.979 759.43L758.924 733.207L780.868 759.43M736.979 759.43L758.924 742.047L780.868 759.43M736.979 759.43L758.924 750.382L780.868 759.43M736.979 759.43L758.924 721.422L780.868 759.43M798.335 759.43L820.28 733.207L842.225 759.43M798.335 759.43L820.28 742.047L842.225 759.43M798.335 759.43L820.28 750.382L842.225 759.43M798.335 759.43L820.28 721.422L842.225 759.43M859.691 759.43L881.636 733.207L903.581 759.43M859.691 759.43L881.636 742.047L903.581 759.43M859.691 759.43L881.636 750.382L903.581 759.43M859.691 759.43L881.636 721.422L903.581 759.43M921.047 759.43L942.992 733.207L964.937 759.43M921.047 759.43L942.992 742.047L964.937 759.43M921.047 759.43L942.992 750.382L964.937 759.43M921.047 759.43L942.992 721.422L964.937 759.43M982.404 759.43L1004.35 733.207L1026.29 759.43M982.404 759.43L1004.35 742.047L1026.29 759.43M982.404 759.43L1004.35 750.382L1026.29 759.43M982.404 759.43L1004.35 721.422L1026.29 759.43M-30.7778 -80.2774L-8.83301 -106.501L13.1118 -80.2774M-30.7778 -80.2774L-8.83301 -97.661L13.1118 -80.2774M-30.7778 -80.2774L-8.83301 -89.3255L13.1118 -80.2774M-30.7778 -80.2774L-8.83301 -118.286L13.1118 -80.2774M30.5784 -80.2774L52.5232 -106.501L74.4681 -80.2774M30.5784 -80.2774L52.5232 -97.661L74.4681 -80.2774M30.5784 -80.2774L52.5232 -89.3255L74.4681 -80.2774M30.5784 -80.2774L52.5232 -118.286L74.4681 -80.2774M91.9346 -80.2774L113.879 -106.501L135.824 -80.2774M91.9346 -80.2774L113.879 -97.661L135.824 -80.2774M91.9346 -80.2774L113.879 -89.3255L135.824 -80.2774M91.9346 -80.2774L113.879 -118.286L135.824 -80.2774M153.291 -80.2774L175.236 -106.501L197.181 -80.2774M153.291 -80.2774L175.236 -97.661L197.181 -80.2774M153.291 -80.2774L175.236 -89.3255L197.181 -80.2774M153.291 -80.2774L175.236 -118.286L197.181 -80.2774M214.647 -80.2774L236.592 -106.501L258.537 -80.2774M214.647 -80.2774L236.592 -97.661L258.537 -80.2774M214.647 -80.2774L236.592 -89.3255L258.537 -80.2774M214.647 -80.2774L236.592 -118.286L258.537 -80.2774M276.003 -80.2774L297.948 -106.501L319.893 -80.2774M276.003 -80.2774L297.948 -97.661L319.893 -80.2774M276.003 -80.2774L297.948 -89.3255L319.893 -80.2774M276.003 -80.2774L297.948 -118.286L319.893 -80.2774M337.36 -80.2774L359.304 -106.501L381.249 -80.2774M337.36 -80.2774L359.304 -97.661L381.249 -80.2774M337.36 -80.2774L359.304 -89.3255L381.249 -80.2774M337.36 -80.2774L359.304 -118.286L381.249 -80.2774M398.716 -80.2774L420.661 -106.501L442.606 -80.2774M398.716 -80.2774L420.661 -97.661L442.606 -80.2774M398.716 -80.2774L420.661 -89.3255L442.606 -80.2774M398.716 -80.2774L420.661 -118.286L442.606 -80.2774M460.072 -80.2774L482.017 -106.501L503.962 -80.2774M460.072 -80.2774L482.017 -97.661L503.962 -80.2774M460.072 -80.2774L482.017 -89.3255L503.962 -80.2774M460.072 -80.2774L482.017 -118.286L503.962 -80.2774M521.428 -80.2774L543.373 -106.501L565.318 -80.2774M521.428 -80.2774L543.373 -97.661L565.318 -80.2774M521.428 -80.2774L543.373 -89.3255L565.318 -80.2774M521.428 -80.2774L543.373 -118.286L565.318 -80.2774M582.785 -80.2774L604.729 -106.501L626.674 -80.2774M582.785 -80.2774L604.729 -97.661L626.674 -80.2774M582.785 -80.2774L604.729 -89.3255L626.674 -80.2774M582.785 -80.2774L604.729 -118.286L626.674 -80.2774M644.141 -80.2774L666.086 -106.501L688.03 -80.2774M644.141 -80.2774L666.086 -97.661L688.03 -80.2774M644.141 -80.2774L666.086 -89.3255L688.03 -80.2774M644.141 -80.2774L666.086 -118.286L688.03 -80.2774M705.497 -80.2774L727.442 -106.501L749.387 -80.2774M705.497 -80.2774L727.442 -97.661L749.387 -80.2774M705.497 -80.2774L727.442 -89.3255L749.387 -80.2774M705.497 -80.2774L727.442 -118.286L749.387 -80.2774M766.853 -80.2774L788.798 -106.501L810.743 -80.2774M766.853 -80.2774L788.798 -97.661L810.743 -80.2774M766.853 -80.2774L788.798 -89.3255L810.743 -80.2774M766.853 -80.2774L788.798 -118.286L810.743 -80.2774M828.21 -80.2774L850.154 -106.501L872.099 -80.2774M828.21 -80.2774L850.154 -97.661L872.099 -80.2774M828.21 -80.2774L850.154 -89.3255L872.099 -80.2774M828.21 -80.2774L850.154 -118.286L872.099 -80.2774M889.566 -80.2774L911.511 -106.501L933.455 -80.2774M889.566 -80.2774L911.511 -97.661L933.455 -80.2774M889.566 -80.2774L911.511 -89.3255L933.455 -80.2774M889.566 -80.2774L911.511 -118.286L933.455 -80.2774M950.922 -80.2774L972.867 -106.501L994.812 -80.2774M950.922 -80.2774L972.867 -97.661L994.812 -80.2774M950.922 -80.2774L972.867 -89.3255L994.812 -80.2774M950.922 -80.2774L972.867 -118.286L994.812 -80.2774M-30.7778 72.3968L-8.83301 46.173L13.1118 72.3968M-30.7778 72.3968L-8.83301 55.0131L13.1118 72.3968M-30.7778 72.3968L-8.83301 63.3486L13.1118 72.3968M-30.7778 72.3968L-8.83301 34.3882L13.1118 72.3968M30.5784 72.3968L52.5232 46.173L74.4681 72.3968M30.5784 72.3968L52.5232 55.0131L74.4681 72.3968M30.5784 72.3968L52.5232 63.3486L74.4681 72.3968M30.5784 72.3968L52.5232 34.3882L74.4681 72.3968M91.9346 72.3968L113.879 46.173L135.824 72.3968M91.9346 72.3968L113.879 55.0131L135.824 72.3968M91.9346 72.3968L113.879 63.3486L135.824 72.3968M91.9346 72.3968L113.879 34.3882L135.824 72.3968M153.291 72.3968L175.236 46.173L197.181 72.3968M153.291 72.3968L175.236 55.0131L197.181 72.3968M153.291 72.3968L175.236 63.3486L197.181 72.3968M153.291 72.3968L175.236 34.3882L197.181 72.3968M214.647 72.3968L236.592 46.173L258.537 72.3968M214.647 72.3968L236.592 55.0131L258.537 72.3968M214.647 72.3968L236.592 63.3486L258.537 72.3968M214.647 72.3968L236.592 34.3882L258.537 72.3968M276.003 72.3968L297.948 46.173L319.893 72.3968M276.003 72.3968L297.948 55.0131L319.893 72.3968M276.003 72.3968L297.948 63.3486L319.893 72.3968M276.003 72.3968L297.948 34.3882L319.893 72.3968M337.36 72.3968L359.304 46.173L381.249 72.3968M337.36 72.3968L359.304 55.0131L381.249 72.3968M337.36 72.3968L359.304 63.3486L381.249 72.3968M337.36 72.3968L359.304 34.3882L381.249 72.3968M398.716 72.3968L420.661 46.173L442.606 72.3968M398.716 72.3968L420.661 55.0131L442.606 72.3968M398.716 72.3968L420.661 63.3486L442.606 72.3968M398.716 72.3968L420.661 34.3882L442.606 72.3968M460.072 72.3968L482.017 46.173L503.962 72.3968M460.072 72.3968L482.017 55.0131L503.962 72.3968M460.072 72.3968L482.017 63.3486L503.962 72.3968M460.072 72.3968L482.017 34.3882L503.962 72.3968M521.428 72.3968L543.373 46.173L565.318 72.3968M521.428 72.3968L543.373 55.0131L565.318 72.3968M521.428 72.3968L543.373 63.3486L565.318 72.3968M521.428 72.3968L543.373 34.3882L565.318 72.3968M582.785 72.3968L604.729 46.173L626.674 72.3968M582.785 72.3968L604.729 55.0131L626.674 72.3968M582.785 72.3968L604.729 63.3486L626.674 72.3968M582.785 72.3968L604.729 34.3882L626.674 72.3968M644.141 72.3968L666.086 46.173L688.03 72.3968M644.141 72.3968L666.086 55.0131L688.03 72.3968M644.141 72.3968L666.086 63.3486L688.03 72.3968M644.141 72.3968L666.086 34.3882L688.03 72.3968M705.497 72.3968L727.442 46.173L749.387 72.3968M705.497 72.3968L727.442 55.0131L749.387 72.3968M705.497 72.3968L727.442 63.3486L749.387 72.3968M705.497 72.3968L727.442 34.3882L749.387 72.3968M766.853 72.3968L788.798 46.173L810.743 72.3968M766.853 72.3968L788.798 55.0131L810.743 72.3968M766.853 72.3968L788.798 63.3486L810.743 72.3968M766.853 72.3968L788.798 34.3882L810.743 72.3968M828.21 72.3968L850.154 46.173L872.099 72.3968M828.21 72.3968L850.154 55.0131L872.099 72.3968M828.21 72.3968L850.154 63.3486L872.099 72.3968M828.21 72.3968L850.154 34.3882L872.099 72.3968M889.566 72.3968L911.511 46.173L933.455 72.3968M889.566 72.3968L911.511 55.0131L933.455 72.3968M889.566 72.3968L911.511 63.3486L933.455 72.3968M889.566 72.3968L911.511 34.3882L933.455 72.3968M950.922 72.3968L972.867 46.173L994.812 72.3968M950.922 72.3968L972.867 55.0131L994.812 72.3968M950.922 72.3968L972.867 63.3486L994.812 72.3968M950.922 72.3968L972.867 34.3882L994.812 72.3968M-30.7778 225.071L-8.83301 198.847L13.1118 225.071M-30.7778 225.071L-8.83301 207.687L13.1118 225.071M-30.7778 225.071L-8.83301 216.023L13.1118 225.071M-30.7778 225.071L-8.83301 187.062L13.1118 225.071M30.5784 225.071L52.5232 198.847L74.4681 225.071M30.5784 225.071L52.5232 207.687L74.4681 225.071M30.5784 225.071L52.5232 216.023L74.4681 225.071M30.5784 225.071L52.5232 187.062L74.4681 225.071M91.9346 225.071L113.879 198.847L135.824 225.071M91.9346 225.071L113.879 207.687L135.824 225.071M91.9346 225.071L113.879 216.023L135.824 225.071M91.9346 225.071L113.879 187.062L135.824 225.071M153.291 225.071L175.236 198.847L197.181 225.071M153.291 225.071L175.236 207.687L197.181 225.071M153.291 225.071L175.236 216.023L197.181 225.071M153.291 225.071L175.236 187.062L197.181 225.071M214.647 225.071L236.592 198.847L258.537 225.071M214.647 225.071L236.592 207.687L258.537 225.071M214.647 225.071L236.592 216.023L258.537 225.071M214.647 225.071L236.592 187.062L258.537 225.071M276.003 225.071L297.948 198.847L319.893 225.071M276.003 225.071L297.948 207.687L319.893 225.071M276.003 225.071L297.948 216.023L319.893 225.071M276.003 225.071L297.948 187.062L319.893 225.071M337.36 225.071L359.304 198.847L381.249 225.071M337.36 225.071L359.304 207.687L381.249 225.071M337.36 225.071L359.304 216.023L381.249 225.071M337.36 225.071L359.304 187.062L381.249 225.071M398.716 225.071L420.661 198.847L442.606 225.071M398.716 225.071L420.661 207.687L442.606 225.071M398.716 225.071L420.661 216.023L442.606 225.071M398.716 225.071L420.661 187.062L442.606 225.071M460.072 225.071L482.017 198.847L503.962 225.071M460.072 225.071L482.017 207.687L503.962 225.071M460.072 225.071L482.017 216.023L503.962 225.071M460.072 225.071L482.017 187.062L503.962 225.071M521.428 225.071L543.373 198.847L565.318 225.071M521.428 225.071L543.373 207.687L565.318 225.071M521.428 225.071L543.373 216.023L565.318 225.071M521.428 225.071L543.373 187.062L565.318 225.071M582.785 225.071L604.729 198.847L626.674 225.071M582.785 225.071L604.729 207.687L626.674 225.071M582.785 225.071L604.729 216.023L626.674 225.071M582.785 225.071L604.729 187.062L626.674 225.071M644.141 225.071L666.086 198.847L688.03 225.071M644.141 225.071L666.086 207.687L688.03 225.071M644.141 225.071L666.086 216.023L688.03 225.071M644.141 225.071L666.086 187.062L688.03 225.071M705.497 225.071L727.442 198.847L749.387 225.071M705.497 225.071L727.442 207.687L749.387 225.071M705.497 225.071L727.442 216.023L749.387 225.071M705.497 225.071L727.442 187.062L749.387 225.071M766.853 225.071L788.798 198.847L810.743 225.071M766.853 225.071L788.798 207.687L810.743 225.071M766.853 225.071L788.798 216.023L810.743 225.071M766.853 225.071L788.798 187.062L810.743 225.071M828.21 225.071L850.154 198.847L872.099 225.071M828.21 225.071L850.154 207.687L872.099 225.071M828.21 225.071L850.154 216.023L872.099 225.071M828.21 225.071L850.154 187.062L872.099 225.071M889.566 225.071L911.511 198.847L933.455 225.071M889.566 225.071L911.511 207.687L933.455 225.071M889.566 225.071L911.511 216.023L933.455 225.071M889.566 225.071L911.511 187.062L933.455 225.071M950.922 225.071L972.867 198.847L994.812 225.071M950.922 225.071L972.867 207.687L994.812 225.071M950.922 225.071L972.867 216.023L994.812 225.071M950.922 225.071L972.867 187.062L994.812 225.071M-30.7778 377.745L-8.83301 351.521L13.1118 377.745M-30.7778 377.745L-8.83301 360.361L13.1118 377.745M-30.7778 377.745L-8.83301 368.697L13.1118 377.745M-30.7778 377.745L-8.83301 339.736L13.1118 377.745M30.5784 377.745L52.5232 351.521L74.4681 377.745M30.5784 377.745L52.5232 360.361L74.4681 377.745M30.5784 377.745L52.5232 368.697L74.4681 377.745M30.5784 377.745L52.5232 339.736L74.4681 377.745M91.9346 377.745L113.879 351.521L135.824 377.745M91.9346 377.745L113.879 360.361L135.824 377.745M91.9346 377.745L113.879 368.697L135.824 377.745M91.9346 377.745L113.879 339.736L135.824 377.745M153.291 377.745L175.236 351.521L197.181 377.745M153.291 377.745L175.236 360.361L197.181 377.745M153.291 377.745L175.236 368.697L197.181 377.745M153.291 377.745L175.236 339.736L197.181 377.745M214.647 377.745L236.592 351.521L258.537 377.745M214.647 377.745L236.592 360.361L258.537 377.745M214.647 377.745L236.592 368.697L258.537 377.745M214.647 377.745L236.592 339.736L258.537 377.745M276.003 377.745L297.948 351.521L319.893 377.745M276.003 377.745L297.948 360.361L319.893 377.745M276.003 377.745L297.948 368.697L319.893 377.745M276.003 377.745L297.948 339.736L319.893 377.745M337.36 377.745L359.304 351.521L381.249 377.745M337.36 377.745L359.304 360.361L381.249 377.745M337.36 377.745L359.304 368.697L381.249 377.745M337.36 377.745L359.304 339.736L381.249 377.745M398.716 377.745L420.661 351.521L442.606 377.745M398.716 377.745L420.661 360.361L442.606 377.745M398.716 377.745L420.661 368.697L442.606 377.745M398.716 377.745L420.661 339.736L442.606 377.745M460.072 377.745L482.017 351.521L503.962 377.745M460.072 377.745L482.017 360.361L503.962 377.745M460.072 377.745L482.017 368.697L503.962 377.745M460.072 377.745L482.017 339.736L503.962 377.745M521.428 377.745L543.373 351.521L565.318 377.745M521.428 377.745L543.373 360.361L565.318 377.745M521.428 377.745L543.373 368.697L565.318 377.745M521.428 377.745L543.373 339.736L565.318 377.745M582.785 377.745L604.729 351.521L626.674 377.745M582.785 377.745L604.729 360.361L626.674 377.745M582.785 377.745L604.729 368.697L626.674 377.745M582.785 377.745L604.729 339.736L626.674 377.745M644.141 377.745L666.086 351.521L688.03 377.745M644.141 377.745L666.086 360.361L688.03 377.745M644.141 377.745L666.086 368.697L688.03 377.745M644.141 377.745L666.086 339.736L688.03 377.745M705.497 377.745L727.442 351.521L749.387 377.745M705.497 377.745L727.442 360.361L749.387 377.745M705.497 377.745L727.442 368.697L749.387 377.745M705.497 377.745L727.442 339.736L749.387 377.745M766.853 377.745L788.798 351.521L810.743 377.745M766.853 377.745L788.798 360.361L810.743 377.745M766.853 377.745L788.798 368.697L810.743 377.745M766.853 377.745L788.798 339.736L810.743 377.745M828.21 377.745L850.154 351.521L872.099 377.745M828.21 377.745L850.154 360.361L872.099 377.745M828.21 377.745L850.154 368.697L872.099 377.745M828.21 377.745L850.154 339.736L872.099 377.745M889.566 377.745L911.511 351.521L933.455 377.745M889.566 377.745L911.511 360.361L933.455 377.745M889.566 377.745L911.511 368.697L933.455 377.745M889.566 377.745L911.511 339.736L933.455 377.745M950.922 377.745L972.867 351.521L994.812 377.745M950.922 377.745L972.867 360.361L994.812 377.745M950.922 377.745L972.867 368.697L994.812 377.745M950.922 377.745L972.867 339.736L994.812 377.745M-30.7778 530.419L-8.83301 504.195L13.1118 530.419M-30.7778 530.419L-8.83301 513.036L13.1118 530.419M-30.7778 530.419L-8.83301 521.371L13.1118 530.419M-30.7778 530.419L-8.83301 492.411L13.1118 530.419M30.5784 530.419L52.5232 504.195L74.4681 530.419M30.5784 530.419L52.5232 513.036L74.4681 530.419M30.5784 530.419L52.5232 521.371L74.4681 530.419M30.5784 530.419L52.5232 492.411L74.4681 530.419M91.9346 530.419L113.879 504.195L135.824 530.419M91.9346 530.419L113.879 513.036L135.824 530.419M91.9346 530.419L113.879 521.371L135.824 530.419M91.9346 530.419L113.879 492.411L135.824 530.419M153.291 530.419L175.236 504.195L197.181 530.419M153.291 530.419L175.236 513.036L197.181 530.419M153.291 530.419L175.236 521.371L197.181 530.419M153.291 530.419L175.236 492.411L197.181 530.419M214.647 530.419L236.592 504.195L258.537 530.419M214.647 530.419L236.592 513.036L258.537 530.419M214.647 530.419L236.592 521.371L258.537 530.419M214.647 530.419L236.592 492.411L258.537 530.419M276.003 530.419L297.948 504.195L319.893 530.419M276.003 530.419L297.948 513.036L319.893 530.419M276.003 530.419L297.948 521.371L319.893 530.419M276.003 530.419L297.948 492.411L319.893 530.419M337.36 530.419L359.304 504.195L381.249 530.419M337.36 530.419L359.304 513.036L381.249 530.419M337.36 530.419L359.304 521.371L381.249 530.419M337.36 530.419L359.304 492.411L381.249 530.419M398.716 530.419L420.661 504.195L442.606 530.419M398.716 530.419L420.661 513.036L442.606 530.419M398.716 530.419L420.661 521.371L442.606 530.419M398.716 530.419L420.661 492.411L442.606 530.419M460.072 530.419L482.017 504.195L503.962 530.419M460.072 530.419L482.017 513.036L503.962 530.419M460.072 530.419L482.017 521.371L503.962 530.419M460.072 530.419L482.017 492.411L503.962 530.419M521.428 530.419L543.373 504.195L565.318 530.419M521.428 530.419L543.373 513.036L565.318 530.419M521.428 530.419L543.373 521.371L565.318 530.419M521.428 530.419L543.373 492.411L565.318 530.419M582.785 530.419L604.729 504.195L626.674 530.419M582.785 530.419L604.729 513.036L626.674 530.419M582.785 530.419L604.729 521.371L626.674 530.419M582.785 530.419L604.729 492.411L626.674 530.419M644.141 530.419L666.086 504.195L688.03 530.419M644.141 530.419L666.086 513.036L688.03 530.419M644.141 530.419L666.086 521.371L688.03 530.419M644.141 530.419L666.086 492.411L688.03 530.419M705.497 530.419L727.442 504.195L749.387 530.419M705.497 530.419L727.442 513.036L749.387 530.419M705.497 530.419L727.442 521.371L749.387 530.419M705.497 530.419L727.442 492.411L749.387 530.419M766.853 530.419L788.798 504.195L810.743 530.419M766.853 530.419L788.798 513.036L810.743 530.419M766.853 530.419L788.798 521.371L810.743 530.419M766.853 530.419L788.798 492.411L810.743 530.419M828.21 530.419L850.154 504.195L872.099 530.419M828.21 530.419L850.154 513.036L872.099 530.419M828.21 530.419L850.154 521.371L872.099 530.419M828.21 530.419L850.154 492.411L872.099 530.419M889.566 530.419L911.511 504.195L933.455 530.419M889.566 530.419L911.511 513.036L933.455 530.419M889.566 530.419L911.511 521.371L933.455 530.419M889.566 530.419L911.511 492.411L933.455 530.419M950.922 530.419L972.867 504.195L994.812 530.419M950.922 530.419L972.867 513.036L994.812 530.419M950.922 530.419L972.867 521.371L994.812 530.419M950.922 530.419L972.867 492.411L994.812 530.419M-30.7778 683.093L-8.83301 656.87L13.1118 683.093M-30.7778 683.093L-8.83301 665.71L13.1118 683.093M-30.7778 683.093L-8.83301 674.045L13.1118 683.093M-30.7778 683.093L-8.83301 645.085L13.1118 683.093M30.5784 683.093L52.5232 656.87L74.4681 683.093M30.5784 683.093L52.5232 665.71L74.4681 683.093M30.5784 683.093L52.5232 674.045L74.4681 683.093M30.5784 683.093L52.5232 645.085L74.4681 683.093M91.9346 683.093L113.879 656.87L135.824 683.093M91.9346 683.093L113.879 665.71L135.824 683.093M91.9346 683.093L113.879 674.045L135.824 683.093M91.9346 683.093L113.879 645.085L135.824 683.093M153.291 683.093L175.236 656.87L197.181 683.093M153.291 683.093L175.236 665.71L197.181 683.093M153.291 683.093L175.236 674.045L197.181 683.093M153.291 683.093L175.236 645.085L197.181 683.093M214.647 683.093L236.592 656.87L258.537 683.093M214.647 683.093L236.592 665.71L258.537 683.093M214.647 683.093L236.592 674.045L258.537 683.093M214.647 683.093L236.592 645.085L258.537 683.093M276.003 683.093L297.948 656.87L319.893 683.093M276.003 683.093L297.948 665.71L319.893 683.093M276.003 683.093L297.948 674.045L319.893 683.093M276.003 683.093L297.948 645.085L319.893 683.093M337.36 683.093L359.304 656.87L381.249 683.093M337.36 683.093L359.304 665.71L381.249 683.093M337.36 683.093L359.304 674.045L381.249 683.093M337.36 683.093L359.304 645.085L381.249 683.093M398.716 683.093L420.661 656.87L442.606 683.093M398.716 683.093L420.661 665.71L442.606 683.093M398.716 683.093L420.661 674.045L442.606 683.093M398.716 683.093L420.661 645.085L442.606 683.093M460.072 683.093L482.017 656.87L503.962 683.093M460.072 683.093L482.017 665.71L503.962 683.093M460.072 683.093L482.017 674.045L503.962 683.093M460.072 683.093L482.017 645.085L503.962 683.093M521.428 683.093L543.373 656.87L565.318 683.093M521.428 683.093L543.373 665.71L565.318 683.093M521.428 683.093L543.373 674.045L565.318 683.093M521.428 683.093L543.373 645.085L565.318 683.093M582.785 683.093L604.729 656.87L626.674 683.093M582.785 683.093L604.729 665.71L626.674 683.093M582.785 683.093L604.729 674.045L626.674 683.093M582.785 683.093L604.729 645.085L626.674 683.093M644.141 683.093L666.086 656.87L688.03 683.093M644.141 683.093L666.086 665.71L688.03 683.093M644.141 683.093L666.086 674.045L688.03 683.093M644.141 683.093L666.086 645.085L688.03 683.093M705.497 683.093L727.442 656.87L749.387 683.093M705.497 683.093L727.442 665.71L749.387 683.093M705.497 683.093L727.442 674.045L749.387 683.093M705.497 683.093L727.442 645.085L749.387 683.093M766.853 683.093L788.798 656.87L810.743 683.093M766.853 683.093L788.798 665.71L810.743 683.093M766.853 683.093L788.798 674.045L810.743 683.093M766.853 683.093L788.798 645.085L810.743 683.093M828.21 683.093L850.154 656.87L872.099 683.093M828.21 683.093L850.154 665.71L872.099 683.093M828.21 683.093L850.154 674.045L872.099 683.093M828.21 683.093L850.154 645.085L872.099 683.093M889.566 683.093L911.511 656.87L933.455 683.093M889.566 683.093L911.511 665.71L933.455 683.093M889.566 683.093L911.511 674.045L933.455 683.093M889.566 683.093L911.511 645.085L933.455 683.093M950.922 683.093L972.867 656.87L994.812 683.093M950.922 683.093L972.867 665.71L994.812 683.093M950.922 683.093L972.867 674.045L994.812 683.093M950.922 683.093L972.867 645.085L994.812 683.093M-30.7778 835.768L-8.83301 809.544L13.1118 835.768M-30.7778 835.768L-8.83301 818.384L13.1118 835.768M-30.7778 835.768L-8.83301 826.719L13.1118 835.768M-30.7778 835.768L-8.83301 797.759L13.1118 835.768M30.5784 835.768L52.5232 809.544L74.4681 835.768M30.5784 835.768L52.5232 818.384L74.4681 835.768M30.5784 835.768L52.5232 826.719L74.4681 835.768M30.5784 835.768L52.5232 797.759L74.4681 835.768M91.9346 835.768L113.879 809.544L135.824 835.768M91.9346 835.768L113.879 818.384L135.824 835.768M91.9346 835.768L113.879 826.719L135.824 835.768M91.9346 835.768L113.879 797.759L135.824 835.768M153.291 835.768L175.236 809.544L197.181 835.768M153.291 835.768L175.236 818.384L197.181 835.768M153.291 835.768L175.236 826.719L197.181 835.768M153.291 835.768L175.236 797.759L197.181 835.768M214.647 835.768L236.592 809.544L258.537 835.768M214.647 835.768L236.592 818.384L258.537 835.768M214.647 835.768L236.592 826.719L258.537 835.768M214.647 835.768L236.592 797.759L258.537 835.768M276.003 835.768L297.948 809.544L319.893 835.768M276.003 835.768L297.948 818.384L319.893 835.768M276.003 835.768L297.948 826.719L319.893 835.768M276.003 835.768L297.948 797.759L319.893 835.768M337.36 835.768L359.304 809.544L381.249 835.768M337.36 835.768L359.304 818.384L381.249 835.768M337.36 835.768L359.304 826.719L381.249 835.768M337.36 835.768L359.304 797.759L381.249 835.768M398.716 835.768L420.661 809.544L442.606 835.768M398.716 835.768L420.661 818.384L442.606 835.768M398.716 835.768L420.661 826.719L442.606 835.768M398.716 835.768L420.661 797.759L442.606 835.768M460.072 835.768L482.017 809.544L503.962 835.768M460.072 835.768L482.017 818.384L503.962 835.768M460.072 835.768L482.017 826.719L503.962 835.768M460.072 835.768L482.017 797.759L503.962 835.768M521.428 835.768L543.373 809.544L565.318 835.768M521.428 835.768L543.373 818.384L565.318 835.768M521.428 835.768L543.373 826.719L565.318 835.768M521.428 835.768L543.373 797.759L565.318 835.768M582.785 835.768L604.729 809.544L626.674 835.768M582.785 835.768L604.729 818.384L626.674 835.768M582.785 835.768L604.729 826.719L626.674 835.768M582.785 835.768L604.729 797.759L626.674 835.768M644.141 835.768L666.086 809.544L688.03 835.768M644.141 835.768L666.086 818.384L688.03 835.768M644.141 835.768L666.086 826.719L688.03 835.768M644.141 835.768L666.086 797.759L688.03 835.768M705.497 835.768L727.442 809.544L749.387 835.768M705.497 835.768L727.442 818.384L749.387 835.768M705.497 835.768L727.442 826.719L749.387 835.768M705.497 835.768L727.442 797.759L749.387 835.768M766.853 835.768L788.798 809.544L810.743 835.768M766.853 835.768L788.798 818.384L810.743 835.768M766.853 835.768L788.798 826.719L810.743 835.768M766.853 835.768L788.798 797.759L810.743 835.768M828.21 835.768L850.154 809.544L872.099 835.768M828.21 835.768L850.154 818.384L872.099 835.768M828.21 835.768L850.154 826.719L872.099 835.768M828.21 835.768L850.154 797.759L872.099 835.768M889.566 835.768L911.511 809.544L933.455 835.768M889.566 835.768L911.511 818.384L933.455 835.768M889.566 835.768L911.511 826.719L933.455 835.768M889.566 835.768L911.511 797.759L933.455 835.768M950.922 835.768L972.867 809.544L994.812 835.768M950.922 835.768L972.867 818.384L994.812 835.768M950.922 835.768L972.867 826.719L994.812 835.768M950.922 835.768L972.867 797.759L994.812 835.768" stroke="#969696" stroke-width="2.10865" stroke-linecap="round" stroke-linejoin="round"/>
</g>
</g>
<defs>
<clipPath id="clip0_1528_5407">
<rect width="729.75" height="410.484" fill="white"/>
</clipPath>
</defs>
</svg>
