<?xml version="1.0" encoding="UTF-8"?>
<svg id="Layer_2" xmlns="http://www.w3.org/2000/svg" xmlns:xlink="http://www.w3.org/1999/xlink" version="1.1" viewBox="0 0 1258.58 170.08">
  <!-- Generator: Adobe Illustrator 29.0.1, SVG Export Plug-In . SVG Version: 2.1.0 Build 192)  -->
  <defs>
    <style>
      .st0 {
        fill: url(#linear-gradient2);
      }

      .st1 {
        fill: url(#linear-gradient1);
      }

      .st2 {
        fill: url(#linear-gradient3);
      }

      .st3 {
        fill: url(#linear-gradient6);
      }

      .st4 {
        fill: url(#linear-gradient7);
      }

      .st5 {
        fill: url(#linear-gradient5);
      }

      .st6 {
        fill: url(#linear-gradient4);
      }

      .st7 {
        fill: url(#linear-gradient);
      }

      .st8 {
        fill: #fff;
		fill-opacity: 0;
      }
    </style>
    <linearGradient id="linear-gradient" x1="6.09" y1="157.59" x2="1232.83" y2="1.43" gradientUnits="userSpaceOnUse">
      <stop offset="0" stop-color="#402edf"/>
      <stop offset=".35" stop-color="#d369d8"/>
      <stop offset=".65" stop-color="#ed7e5d"/>
      <stop offset="1" stop-color="#e8d19f"/>
    </linearGradient>
    <linearGradient id="linear-gradient1" x1=".23" y1="111.51" x2="1226.97" y2="-44.65" xlink:href="#linear-gradient"/>
    <linearGradient id="linear-gradient2" x1="3.51" y1="137.35" x2="1230.26" y2="-18.81" xlink:href="#linear-gradient"/>
    <linearGradient id="linear-gradient3" x1="-1.85" y1="95.22" x2="1224.89" y2="-60.94" xlink:href="#linear-gradient"/>
    <linearGradient id="linear-gradient4" x1="10.63" y1="193.25" x2="1237.37" y2="37.08" xlink:href="#linear-gradient"/>
    <linearGradient id="linear-gradient5" x1="12.98" y1="211.67" x2="1239.72" y2="55.51" xlink:href="#linear-gradient"/>
    <linearGradient id="linear-gradient6" x1="8.28" y1="174.81" x2="1235.03" y2="18.65" xlink:href="#linear-gradient"/>
    <linearGradient id="linear-gradient7" x1="15.64" y1="232.61" x2="1242.38" y2="76.45" xlink:href="#linear-gradient"/>
  </defs>
  <rect class="st8" width="1258.58" height="170.08"/>
  <g>
    <path class="st7" d="M479.26,56.25v57.58c0,28.71,23.27,51.98,51.98,51.98h92.92v-46.36h-92.97c-3.11,0-5.63-2.52-5.63-5.63v-57.56c0-3.11,2.52-5.63,5.64-5.63h92.97V4.27h-92.92c-28.71,0-51.98,23.27-51.98,51.98Z"/>
    <path class="st1" d="M161.84,50.62h40.72c3.11,0,5.63,2.52,5.63,5.63v109.55h46.36V56.26c0-3.11,2.52-5.63,5.63-5.63h40.72V4.27h-139.07v46.36Z"/>
    <path class="st0" d="M416.11,4.27h-51.94c-28.71,0-51.98,23.27-51.98,51.98v109.56h46.36v-51.96c0-3.11,2.52-5.63,5.63-5.63h51.93c3.11,0,5.63,2.52,5.63,5.63v51.96h46.36V56.25c0-28.71-23.27-51.98-51.98-51.98ZM416.13,61.86h-51.99c-3.1,0-5.6-2.51-5.6-5.6h0c0-3.11,2.52-5.63,5.63-5.63h51.93c3.11,0,5.63,2.52,5.63,5.63s-2.51,5.6-5.6,5.6Z"/>
    <path class="st2" d="M5.67,56.25h0c0,28.7,23.27,51.97,51.97,51.97h40.96c3.1,0,5.62,2.52,5.62,5.62s-2.52,5.62-5.62,5.62H5.67v46.36h92.92c28.71,0,51.98-23.27,51.98-51.98h0c0-28.7-23.27-51.97-51.97-51.97h-40.96c-3.1,0-5.62-2.52-5.62-5.62s2.52-5.62,5.62-5.62h92.93V4.27H57.65C28.94,4.27,5.67,27.54,5.67,56.25Z"/>
    <path class="st6" d="M849.06,113.82V4.27s-46.3,0-46.3,0v109.56c0,28.71,23.27,51.98,51.98,51.98h63.79v-46.36h-63.84c-3.11,0-5.63-2.52-5.63-5.63Z"/>
    <path class="st5" d="M1033.7,4.27h-51.94c-28.71,0-51.98,23.27-51.98,51.98v57.58c0,28.71,23.27,51.98,51.98,51.98h51.95c28.71,0,51.98-23.27,51.98-51.98v-57.58c0-28.71-23.27-51.98-51.98-51.98ZM1039.32,113.82c0,3.11-2.52,5.63-5.63,5.63h-51.93c-3.11,0-5.63-2.52-5.63-5.63v-57.57c0-3.11,2.52-5.63,5.63-5.63h51.93c3.11,0,5.63,2.52,5.63,5.63v57.57Z"/>
    <path class="st3" d="M756.13,57.27l35.33-53h-52.4s-36.93,55.16-36.93,55.16c-1.05,1.57-2.81,2.51-4.7,2.5l-9.98-.03c-3.11,0-5.62-2.53-5.62-5.64V4.27h-46.36v161.54h46.36v-51.96c0-3.11,2.52-5.63,5.63-5.63h52.02c1.04,0,2.01.3,2.84.8l2.38,2.75c.26.65.41,1.35.41,2.09v51.96h46.36v-51.9h0s0,0,0-.01c0-21.87-13.51-40.57-32.64-48.24-3.36-1.35-4.7-5.38-2.69-8.39Z"/>
    <path class="st4" d="M1217.58,57.27l35.33-53h-52.4s-36.93,55.16-36.93,55.16c-1.05,1.57-2.81,2.51-4.7,2.5l-9.98-.03c-3.11,0-5.62-2.53-5.62-5.64V4.27h-46.36v161.54h46.36v-51.96c0-3.11,2.52-5.63,5.63-5.63h52.02c1.04,0,2.01.3,2.84.8l2.38,2.75c.26.65.41,1.35.41,2.09v51.96h46.36v-51.9h0s0,0,0-.01c0-21.87-13.51-40.57-32.64-48.24-3.36-1.35-4.7-5.38-2.69-8.39Z"/>
  </g>
</svg>