<svg width="1024" height="1024" viewBox="0 0 1024 1024" fill="none" xmlns="http://www.w3.org/2000/svg">
<rect width="1024" height="1024" fill="#F18D8D"/>
<rect width="1024" height="1024" fill="url(#paint0_linear_5070_2)"/>
<g filter="url(#filter0_d_5070_2)">
<path d="M796.376 145.352C820.461 145.352 839.985 164.876 839.985 188.96V325.647C839.985 349.731 820.46 369.254 796.376 369.254H643.897C634.624 369.254 627.738 376.411 627.738 384.49V834.191C627.738 858.275 608.213 877.799 584.129 877.799H439.802C415.718 877.799 396.194 858.275 396.194 834.191V384.53C396.194 376.431 389.287 369.295 380.035 369.295H227.555C203.471 369.295 183.947 349.771 183.947 325.687V188.96C183.947 164.876 203.471 145.352 227.555 145.352H796.376Z" fill="#FDC04A" stroke="#2E270E" stroke-width="19.2973"/>
<mask id="mask0_5070_2" style="mask-type:alpha" maskUnits="userSpaceOnUse" x="193" y="155" width="638" height="714">
<path d="M193.595 325.687C193.595 344.442 208.799 359.646 227.555 359.646H380.035C394.27 359.646 405.842 370.764 405.842 384.53V834.191C405.842 852.946 421.046 868.151 439.802 868.151H584.13C602.885 868.151 618.089 852.946 618.089 834.191V384.49C618.089 370.764 629.619 359.606 643.897 359.606H796.377C815.132 359.606 830.336 344.402 830.336 325.647V188.96C830.336 170.205 815.132 155 796.377 155H227.555C208.799 155 193.595 170.205 193.595 188.96V325.687Z" fill="#FCB732"/>
</mask>
<g mask="url(#mask0_5070_2)">
<path d="M127.861 -410.366L92.0305 -389.376L91.7473 -348.682L91.3223 -308.13L57.3326 -288.425L23.3429 -268.721L22.6348 -227.883L21.9267 -187.046L-12.3463 -167.056L-46.7609 -147.065V-106.656V-66.3903L-81.0339 -46.3999L-115.449 -26.4097L-115.873 14.2849L-116.157 54.8366L-150.571 74.8269L-184.844 94.8172L-185.269 135.369L-185.694 176.063L-220.25 196.054L-254.806 216.044L-255.231 256.739L-255.656 297.433L-290.071 317.424L-324.344 337.414V380.25V423.087L-289.929 443.077L-255.656 463.067L-255.231 503.762L-254.806 544.456L-220.25 564.446L-185.694 584.437L-185.269 625.131L-184.844 665.683L-150.571 685.673L-116.157 705.664L-115.873 746.215L-115.449 786.91L-81.1755 806.9L-46.7609 826.891V867.157V907.566L-12.3463 927.556L21.9267 947.546L22.6348 988.384L23.3429 1029.22L57.3326 1048.93L91.3223 1068.63L91.7473 1109.18L92.0305 1149.88L127.72 1170.58C147.264 1182 163.975 1191.43 164.967 1191.71C165.817 1192 182.103 1183.15 200.798 1172.15L235.071 1152.3L269.202 1172.15C287.896 1183 303.758 1192 304.466 1192C305.174 1192 321.036 1183 339.731 1172.15L373.862 1152.3L407.993 1172.15C426.688 1183 442.55 1192 443.258 1192C443.966 1192 459.828 1183 478.522 1172.15L512.653 1152.3L546.785 1172.15C565.479 1183 581.341 1192 582.049 1192C582.757 1192 598.619 1183 617.313 1172.15L651.445 1152.3L685.576 1172.15C704.271 1183 720.132 1192 720.841 1192C721.549 1192 737.411 1183 756.105 1172.15L790.236 1152.3L824.368 1172.15C843.062 1183 858.924 1192 859.632 1192C860.34 1192 876.202 1183 894.896 1172.15L929.028 1152.3L963.301 1172.15C981.995 1183.15 998.282 1192 999.131 1191.71C1000.12 1191.43 1016.83 1182 1036.38 1170.58L1072.07 1149.88L1072.35 1109.18L1072.78 1068.63L1106.77 1048.93L1140.76 1029.22L1141.46 988.384L1142.17 947.546L1176.59 927.556L1210.86 907.566V867.157V826.891L1245.13 806.9L1279.55 786.91L1279.97 746.215L1280.25 705.664L1314.67 685.673L1348.94 665.683L1349.37 625.131L1349.79 584.437L1384.35 564.446L1418.9 544.456L1419.33 503.762L1419.75 463.067L1454.17 443.077L1488.44 423.087V380.25V337.414L1454.17 317.424L1419.75 297.433L1419.33 256.739L1418.9 216.044L1384.35 196.054L1349.79 176.063L1349.37 135.369L1348.94 94.8172L1314.67 74.8269L1280.25 54.8366L1279.97 14.2849L1279.55 -26.4097L1245.27 -46.3999L1210.86 -66.3903V-106.656V-147.065L1176.59 -167.056L1142.17 -187.046L1141.46 -227.883L1140.76 -268.721L1106.77 -288.425L1072.78 -308.13L1072.35 -348.682L1072.07 -389.376L1036.38 -410.081C1016.83 -421.504 1000.12 -430.928 999.131 -431.213C998.282 -431.499 981.995 -422.646 963.301 -411.651L929.028 -391.804L894.896 -411.651C876.202 -422.503 860.34 -431.499 859.632 -431.499C858.924 -431.499 843.062 -422.503 824.368 -411.651L790.236 -391.804L756.105 -411.651C737.411 -422.503 721.549 -431.499 720.841 -431.499C720.132 -431.499 704.271 -422.503 685.576 -411.651L651.445 -391.804L617.313 -411.651C598.619 -422.503 582.757 -431.499 582.049 -431.499C581.341 -431.499 565.479 -422.503 546.785 -411.651L512.653 -391.804L478.522 -411.651C459.828 -422.503 443.966 -431.499 443.258 -431.499C442.55 -431.499 426.688 -422.503 407.993 -411.651L373.862 -391.804L339.731 -411.651C321.036 -422.503 305.174 -431.499 304.466 -431.499C303.758 -431.499 287.896 -422.503 269.202 -411.651L235.071 -391.804L200.939 -411.651C182.245 -422.503 166.1 -431.499 165.25 -431.356C164.259 -431.356 147.405 -421.789 127.861 -410.366ZM198.532 -403.084L230.114 -384.664V-346.54V-308.416L198.532 -289.996C181.112 -279.858 166.383 -271.576 165.675 -271.576C165.108 -271.576 150.238 -279.858 132.818 -289.996L101.236 -308.416L101.236 -346.54V-384.521L132.393 -402.941C149.53 -413.079 164.259 -421.361 165.25 -421.361C166.1 -421.504 181.112 -413.222 198.532 -403.084ZM337.323 -403.084L368.905 -384.664V-346.54V-308.416L337.323 -289.996C319.903 -279.858 305.174 -271.576 304.466 -271.576C303.9 -271.576 289.029 -279.858 271.61 -289.996L240.027 -308.416V-346.54V-384.521L271.185 -402.941C288.321 -413.079 303.05 -421.361 304.041 -421.361C304.891 -421.504 319.903 -413.222 337.323 -403.084ZM476.114 -403.084L507.697 -384.521V-346.54V-308.416L476.114 -289.996C458.695 -279.858 443.966 -271.576 443.258 -271.576C442.55 -271.576 427.821 -279.858 410.401 -289.996L378.819 -308.416V-346.54V-384.521L409.976 -402.941C427.113 -413.079 441.841 -421.361 442.833 -421.361C443.683 -421.504 458.695 -413.222 476.114 -403.084ZM614.906 -403.084L646.488 -384.521V-346.54V-308.416L614.906 -289.996C597.486 -279.858 582.757 -271.576 582.049 -271.576C581.341 -271.576 566.612 -279.858 549.192 -289.996L517.61 -308.416V-346.54V-384.521L548.768 -402.941C565.904 -413.079 580.633 -421.361 581.624 -421.361C582.474 -421.504 597.486 -413.222 614.906 -403.084ZM753.697 -403.084L785.279 -384.521V-346.54V-308.416L753.697 -289.996C736.278 -279.858 721.549 -271.576 720.841 -271.576C720.132 -271.576 705.403 -279.858 687.984 -289.996L656.402 -308.416V-346.54V-384.521L687.559 -402.941C704.695 -413.079 719.424 -421.361 720.416 -421.361C721.265 -421.504 736.278 -413.222 753.697 -403.084ZM892.489 -403.084L924.071 -384.521V-346.54V-308.416L892.489 -289.996C875.069 -279.858 860.199 -271.576 859.632 -271.576C858.924 -271.576 844.195 -279.858 826.775 -289.996L795.193 -308.416V-346.54V-384.664L826.35 -402.941C843.487 -413.079 858.216 -421.361 859.207 -421.361C860.057 -421.504 875.069 -413.222 892.489 -403.084ZM1031.28 -403.084L1062.86 -384.521V-346.54V-308.416L1031.28 -289.996C1013.86 -279.858 998.99 -271.576 998.423 -271.576C997.715 -271.576 982.986 -279.858 965.567 -289.996L933.985 -308.416V-346.54V-384.664L965.142 -402.941C982.278 -413.079 997.007 -421.361 997.998 -421.361C998.848 -421.504 1013.86 -413.222 1031.28 -403.084ZM129.278 -281.714L160.718 -263.295V-225.17V-187.189L128.569 -168.484L96.2792 -149.778L64.1306 -168.484L31.8403 -187.189V-225.313V-263.58L62.9976 -281.714C80.1341 -291.852 95.0046 -299.991 95.996 -299.991C96.8457 -300.134 111.858 -291.852 129.278 -281.714ZM268.069 -281.714L299.51 -263.295V-225.17V-187.189L267.361 -168.484L235.071 -149.778L202.922 -168.484L170.632 -187.189V-225.313V-263.295L201.789 -281.572C218.925 -291.71 233.796 -299.991 234.787 -299.991C235.637 -300.134 250.649 -291.852 268.069 -281.714ZM406.719 -281.714L438.301 -263.295V-225.313V-187.189L406.152 -168.484L373.862 -149.778L341.713 -168.484L309.423 -187.189V-225.313V-263.295L340.58 -281.572C357.717 -291.71 372.446 -299.991 373.437 -299.991C374.287 -300.134 389.299 -291.852 406.719 -281.714ZM545.51 -281.714L577.092 -263.295V-225.313V-187.189L544.944 -168.484L512.653 -149.778L480.505 -168.484L448.215 -187.189V-225.313V-263.295L479.372 -281.572C496.508 -291.71 511.237 -299.991 512.229 -299.991C513.078 -300.134 528.09 -291.852 545.51 -281.714ZM684.443 -281.714L715.884 -263.295V-225.17V-187.189L683.735 -168.484L651.445 -149.778L619.296 -168.484L587.006 -187.189V-225.313V-263.295L618.163 -281.572C635.3 -291.71 650.17 -299.991 651.162 -299.991C652.011 -300.134 667.023 -291.852 684.443 -281.714ZM823.093 -281.714L854.675 -263.295V-225.313V-187.189L822.526 -168.484L790.236 -149.778L758.088 -168.484L725.797 -187.189V-225.313V-263.295L756.955 -281.572C774.091 -291.71 788.82 -299.991 789.811 -299.991C790.661 -300.134 805.673 -291.852 823.093 -281.714ZM961.884 -281.714L993.467 -263.295V-225.313V-187.189L961.318 -168.484L929.028 -149.778L896.879 -168.484L864.589 -187.189V-225.17V-263.295L895.746 -281.572C912.883 -291.71 927.612 -299.991 928.603 -299.991C929.453 -300.134 944.465 -291.852 961.884 -281.714ZM1101.1 -281.714L1132.26 -263.58V-225.313V-187.189L1100.11 -168.484L1067.82 -149.778L1035.67 -168.484L1003.38 -187.189V-225.17V-263.295L1034.54 -281.572C1051.67 -291.71 1066.69 -299.991 1067.82 -299.991C1068.95 -299.991 1083.96 -291.852 1101.1 -281.714ZM67.2463 -156.347L91.3223 -142.211L91.7473 -104.372L92.0305 -66.533L59.457 -47.5423L26.8835 -28.6943L-5.69 -47.5423L-38.2635 -66.533V-104.515L-38.1219 -142.353L-5.97323 -161.059L26.1754 -179.764L34.6728 -175.052C39.3464 -172.482 54.0753 -164.057 67.2463 -156.347ZM1202.36 -104.515V-66.533L1169.79 -47.5423L1137.21 -28.6943L1104.64 -47.5423L1072.07 -66.533L1072.35 -104.372L1072.78 -142.211L1105.07 -161.059L1137.36 -179.907L1169.79 -161.059L1202.22 -142.353L1202.36 -104.515ZM198.957 -160.487L230.114 -142.211L230.539 -104.372L230.822 -66.533L198.248 -47.5423L165.675 -28.6943L133.101 -47.6851L100.528 -66.6758L100.811 -104.372L101.236 -142.211L132.393 -160.487C149.53 -170.483 164.542 -178.622 165.675 -178.764C166.808 -178.764 181.82 -170.483 198.957 -160.487ZM337.748 -160.487L368.905 -142.211L369.33 -104.372L369.613 -66.533L337.04 -47.5423L304.466 -28.6943L271.893 -47.6851L239.319 -66.6758L239.603 -104.372L240.027 -142.211L271.185 -160.487C288.321 -170.483 303.333 -178.622 304.466 -178.622C305.599 -178.622 320.611 -170.483 337.748 -160.487ZM476.539 -160.487L507.697 -142.211L508.121 -104.372L508.405 -66.533L475.831 -47.5423L443.258 -28.6943L410.684 -47.5423L378.111 -66.533L378.394 -104.372L378.819 -142.211L409.976 -160.487C427.113 -170.483 442.125 -178.622 443.258 -178.622C444.391 -178.622 459.403 -170.483 476.539 -160.487ZM615.331 -160.487L646.488 -142.211L646.913 -104.372L647.196 -66.533L614.623 -47.5423L582.049 -28.6943L549.476 -47.5423L516.902 -66.533L517.185 -104.372L517.61 -142.211L548.768 -160.487C565.904 -170.483 580.916 -178.622 582.049 -178.622C583.182 -178.622 598.194 -170.483 615.331 -160.487ZM754.122 -160.487L785.279 -142.211L785.704 -104.372L785.988 -66.533L753.414 -47.5423L720.841 -28.6943L688.267 -47.5423L655.694 -66.533L655.977 -104.372L656.402 -142.211L687.559 -160.487C704.695 -170.483 719.708 -178.622 720.841 -178.622C721.973 -178.622 736.986 -170.483 754.122 -160.487ZM892.914 -160.487L924.071 -142.211L924.496 -104.372L924.779 -66.6758L892.206 -47.6851L859.632 -28.6943L827.058 -47.5423L794.485 -66.533L794.768 -104.372L795.193 -142.211L826.35 -160.487C843.487 -170.483 858.499 -178.764 859.632 -178.764C860.765 -178.622 875.777 -170.483 892.914 -160.487ZM1031.7 -160.487L1062.86 -142.211L1063.29 -104.372L1063.57 -66.6758L1031 -47.6851L998.423 -28.6943L965.85 -47.5423L933.276 -66.533L933.56 -104.372L933.985 -142.211L965.142 -160.487C982.278 -170.483 997.29 -178.764 998.423 -178.764C999.556 -178.622 1014.57 -170.483 1031.7 -160.487ZM-9.51386 -39.5461L22.6348 -20.9837V16.8551V54.6939L-9.93871 73.5419L-42.3706 92.3899L-75.0857 73.5419L-107.659 54.6939V16.8551V-20.9837L-75.369 -39.8317C-57.666 -50.1124 -42.7955 -58.5368 -42.3706 -58.3941C-41.9457 -58.2513 -27.0752 -49.8269 -9.51386 -39.5461ZM129.278 -39.5461L161.426 -20.9837V16.8551V54.6939L128.853 73.5419L96.4208 92.3899L63.7057 73.5419L31.1322 54.6939V16.8551L31.2738 -20.9837L63.4225 -39.8317C81.1255 -50.1124 95.996 -58.3941 96.4208 -58.3941C96.8457 -58.2513 111.716 -49.8269 129.278 -39.5461ZM268.069 -39.5461L300.218 -20.9837V16.8551V54.6939L267.644 73.5419L235.212 92.3899L202.497 73.5419L169.924 54.6939V16.8551L170.065 -20.9837L202.214 -39.8317C219.917 -50.1124 234.787 -58.3941 235.212 -58.3941C235.637 -58.2513 250.508 -49.8269 268.069 -39.5461ZM406.86 -39.5461L439.009 -20.9837V16.8551V54.6939L406.436 73.5419L373.862 92.5326L341.289 73.5419L308.715 54.6939V16.8551L308.857 -20.9837L341.005 -39.8317C358.708 -50.1124 373.579 -58.3941 374.004 -58.3941C374.428 -58.2513 389.157 -49.8269 406.86 -39.5461ZM545.652 -39.5461L577.8 -20.9837V16.8551V54.6939L545.227 73.5419L512.653 92.5326L480.08 73.5419L447.506 54.6939V16.8551V-20.9837L479.797 -39.6889C497.5 -50.1124 512.37 -58.3941 512.795 -58.2513C513.22 -58.2513 527.949 -49.8269 545.652 -39.5461ZM684.443 -39.5461L716.592 -20.9837V16.8551V54.6939L684.018 73.5419L651.445 92.5326L618.871 73.5419L586.298 54.6939V16.8551V-20.9837L618.588 -39.6889C636.291 -50.1124 651.162 -58.3941 651.586 -58.2513C652.011 -58.2513 666.74 -49.8269 684.443 -39.5461ZM823.235 -39.5461L855.242 -20.9837L855.383 16.8551V54.6939L822.81 73.5419L790.236 92.5326L757.663 73.5419L725.089 54.6939V16.8551V-20.9837L757.379 -39.6889C775.082 -50.1124 789.953 -58.3941 790.378 -58.2513C790.803 -58.2513 805.673 -49.8269 823.235 -39.5461ZM962.026 -39.5461L994.033 -20.9837L994.175 16.8551V54.6939L961.601 73.5419L928.886 92.3899L896.454 73.5419L863.881 54.6939V16.8551V-20.9837L896.171 -39.8317C913.874 -50.1124 928.744 -58.3941 929.169 -58.3941C929.594 -58.2513 944.465 -49.8269 962.026 -39.5461ZM1100.82 -39.5461L1132.82 -20.9837L1132.97 16.8551V54.6939L1100.39 73.5419L1067.68 92.3899L1035.25 73.5419L1002.67 54.6939V16.8551V-20.9837L1034.96 -39.8317C1052.67 -50.1124 1067.54 -58.3941 1067.96 -58.3941C1068.39 -58.2513 1083.26 -49.8269 1100.82 -39.5461ZM1239.75 -39.5461L1271.76 -20.9837V16.8551V54.6939L1239.18 73.5419L1206.47 92.3899L1174.04 73.5419L1141.46 54.6939V16.8551V-20.9837L1173.75 -39.8317C1191.46 -50.1124 1206.33 -58.3941 1206.89 -58.3941C1207.46 -58.2513 1222.33 -49.8269 1239.75 -39.5461ZM-79.1928 81.3952L-46.7609 100.243V138.225L-46.9025 176.063L-79.3344 194.911L-111.908 213.617L-144.198 194.769L-176.347 176.063L-176.772 138.082L-177.055 100.243L-144.906 81.3952C-127.062 71.1145 -112.474 62.5472 -112.191 62.5472C-111.908 62.5472 -97.179 71.1145 -79.1928 81.3952ZM59.457 81.3952L92.0305 100.386V138.225L91.8888 176.063L59.3154 194.911L26.8835 213.617L-5.40677 194.769L-37.5554 176.063L-37.9803 138.225L-38.2635 100.386L-6.11488 81.5379C11.7297 71.1144 26.317 62.69 26.6002 62.69C26.7418 62.5472 41.6124 71.1145 59.457 81.3952ZM198.248 81.3952L230.822 100.386V138.225L230.68 176.063L198.107 194.911L165.675 213.617L133.385 194.769L101.236 176.063L100.811 138.225L100.528 100.386L132.677 81.5379C150.521 71.1144 165.108 62.69 165.392 62.69C165.533 62.5472 180.404 71.1145 198.248 81.3952ZM337.04 81.3952L369.613 100.386V138.225L369.472 176.063L336.898 194.911L304.466 213.617L272.176 194.769L240.027 176.063L239.603 138.225L239.319 100.386L271.468 81.5379C289.313 71.1144 303.9 62.69 304.183 62.69C304.325 62.5472 319.195 71.1145 337.04 81.3952ZM475.831 81.3952L508.405 100.386L508.121 138.225L507.697 176.063L475.548 194.769L443.258 213.617L411.109 194.769L378.819 176.063L378.394 138.225L378.111 100.386L410.259 81.5379C428.104 71.1144 442.691 62.69 442.974 62.69C443.116 62.5472 457.987 71.1145 475.831 81.3952ZM614.623 81.3952L647.196 100.386L646.913 138.225L646.488 176.063L614.339 194.769L582.049 213.617L549.9 194.769L517.61 176.063L517.185 138.225L516.902 100.386L549.051 81.5379C566.895 71.1144 581.483 62.69 581.766 62.69C581.907 62.5472 596.778 71.1145 614.623 81.3952ZM753.414 81.3952L785.988 100.386L785.704 138.225L785.279 176.063L753.131 194.769L720.841 213.617L688.692 194.769L656.402 176.063L655.977 138.225L655.694 100.386L687.842 81.5379C705.687 71.1144 720.274 62.69 720.557 62.69C720.699 62.5472 735.569 71.1145 753.414 81.3952ZM892.206 81.3952L924.779 100.386L924.496 138.225L924.071 176.063L891.922 194.769L859.632 213.617L827.2 194.911L794.627 176.063L794.485 138.225V100.386L826.775 81.5379C844.478 71.1144 859.066 62.69 859.349 62.69C859.49 62.5472 874.361 71.1145 892.206 81.3952ZM1031 81.3952L1063.57 100.386L1063.29 138.225L1062.86 176.063L1030.71 194.769L998.423 213.617L965.991 194.911L933.418 176.063L933.276 138.225V100.386L965.567 81.5379C983.27 71.1144 997.857 62.69 998.14 62.69C998.282 62.5472 1013.15 71.1145 1031 81.3952ZM1169.79 81.3952L1202.36 100.386L1202.08 138.225L1201.65 176.063L1169.51 194.769L1137.21 213.617L1104.78 194.911L1072.21 176.063L1072.07 138.225V100.386L1104.36 81.5379C1122.06 71.1144 1136.65 62.69 1136.93 62.69C1137.07 62.5472 1151.94 71.1145 1169.79 81.3952ZM1308.86 81.3952L1341.15 100.243L1340.87 138.082L1340.45 176.063L1308.3 194.769L1276.01 213.617L1243.43 194.911L1211 176.063L1210.86 138.225V100.243L1243.15 81.5379C1260.85 71.1144 1275.58 62.69 1275.86 62.5472C1276.15 62.5472 1291.02 70.9717 1308.86 81.3952ZM-147.031 203.479L-116.157 221.47L-116.44 259.309L-116.865 297.29L-148.022 315.424C-165.159 325.562 -180.171 333.701 -181.304 333.701C-182.437 333.701 -197.449 325.42 -214.585 315.424L-245.742 297.148L-246.167 259.166L-246.451 221.327L-214.302 202.622C-196.457 192.341 -181.162 184.202 -180.029 184.631C-178.896 185.059 -164.167 193.484 -147.031 203.479ZM-9.65548 202.622L22.6348 221.47L22.3515 259.309L21.9267 297.29L-9.2306 315.424C-26.3671 325.562 -41.3792 333.701 -42.5122 333.701C-43.6452 333.701 -58.6573 325.42 -75.7938 315.424L-106.951 297.148L-107.376 259.309L-107.659 221.47L-75.5106 202.765C-57.666 192.341 -42.9371 183.917 -42.6538 183.917C-42.3706 183.917 -27.5001 192.341 -9.65548 202.622ZM129.136 202.622L161.426 221.47L161.143 259.309L160.718 297.29L129.561 315.424C112.424 325.562 97.4122 333.701 96.2792 333.701C95.1462 333.701 80.1341 325.42 62.9976 315.424L31.8403 297.148L31.4155 259.309L31.1322 221.47L63.2808 202.765C81.1254 192.341 95.8543 183.917 96.1376 183.917C96.4208 183.917 111.291 192.341 129.136 202.622ZM267.927 202.622L300.218 221.47L299.934 259.309L299.51 297.29L268.352 315.424C251.216 325.562 236.204 333.701 235.071 333.701C233.938 333.701 218.925 325.42 201.789 315.424L170.632 297.148L170.207 259.309L169.924 221.47L202.072 202.765C219.917 192.341 234.646 183.917 234.929 183.917C235.212 183.917 250.083 192.341 267.927 202.622ZM406.719 202.622L439.009 221.47L438.726 259.309L438.301 297.148L407.144 315.424C390.007 325.42 374.995 333.701 373.862 333.701C372.729 333.701 357.717 325.42 340.58 315.424L309.423 297.148L308.998 259.309L308.715 221.47L340.864 202.765C358.708 192.341 373.437 183.917 373.72 183.917C374.004 183.917 388.874 192.341 406.719 202.622ZM545.51 202.622L577.8 221.47L577.517 259.309L577.092 297.148L545.935 315.424C528.799 325.42 513.786 333.701 512.653 333.701C511.52 333.701 496.508 325.42 479.372 315.424L448.215 297.148L447.79 259.309L447.506 221.47L479.655 202.765C497.5 192.341 512.229 183.917 512.512 183.917C512.795 183.917 527.666 192.341 545.51 202.622ZM684.302 202.622L716.592 221.47L716.309 259.309L715.884 297.148L684.726 315.424C667.59 325.42 652.578 333.701 651.445 333.701C650.312 333.701 635.3 325.42 618.163 315.424L587.006 297.148L586.581 259.309L586.298 221.47L618.446 202.765C636.291 192.341 651.02 183.917 651.303 183.917C651.586 183.917 666.457 192.341 684.302 202.622ZM823.093 202.622L855.383 221.47L855.1 259.309L854.675 297.148L823.518 315.424C806.381 325.42 791.369 333.701 790.236 333.701C789.103 333.701 774.091 325.42 756.955 315.424L725.797 297.148L725.372 259.309L725.089 221.47L757.238 202.765C775.082 192.341 789.811 183.917 790.095 183.917C790.378 183.917 805.248 192.341 823.093 202.622ZM961.884 202.622L994.175 221.47L993.891 259.309L993.467 297.148L962.309 315.424C945.173 325.42 930.161 333.701 929.028 333.701C927.895 333.701 912.883 325.562 895.746 315.424L864.589 297.29L864.164 259.309L863.881 221.47L896.029 202.765C913.874 192.341 928.603 183.917 928.886 183.917C929.169 183.917 944.04 192.341 961.884 202.622ZM1100.68 202.622L1132.97 221.47L1132.68 259.309L1132.26 297.148L1101.1 315.424C1083.96 325.42 1068.95 333.701 1067.82 333.701C1066.69 333.701 1051.67 325.562 1034.54 315.424L1003.38 297.29L1002.96 259.309L1002.67 221.47L1034.82 202.765C1052.67 192.341 1067.39 183.917 1067.68 183.917C1067.96 183.917 1082.83 192.341 1100.68 202.622ZM1239.47 202.622L1271.76 221.47L1271.47 259.309L1271.05 297.148L1239.89 315.424C1222.76 325.42 1207.74 333.701 1206.61 333.701C1205.48 333.701 1190.47 325.562 1173.33 315.424L1142.17 297.29L1141.75 259.309L1141.46 221.47L1173.61 202.765C1191.46 192.341 1206.19 183.917 1206.47 183.917C1206.75 183.917 1221.62 192.341 1239.47 202.622ZM1379.67 203.479L1410.55 221.327L1410.27 259.166L1409.84 297.148L1378.68 315.424C1361.55 325.42 1346.53 333.701 1345.4 333.701C1344.27 333.701 1329.26 325.562 1312.12 315.424L1280.96 297.29L1280.54 259.309L1280.25 221.47L1312.4 202.622C1330.67 192.056 1345.54 184.202 1346.82 184.774C1347.95 185.202 1362.82 193.626 1379.67 203.479ZM-217.843 323.706L-186.26 342.269V380.25V418.232L-218.126 436.794C-235.546 447.075 -250.841 455.071 -252.116 454.785C-253.249 454.357 -267.977 446.075 -284.689 436.223L-315.138 418.375V380.25V342.126L-283.981 323.849C-266.844 313.711 -252.116 305.429 -251.124 305.429C-250.274 305.287 -235.262 313.568 -217.843 323.706ZM-79.0512 323.706L-47.4691 342.269V380.25V418.232L-79.0512 436.794C-96.4709 446.932 -111.2 455.214 -111.766 455.214C-112.474 455.214 -127.345 446.789 -144.906 436.509L-177.055 417.803V380.25V342.697L-145.473 324.135C-128.195 313.854 -113.324 305.572 -112.333 305.429C-111.483 305.287 -96.4709 313.568 -79.0512 323.706ZM59.7402 323.706L91.3223 342.269V380.25V418.232L59.7402 436.794C42.3205 446.932 27.5916 455.214 27.0251 455.214C26.317 455.214 11.4465 446.789 -6.11488 436.509L-38.2635 417.803V380.25V342.697L-6.68134 324.135C10.5968 313.854 25.4673 305.572 26.4586 305.429C27.3084 305.287 42.3205 313.568 59.7402 323.706ZM198.532 323.706L230.114 342.269V380.25V418.232L198.532 436.794C181.112 446.932 166.383 455.214 165.817 455.214C165.108 455.214 150.238 446.789 132.677 436.509L100.528 417.803V380.25V342.697L132.11 324.135C149.388 313.854 164.259 305.572 165.25 305.429C166.1 305.287 181.112 313.568 198.532 323.706ZM337.323 323.706L368.905 342.269V380.25V418.232L337.323 436.794C319.903 446.932 305.174 455.214 304.608 455.214C303.9 455.214 289.029 446.789 271.468 436.509L239.319 417.803V380.25V342.697L270.901 324.135C288.18 313.854 303.05 305.572 304.041 305.429C304.891 305.287 319.903 313.568 337.323 323.706ZM476.114 323.706L507.697 342.269V380.25V418.232L476.114 436.794C458.695 446.932 443.824 455.214 443.258 455.214C442.691 455.214 427.821 446.932 410.401 436.794L378.819 418.232V380.25V342.269L409.976 323.849C427.113 313.854 441.841 305.429 442.833 305.429C443.683 305.287 458.695 313.568 476.114 323.706ZM614.906 323.706L646.488 342.269V380.25V418.232L614.906 436.794C597.486 446.932 582.616 455.214 582.049 455.214C581.483 455.214 566.612 446.932 549.192 436.794L517.61 418.232V380.25V342.269L548.768 323.849C565.904 313.854 580.633 305.429 581.624 305.429C582.474 305.287 597.486 313.568 614.906 323.706ZM753.697 323.706L785.279 342.269V380.25V418.232L753.697 436.794C736.278 446.932 721.407 455.214 720.841 455.214C720.274 455.214 705.403 446.932 687.984 436.794L656.402 418.232V380.25V342.269L687.559 323.849C704.695 313.854 719.424 305.429 720.416 305.429C721.265 305.287 736.278 313.568 753.697 323.706ZM892.63 323.992L924.779 342.697V380.25V417.803L892.63 436.509C875.069 446.789 860.198 455.214 859.49 455.214C858.924 455.214 844.195 446.932 826.775 436.794L795.193 418.232V380.25V342.269L826.35 323.849C843.487 313.854 858.216 305.429 859.065 305.429C859.915 305.287 875.069 313.711 892.63 323.992ZM1031.42 323.992L1063.57 342.697V380.25V417.803L1031.42 436.509C1013.86 446.789 998.99 455.214 998.282 455.214C997.715 455.214 982.986 446.932 965.567 436.794L933.985 418.232V380.25V342.269L965.142 323.849C982.278 313.854 997.007 305.429 997.857 305.429C998.707 305.287 1013.86 313.711 1031.42 323.992ZM1170.21 323.992L1202.36 342.697V380.25V417.803L1170.21 436.509C1152.65 446.789 1137.78 455.214 1137.07 455.214C1136.51 455.214 1121.78 446.932 1104.36 436.794L1072.78 418.232V380.25V342.269L1103.93 323.849C1121.07 313.854 1135.8 305.429 1136.65 305.429C1137.5 305.287 1152.65 313.711 1170.21 323.992ZM1309 323.992L1341.15 342.697V380.25V417.803L1309 436.509C1291.44 446.789 1276.57 455.214 1275.86 455.214C1275.3 455.214 1260.57 446.932 1243.15 436.794L1211.57 418.232V380.25V342.269L1242.72 323.849C1259.86 313.854 1274.59 305.429 1275.44 305.429C1276.29 305.287 1291.44 313.711 1309 323.992ZM1447.8 323.706L1479.24 342.126V380.25V418.375L1448.79 436.223C1432.08 446.075 1417.35 454.357 1416.21 454.785C1414.94 455.071 1399.64 447.075 1382.22 436.794L1350.36 418.232V380.25V342.269L1381.52 323.849C1398.65 313.854 1413.52 305.429 1414.51 305.429C1415.36 305.287 1430.38 313.568 1447.8 323.706ZM-148.022 445.076L-116.865 463.21L-116.44 501.192L-116.157 539.03L-147.597 557.45C-165.017 567.445 -180.171 575.727 -181.304 575.727C-182.437 575.727 -197.59 567.588 -215.01 557.45L-246.451 539.173L-246.167 501.334L-245.742 463.353L-214.585 445.076C-197.449 435.081 -182.437 426.799 -181.304 426.799C-180.171 426.799 -165.159 434.938 -148.022 445.076ZM-9.2306 445.076L21.9267 463.21L22.3515 501.192L22.6348 539.03L-9.93871 557.878L-42.5122 576.869L-75.0857 557.878L-107.659 539.03L-107.376 501.192L-106.951 463.353L-75.7938 445.076C-58.6573 435.081 -43.6452 426.799 -42.5122 426.799C-41.3792 426.799 -26.3671 434.938 -9.2306 445.076ZM129.561 445.076L160.718 463.21L161.143 501.192L161.426 539.03L128.853 557.878L96.2792 576.869L63.7057 557.878L31.1322 539.03L31.4155 501.192L31.8403 463.353L62.9976 445.076C80.1341 435.081 95.1462 426.799 96.2792 426.799C97.4122 426.799 112.424 434.938 129.561 445.076ZM268.352 445.076L299.51 463.21L299.934 501.192L300.218 539.03L267.644 557.878L235.071 576.869L202.497 557.878L169.924 539.03L170.207 501.192L170.632 463.353L201.789 445.076C218.925 435.081 233.938 426.799 235.071 426.799C236.204 426.799 251.216 434.938 268.352 445.076ZM407.144 445.076L438.301 463.353L438.726 501.192L439.009 539.03L406.436 557.878L373.862 576.869L341.289 557.878L308.715 539.03L308.998 501.192L309.423 463.353L340.58 445.076C357.717 435.081 372.729 426.799 373.862 426.799C374.995 426.799 390.007 435.081 407.144 445.076ZM545.935 445.076L577.092 463.353L577.517 501.192L577.8 539.03L545.227 557.878L512.653 576.869L480.08 557.878L447.506 539.03L447.79 501.192L448.215 463.353L479.372 445.076C496.508 435.081 511.52 426.799 512.653 426.799C513.786 426.799 528.799 435.081 545.935 445.076ZM684.726 445.076L715.884 463.353L716.309 501.192L716.592 539.03L684.018 557.878L651.445 576.869L618.871 557.878L586.298 539.03L586.581 501.192L587.006 463.353L618.163 445.076C635.3 435.081 650.312 426.799 651.445 426.799C652.578 426.799 667.59 435.081 684.726 445.076ZM823.518 445.076L854.675 463.353L855.1 501.192L855.383 539.03L822.81 557.878L790.236 576.869L757.663 557.878L725.089 539.03L725.372 501.192L725.797 463.353L756.955 445.076C774.091 435.081 789.103 426.799 790.236 426.799C791.369 426.799 806.381 435.081 823.518 445.076ZM962.309 445.076L993.467 463.353L993.891 501.192L994.175 539.03L961.601 557.878L929.028 576.869L896.454 557.878L863.881 539.03L864.164 501.192L864.589 463.21L895.746 445.076C912.883 434.938 927.895 426.799 929.028 426.799C930.161 426.799 945.173 435.081 962.309 445.076ZM1101.1 445.076L1132.26 463.353L1132.68 501.192L1132.97 539.03L1100.39 557.878L1067.82 576.869L1035.25 557.878L1002.67 539.03L1002.96 501.192L1003.38 463.21L1034.54 445.076C1051.67 434.938 1066.69 426.799 1067.82 426.799C1068.95 426.799 1083.96 435.081 1101.1 445.076ZM1239.89 445.076L1271.05 463.353L1271.47 501.192L1271.76 539.03L1239.18 557.878L1206.61 576.869L1174.04 557.878L1141.46 539.03L1141.75 501.192L1142.17 463.21L1173.33 445.076C1190.47 434.938 1205.48 426.799 1206.61 426.799C1207.74 426.799 1222.76 435.081 1239.89 445.076ZM1378.68 445.076L1409.84 463.353L1410.27 501.334L1410.55 539.173L1379.11 557.45C1361.69 567.588 1346.53 575.727 1345.4 575.727C1344.27 575.727 1329.12 567.445 1311.7 557.45L1280.25 539.03L1280.54 501.192L1280.96 463.21L1312.12 445.076C1329.26 434.938 1344.27 426.799 1345.4 426.799C1346.53 426.799 1361.55 435.081 1378.68 445.076ZM-78.9095 565.874L-46.9025 584.437L-46.7609 622.276V660.257L-79.3344 679.105L-112.05 698.096L-144.623 679.248L-177.055 660.257L-176.772 622.418L-176.347 584.437L-144.481 565.732C-126.92 555.308 -112.333 547.026 -111.908 547.169C-111.341 547.169 -96.6125 555.594 -78.9095 565.874ZM59.8819 565.874L91.8888 584.437L92.0305 622.276V660.114L59.457 679.105L26.8835 697.953L-5.69 679.105L-38.2635 660.114L-37.9803 622.276L-37.5554 584.437L-5.69 565.732C11.8714 555.308 26.4586 547.026 26.8835 547.169C27.3084 547.169 42.1789 555.594 59.8819 565.874ZM198.673 565.874L230.68 584.437L230.822 622.276V660.114L198.248 679.105L165.675 697.953L133.101 679.105L100.528 660.114L100.811 622.276L101.236 584.437L133.101 565.732C150.663 555.308 165.25 547.026 165.675 547.169C166.1 547.169 180.97 555.594 198.673 565.874ZM337.465 565.874L369.472 584.437L369.613 622.276V660.114L337.04 679.105L304.466 697.953L271.893 679.105L239.319 660.114L239.603 622.276L240.027 584.437L271.893 565.732C289.454 555.308 304.041 547.026 304.466 547.169C304.891 547.169 319.762 555.594 337.465 565.874ZM475.265 565.589L507.697 584.437L508.121 622.276L508.405 660.114L475.831 679.105L443.258 697.953L410.684 679.105L378.111 660.114L378.394 622.276L378.819 584.437L410.684 565.732C428.246 555.308 442.55 546.884 442.691 546.741C442.833 546.598 457.42 555.165 475.265 565.589ZM614.056 565.589L646.488 584.437L646.913 622.276L647.196 660.114L614.623 679.105L582.049 697.953L549.476 679.105L516.902 660.114L517.185 622.276L517.61 584.437L549.476 565.732C567.037 555.308 581.341 546.884 581.483 546.741C581.624 546.598 596.212 555.165 614.056 565.589ZM752.848 565.589L785.279 584.437L785.704 622.276L785.988 660.114L753.414 679.105L720.841 697.953L688.267 679.105L655.694 660.114L655.977 622.276L656.402 584.437L688.267 565.732C705.828 555.308 720.132 546.884 720.274 546.741C720.416 546.598 735.003 555.165 752.848 565.589ZM891.639 565.589L924.071 584.437L924.496 622.276L924.779 660.114L892.206 679.105L859.632 697.953L827.058 679.105L794.485 660.114V622.276L794.627 584.437L826.775 565.732C844.478 555.308 858.924 546.884 859.065 546.741C859.207 546.598 873.794 555.165 891.639 565.589ZM1030.43 565.589L1062.86 584.437L1063.29 622.276L1063.57 660.114L1031 679.105L998.423 697.953L965.85 679.105L933.276 660.114V622.276L933.418 584.437L965.567 565.732C983.27 555.308 997.715 546.884 997.857 546.741C997.998 546.598 1012.59 555.165 1030.43 565.589ZM1169.22 565.589L1201.65 584.437L1202.08 622.276L1202.36 660.114L1169.79 679.105L1137.21 697.953L1104.64 679.105L1072.07 660.114V622.276L1072.21 584.437L1104.36 565.732C1122.06 555.308 1136.51 546.884 1136.65 546.741C1136.79 546.598 1151.38 555.165 1169.22 565.589ZM1308.01 565.589L1340.45 584.437L1340.87 622.418L1341.15 660.257L1308.72 679.248L1276.15 698.096L1243.43 679.105L1210.86 660.257V622.276L1211 584.437L1243.15 565.732C1260.85 555.308 1275.3 546.884 1275.44 546.741C1275.58 546.598 1290.17 555.165 1308.01 565.589ZM-9.37221 687.244L22.6348 705.806V743.645V781.484L-10.0804 800.332L-42.6538 819.323L-75.2273 800.332L-107.659 781.484V743.645V705.806L-75.369 686.958C-57.666 676.678 -42.7955 668.253 -42.229 668.396C-41.8041 668.539 -26.9336 676.963 -9.37221 687.244ZM129.419 687.244L161.426 705.806V743.645V781.484L128.853 800.332L96.2792 819.18L63.7057 800.332L31.2738 781.484L31.1322 743.645V705.806L63.4225 686.958C81.1255 676.678 95.996 668.253 96.5625 668.396C96.9873 668.539 111.858 676.963 129.419 687.244ZM268.211 687.244L300.218 705.806V743.645V781.484L267.644 800.332L235.071 819.18L202.497 800.332L170.065 781.484L169.924 743.645V705.806L202.214 686.958C219.917 676.678 234.787 668.253 235.354 668.396C235.779 668.539 250.649 676.963 268.211 687.244ZM407.002 687.244L439.009 705.806V743.645V781.484L406.436 800.332L373.862 819.037L341.289 800.332L308.857 781.484L308.715 743.645V705.806L341.005 686.958C358.708 676.678 373.579 668.253 374.145 668.396C374.57 668.539 389.441 676.963 407.002 687.244ZM545.793 687.244L577.8 705.806V743.645V781.484L545.227 800.332L512.653 819.037L480.08 800.332L447.506 781.484V743.645V705.806L479.797 686.958C497.5 676.678 512.37 668.253 512.937 668.396C513.362 668.539 528.232 676.963 545.793 687.244ZM684.585 687.244L716.592 705.806V743.645V781.484L684.018 800.332L651.445 819.037L618.871 800.332L586.298 781.484V743.645V705.806L618.588 686.958C636.291 676.678 651.162 668.253 651.728 668.396C652.153 668.539 667.023 676.963 684.585 687.244ZM823.376 687.244L855.383 705.806V743.645L855.242 781.484L822.81 800.332L790.236 819.037L757.663 800.332L725.089 781.484V743.645V705.806L757.379 686.958C775.082 676.678 789.953 668.253 790.52 668.396C790.944 668.539 805.815 676.963 823.376 687.244ZM962.168 687.244L994.175 705.806V743.645L994.033 781.484L961.601 800.332L929.028 819.18L896.454 800.332L863.881 781.484V743.645V705.806L896.171 686.958C913.874 676.678 928.744 668.253 929.169 668.396C929.736 668.539 944.465 676.963 962.168 687.244ZM1100.96 687.244L1132.97 705.806V743.645L1132.82 781.484L1100.39 800.332L1067.82 819.18L1035.25 800.332L1002.67 781.484V743.645V705.806L1034.96 686.958C1052.67 676.678 1067.54 668.253 1067.96 668.396C1068.53 668.539 1083.26 676.963 1100.96 687.244ZM1239.75 687.244L1271.76 705.806V743.645V781.484L1239.33 800.332L1206.75 819.323L1174.18 800.332L1141.46 781.484V743.645V705.806L1173.75 686.958C1191.46 676.678 1206.33 668.253 1206.75 668.396C1207.32 668.539 1222.05 676.963 1239.75 687.244ZM59.7402 808.185L92.0305 827.033L91.7473 864.872L91.3223 902.711L59.0321 921.559L26.7419 940.407L-5.69 921.559L-38.1219 902.854L-38.2635 865.015V827.033L-5.97323 808.328C11.7298 797.905 26.4586 789.337 26.7419 789.337C27.0251 789.337 41.8956 797.762 59.7402 808.185ZM198.532 808.185L230.822 827.033L230.539 864.872L230.114 902.711L198.957 920.988C181.82 930.983 166.808 939.265 165.675 939.265C164.542 939.122 149.53 930.983 132.393 920.988L101.236 902.711L100.811 864.872L100.528 827.176L132.677 808.328C150.521 797.905 165.25 789.337 165.533 789.337C165.817 789.337 180.687 797.762 198.532 808.185ZM337.323 808.185L369.613 827.033L369.33 864.872L368.905 902.711L337.748 920.988C320.611 930.983 305.599 939.265 304.466 939.265C303.333 939.122 288.321 930.983 271.185 920.988L240.027 902.711L239.603 864.872L239.319 827.176L271.468 808.328C289.313 797.905 304.041 789.337 304.325 789.337C304.608 789.337 319.478 797.762 337.323 808.185ZM475.973 808.185L508.405 827.033L508.121 864.872L507.697 902.711L476.539 920.988C459.403 930.983 444.391 939.122 443.258 939.122C442.125 939.122 427.113 930.983 409.976 920.988L378.819 902.711L378.394 864.872L378.111 827.033L410.259 808.185C428.104 797.905 442.833 789.48 442.974 789.337C443.258 789.337 458.128 797.762 475.973 808.185ZM614.764 808.185L647.196 827.033L646.913 864.872L646.488 902.711L615.331 920.988C598.194 930.983 583.182 939.122 582.049 939.122C580.916 939.122 565.904 930.983 548.768 920.988L517.61 902.711L517.185 864.872L516.902 827.033L549.051 808.185C566.895 797.905 581.624 789.48 581.766 789.337C582.049 789.337 596.92 797.762 614.764 808.185ZM753.556 808.185L785.988 827.033L785.704 864.872L785.279 902.711L754.122 920.988C736.986 930.983 721.973 939.122 720.841 939.122C719.708 939.122 704.695 930.983 687.559 920.988L656.402 902.711L655.977 864.872L655.694 827.033L687.842 808.185C705.687 797.905 720.416 789.48 720.557 789.337C720.841 789.337 735.711 797.762 753.556 808.185ZM892.347 808.185L924.779 827.176L924.496 864.872L924.071 902.711L892.914 920.988C875.777 930.983 860.765 939.122 859.632 939.122C858.499 939.122 843.487 930.983 826.35 920.988L795.193 902.711L794.768 864.872L794.485 827.033L826.634 808.185C844.478 797.905 859.207 789.337 859.49 789.337C859.774 789.337 874.502 797.905 892.347 808.185ZM1031.14 808.185L1063.57 827.176L1063.29 864.872L1062.86 902.711L1031.7 920.988C1014.57 930.983 999.556 939.122 998.423 939.265C997.29 939.265 982.278 930.983 965.142 920.988L933.985 902.711L933.56 864.872L933.276 827.033L965.425 808.185C983.27 797.905 997.999 789.337 998.282 789.337C998.565 789.337 1013.29 797.905 1031.14 808.185ZM1169.93 808.185L1202.36 827.033V865.015L1202.22 902.854L1169.79 921.559L1137.36 940.407L1105.07 921.559L1072.78 902.711L1072.35 864.872L1072.07 827.033L1104.22 808.185C1122.06 797.905 1136.79 789.337 1137.07 789.337C1137.36 789.337 1152.09 797.762 1169.93 808.185ZM130.552 930.269L161.426 948.117L161.143 985.956L160.718 1023.8L129.278 1042.21C111.858 1052.35 96.8457 1060.63 95.996 1060.49C95.0046 1060.49 80.1341 1052.35 62.9976 1042.21L31.8403 1024.08L31.4155 986.099L31.1322 948.117L63.2808 929.412C81.6919 918.703 96.4208 910.993 97.6954 911.564C98.8284 911.992 113.699 920.417 130.552 930.269ZM269.344 930.269L300.218 948.117L299.934 985.956L299.51 1023.8L269.06 1041.64C252.349 1051.5 237.62 1059.78 236.345 1060.21C235.212 1060.49 219.917 1052.5 202.355 1042.36L170.632 1023.8L170.207 985.956L169.924 948.117L202.072 929.412C220.483 918.703 235.212 910.993 236.487 911.564C237.62 911.992 252.49 920.417 269.344 930.269ZM408.135 930.269L439.009 948.117L438.726 985.956L438.301 1023.8L406.719 1042.21C389.299 1052.35 374.57 1060.63 373.862 1060.63C373.154 1060.63 358.425 1052.35 341.005 1042.21L309.423 1023.8L308.998 985.956L308.715 948.117L340.864 929.412C359.275 918.703 374.004 910.993 375.278 911.564C376.411 911.992 391.282 920.417 408.135 930.269ZM546.926 930.269L577.8 948.117L577.517 985.956L577.092 1023.8L545.51 1042.21C528.09 1052.35 513.362 1060.63 512.653 1060.63C511.945 1060.63 497.216 1052.35 479.797 1042.21L448.215 1023.8L447.79 985.956L447.506 948.117L479.655 929.412C498.066 918.703 512.795 910.993 514.07 911.564C515.203 911.992 530.073 920.417 546.926 930.269ZM685.718 930.269L716.592 948.117L716.309 985.956L715.884 1023.8L685.435 1041.64C668.723 1051.5 653.994 1059.78 652.719 1060.21C651.586 1060.49 636.291 1052.5 618.73 1042.36L587.006 1023.8L586.581 985.956L586.298 948.117L618.446 929.412C636.858 918.703 651.586 910.993 652.861 911.564C653.994 911.992 668.865 920.417 685.718 930.269ZM824.509 930.269L855.383 948.117L855.1 985.956L854.675 1023.8L823.093 1042.21C805.673 1052.35 790.944 1060.63 790.236 1060.63C789.528 1060.63 774.799 1052.35 757.379 1042.21L725.797 1023.8L725.372 985.956L725.089 948.117L757.238 929.412C775.649 918.703 790.378 910.993 791.652 911.564C792.785 911.992 807.656 920.417 824.509 930.269ZM963.301 930.269L994.175 948.117L993.891 985.956L993.467 1023.8L961.743 1042.36C944.181 1052.5 928.886 1060.49 927.753 1060.21C926.478 1059.78 911.75 1051.5 895.038 1041.64L864.589 1023.8L864.164 985.956L863.881 948.117L896.029 929.412C914.44 918.703 929.169 910.993 930.444 911.564C931.577 911.992 946.447 920.417 963.301 930.269ZM1102.09 930.269L1132.97 948.117L1132.68 986.099L1132.26 1024.08L1101.1 1042.21C1083.96 1052.35 1069.09 1060.49 1068.1 1060.49C1067.25 1060.63 1052.24 1052.35 1034.82 1042.21L1003.38 1023.8L1002.96 985.956L1002.67 948.117L1034.82 929.412C1053.23 918.703 1067.96 910.993 1069.24 911.564C1070.37 911.992 1085.24 920.417 1102.09 930.269ZM198.532 1050.5L230.114 1068.92V1107.04V1145.16L198.532 1163.58C181.112 1173.72 166.241 1182 165.675 1182C164.967 1182 150.238 1173.72 132.818 1163.58L101.236 1145.02V1107.04V1068.92L132.393 1050.64C149.53 1040.5 164.259 1032.22 165.25 1032.22C166.1 1032.08 181.112 1040.36 198.532 1050.5ZM337.323 1050.5L368.905 1068.92V1107.04V1145.16L337.323 1163.58C319.903 1173.72 305.033 1182 304.466 1182C303.758 1182 289.029 1173.72 271.61 1163.58L240.027 1145.02V1107.04V1068.92L271.185 1050.64C288.321 1040.5 303.05 1032.22 304.041 1032.22C304.891 1032.08 319.903 1040.36 337.323 1050.5ZM476.114 1050.5L507.697 1068.92V1107.04V1145.02L476.114 1163.58C458.695 1173.72 443.966 1182 443.258 1182C442.55 1182 427.821 1173.72 410.401 1163.58L378.819 1145.02V1107.04V1068.92L409.976 1050.64C427.113 1040.5 441.841 1032.22 442.833 1032.22C443.683 1032.08 458.695 1040.36 476.114 1050.5ZM614.906 1050.5L646.488 1068.92V1107.04V1145.02L614.906 1163.58C597.486 1173.72 582.757 1182 582.049 1182C581.341 1182 566.612 1173.72 549.192 1163.58L517.61 1145.02V1107.04V1068.92L548.768 1050.64C565.904 1040.5 580.633 1032.22 581.624 1032.22C582.474 1032.08 597.486 1040.36 614.906 1050.5ZM753.697 1050.5L785.279 1068.92V1107.04V1145.02L753.697 1163.58C736.278 1173.72 721.549 1182 720.841 1182C720.132 1182 705.403 1173.72 687.984 1163.58L656.402 1145.02V1107.04V1068.92L687.559 1050.64C704.695 1040.5 719.424 1032.22 720.416 1032.22C721.265 1032.08 736.278 1040.36 753.697 1050.5ZM892.489 1050.5L924.071 1068.92V1107.04V1145.02L892.489 1163.58C875.069 1173.72 860.34 1182 859.632 1182C859.066 1182 844.195 1173.72 826.775 1163.58L795.193 1145.16V1107.04V1068.92L826.35 1050.64C843.487 1040.5 858.216 1032.22 859.207 1032.22C860.057 1032.08 875.069 1040.36 892.489 1050.5ZM1031.28 1050.5L1062.86 1068.92V1107.04V1145.02L1031.28 1163.58C1013.86 1173.72 999.132 1182 998.423 1182C997.857 1182 982.986 1173.72 965.567 1163.58L933.985 1145.16V1107.04V1068.92L965.142 1050.64C982.278 1040.5 997.007 1032.22 997.998 1032.22C998.848 1032.08 1013.86 1040.36 1031.28 1050.5Z" stroke="#2E270E" stroke-width="12.7348"/>
<path d="M583.428 311.37C585.101 312.303 587.408 313.604 590.208 315.198C596.29 318.659 604.631 323.446 613.748 328.678L643.56 345.99V378.681L643.543 380.895L643.149 415.759L613.457 432.967L613.449 432.972L584.792 449.633H582.583L554.063 432.978L554.049 432.969L554.034 432.961L524.206 415.75L523.814 380.895L523.552 346.122L553.186 328.817C562.301 323.513 570.58 318.721 576.61 315.258C579.431 313.638 581.75 312.316 583.428 311.37Z" fill="url(#paint1_linear_5070_2)"/>
<path d="M372.836 188.96C374.482 189.891 376.669 191.143 379.288 192.653C385.391 196.173 393.76 201.04 402.909 206.359L432.881 223.997V257.336L432.865 259.585L432.468 295.13L402.623 312.656L402.615 312.66L373.792 329.641H371.735L343.05 312.667L343.021 312.65L313.04 295.121L312.645 259.585L312.381 224.132L342.168 206.505C351.318 201.111 359.628 196.237 365.68 192.715C368.321 191.178 370.523 189.906 372.174 188.96H372.836Z" fill="url(#paint2_linear_5070_2)"/>
<path d="M647.672 673.423C649.327 674.349 651.596 675.636 654.348 677.208C660.378 680.654 668.65 685.419 677.69 690.627L707.233 707.851V733.13L707.163 742.521L706.774 777.183L677.379 794.284L677.372 794.289L649.678 810.453H646.182L618.624 794.295L618.609 794.287L618.594 794.279L589.066 777.175L588.677 742.546L588.418 707.95L617.753 690.752C626.784 685.477 634.984 680.712 640.958 677.268C643.73 675.669 646.013 674.363 647.672 673.423Z" fill="url(#paint3_linear_5070_2)"/>
<path d="M581.901 795.39C583.556 796.316 585.825 797.603 588.577 799.175C594.607 802.621 602.879 807.386 611.919 812.594L641.469 829.822V854.185L641.392 864.488L641.003 899.15L611.608 916.251L611.601 916.256L584.156 932.275H580.163L552.853 916.262L552.838 916.254L552.823 916.246L523.295 899.142L522.906 864.513L522.647 829.917L551.982 812.719C561.013 807.444 569.213 802.679 575.187 799.235C577.959 797.636 580.242 796.33 581.901 795.39Z" fill="url(#paint4_linear_5070_2)"/>
<path d="M304.111 70.1017C305.734 71.012 307.89 72.2342 310.471 73.7091C316.501 77.1546 324.773 81.9198 333.813 87.1281L363.393 104.373V124.676L363.286 139.022L362.897 173.684L333.502 190.785L333.495 190.79L304.572 207.672H303.53L274.747 190.796L274.732 190.788L274.717 190.779L245.189 173.676L244.8 139.047L244.542 104.451L273.876 87.2531C282.907 81.9782 291.107 77.2128 297.081 73.7687C299.683 72.268 301.855 71.0258 303.484 70.1017H304.111Z" fill="url(#paint5_linear_5070_2)"/>
<path d="M512.033 431.11C513.693 432.045 515.969 433.344 518.729 434.931C524.774 438.408 533.064 443.215 542.125 448.47L571.822 465.897V492.563L571.76 500.976L571.368 536.039L541.842 553.33L541.834 553.335L513.655 569.891H510.925L482.884 553.342L482.854 553.325L453.194 536.031L452.803 501L452.543 466.003L482.02 448.608C491.079 443.281 499.306 438.47 505.299 434.992C508.079 433.378 510.368 432.059 512.033 431.11Z" fill="url(#paint6_linear_5070_2)"/>
</g>
</g>
<defs>
<filter id="filter0_d_5070_2" x="144.298" y="125.703" width="735.336" height="811.745" filterUnits="userSpaceOnUse" color-interpolation-filters="sRGB">
<feFlood flood-opacity="0" result="BackgroundImageFix"/>
<feColorMatrix in="SourceAlpha" type="matrix" values="0 0 0 0 0 0 0 0 0 0 0 0 0 0 0 0 0 0 127 0" result="hardAlpha"/>
<feOffset dy="20"/>
<feGaussianBlur stdDeviation="15"/>
<feComposite in2="hardAlpha" operator="out"/>
<feColorMatrix type="matrix" values="0 0 0 0 0.579928 0 0 0 0 0.361982 0 0 0 0 0.0337188 0 0 0 0.3 0"/>
<feBlend mode="normal" in2="BackgroundImageFix" result="effect1_dropShadow_5070_2"/>
<feBlend mode="normal" in="SourceGraphic" in2="effect1_dropShadow_5070_2" result="shape"/>
</filter>
<linearGradient id="paint0_linear_5070_2" x1="480.5" y1="-78" x2="480.5" y2="1150" gradientUnits="userSpaceOnUse">
<stop offset="0.0583005" stop-color="#FFD07F"/>
<stop offset="0.7726" stop-color="#FFBC52"/>
<stop offset="0.991287" stop-color="#FFAC2D"/>
</linearGradient>
<linearGradient id="paint1_linear_5070_2" x1="523.213" y1="331.559" x2="642.251" y2="450.938" gradientUnits="userSpaceOnUse">
<stop stop-color="#FFB23D"/>
<stop offset="1" stop-color="#D27F02"/>
</linearGradient>
<linearGradient id="paint2_linear_5070_2" x1="312.042" y1="209.502" x2="433.154" y2="329.365" gradientUnits="userSpaceOnUse">
<stop stop-color="#FFB23D"/>
<stop offset="1" stop-color="#D27F02"/>
</linearGradient>
<linearGradient id="paint3_linear_5070_2" x1="588.083" y1="693.432" x2="706.06" y2="811.624" gradientUnits="userSpaceOnUse">
<stop stop-color="#FFB23D"/>
<stop offset="1" stop-color="#D27F02"/>
</linearGradient>
<linearGradient id="paint4_linear_5070_2" x1="522.312" y1="815.378" x2="640.163" y2="933.577" gradientUnits="userSpaceOnUse">
<stop stop-color="#FFB23D"/>
<stop offset="1" stop-color="#D27F02"/>
</linearGradient>
<linearGradient id="paint5_linear_5070_2" x1="244.206" y1="90.1895" x2="362.648" y2="208.419" gradientUnits="userSpaceOnUse">
<stop stop-color="#FFB23D"/>
<stop offset="1" stop-color="#D27F02"/>
</linearGradient>
<linearGradient id="paint6_linear_5070_2" x1="452.207" y1="451.374" x2="571.688" y2="570.026" gradientUnits="userSpaceOnUse">
<stop stop-color="#FFB23D"/>
<stop offset="1" stop-color="#D27F02"/>
</linearGradient>
</defs>
</svg>
