<?xml version="1.0" encoding="UTF-8"?>
<svg id="Layer_2" xmlns="http://www.w3.org/2000/svg" version="1.1" viewBox="0 0 1258.58 189.92">
  <!-- Generator: Adobe Illustrator 29.0.1, SVG Export Plug-In . SVG Version: 2.1.0 Build 192)  -->
  <defs>
    <style>
      .st0 {
        fill: #fff;
      }
    </style>
  </defs>
  <g>
    <rect x="862.41" y="6.12" width="50.99" height="177.69"/>
    <path d="M799.03,6.12v57.15c0,3.42-2.77,6.2-6.2,6.2h-57.12c-3.42,0-6.2-2.77-6.2-6.2V6.12h-50.99v177.69h50.99v-57.15c0-3.42,2.77-6.2,6.2-6.2h57.12c3.42,0,6.2,2.77,6.2,6.2v57.15h50.99V6.12h-50.99Z"/>
    <path d="M5.67,57.11h44.79c3.42,0,6.2,2.77,6.2,6.2v120.5h50.99V63.3c0-3.42,2.77-6.2,6.2-6.2h44.79V6.12H5.67v50.99Z"/>
    <path d="M589.72,126.62V6.12s-50.92,0-50.92,0v120.51c0,31.58,25.6,57.18,57.18,57.18h70.16v-50.99h-70.22c-3.42,0-6.2-2.77-6.2-6.2Z"/>
    <path d="M285.34,6.12h-57.14c-31.58,0-57.18,25.6-57.18,57.18v63.33c0,31.58,25.6,57.18,57.18,57.18h57.14c31.58,0,57.18-25.6,57.18-57.18v-63.33c0-31.58-25.6-57.18-57.18-57.18ZM291.53,126.62c0,3.42-2.77,6.2-6.2,6.2h-57.12c-3.42,0-6.2-2.77-6.2-6.2v-63.32c0-3.42,2.77-6.2,6.2-6.2h57.12c3.42,0,6.2,2.77,6.2,6.2v63.32Z"/>
    <path d="M469.22,6.12h-57.14c-31.58,0-57.18,25.6-57.18,57.18v63.33c0,31.58,25.6,57.18,57.18,57.18h57.14c31.58,0,57.18-25.6,57.18-57.18v-63.33c0-31.58-25.6-57.18-57.18-57.18ZM475.41,126.62c0,3.42-2.77,6.2-6.2,6.2h-57.12c-3.42,0-6.2-2.77-6.2-6.2v-63.32c0-3.42,2.77-6.2,6.2-6.2h57.12c3.42,0,6.2,2.77,6.2,6.2v63.32Z"/>
    <path d="M1150.65,57.11h102.26V6.12h-102.2c-31.58,0-57.18,25.6-57.18,57.18v63.33c0,31.58,25.6,57.18,57.18,57.18h102.2v-50.99h-102.26c-3.42,0-6.2-2.77-6.2-6.2h0c0-3.41,2.76-6.16,6.16-6.16h89.93v-50.99h-89.93c-3.4,0-6.16-2.76-6.16-6.16h0c0-3.42,2.77-6.2,6.2-6.2Z"/>
    <path d="M1042.55,6.12l-25.7,121.78c-.6,2.87-3.13,4.92-6.06,4.92h-2.23c-2.93,0-5.46-2.05-6.06-4.92l-25.7-121.78h-50.99l27.93,132.32c5.58,26.44,28.92,45.37,55.94,45.37h0c27.03,0,50.36-18.92,55.94-45.37l27.93-132.32h-50.99Z"/>
  </g>
</svg>