<?xml version="1.0" encoding="UTF-8"?>
<svg id="Layer_2" data-name="Layer 2" xmlns="http://www.w3.org/2000/svg" viewBox="0 0 176.19 120">
  <defs>
    <style>
      .cls-1 {
        fill: #2D684B;
      }
    </style>
  </defs>
  <path class="cls-1" d="M147.47,93.42H26.37c-.6,0-1.08-.48-1.08-1.08V25.01c0-3.15,2.56-5.71,5.71-5.71h31.9c.6,0,1.08.48,1.08,1.08s-.48,1.08-1.08,1.08h-31.9c-1.96,0-3.55,1.59-3.55,3.55v66.25h118.94V25.01c0-1.96-1.59-3.55-3.55-3.55h-31.15c-.6,0-1.08-.48-1.08-1.08s.48-1.08,1.08-1.08h31.15c3.15,0,5.71,2.56,5.71,5.71v67.33c0,.6-.48,1.08-1.08,1.08Z"/>
  <path class="cls-1" d="M141.13,87.57H32.72c-.6,0-1.08-.48-1.08-1.08V28.32c0-1.77,1.44-3.21,3.21-3.21h27.45c.6,0,1.08.48,1.08,1.08s-.48,1.08-1.08,1.08h-27.45c-.58,0-1.05.47-1.05,1.05v57.1h106.25V28.32c0-.58-.47-1.05-1.05-1.05h-26.8c-.6,0-1.08-.48-1.08-1.08s.48-1.08,1.08-1.08h26.8c1.77,0,3.21,1.44,3.21,3.21v58.17c0,.6-.48,1.08-1.08,1.08Z"/>
  <path class="cls-1" d="M159.58,116.39H16.71c-1.7,0-3.08-1.38-3.08-3.08v-2.77c0-.6.48-1.08,1.08-1.08h146.76c.6,0,1.08.48,1.08,1.08v2.87c0,1.64-1.33,2.97-2.98,2.97ZM15.79,111.61v1.69c0,.51.41.92.92.92h142.87c.45,0,.82-.37.82-.82v-1.8H15.79Z"/>
  <path class="cls-1" d="M14.86,110.97c-.21,0-.42-.06-.6-.18-.49-.33-.63-1-.29-1.5l11.67-17.38c.33-.49,1-.63,1.5-.29.49.33.63,1,.29,1.5l-11.67,17.38c-.21.31-.55.48-.9.48Z"/>
  <path class="cls-1" d="M161.68,111c-.23,0-.46-.1-.62-.3l-14.04-17.7c-.27-.34-.21-.84.13-1.11.34-.27.84-.21,1.11.13l14.04,17.7c.27.34.21.84-.13,1.11-.15.12-.32.17-.49.17Z"/>
  <path class="cls-1" d="M111.34,77.28h-44.34c-2.47,0-4.47-2.01-4.47-4.47v-28.7c0-2.47,2.01-4.47,4.47-4.47h44.34c2.47,0,4.47,2.01,4.47,4.47v28.7c0,2.47-2.01,4.47-4.47,4.47ZM67,41.78c-1.29,0-2.33,1.05-2.33,2.33v28.7c0,1.29,1.05,2.33,2.33,2.33h44.34c1.29,0,2.33-1.05,2.33-2.33v-28.7c0-1.29-1.05-2.33-2.33-2.33h-44.34Z"/>
  <path class="cls-1" d="M107.3,41.79h-7.42c-.59,0-1.07-.48-1.07-1.07v-13.73c0-5.25-4.27-9.52-9.52-9.52h-.25c-5.25,0-9.52,4.27-9.52,9.52v13.73c0,.59-.48,1.07-1.07,1.07s-1.07-.48-1.07-1.07v-13.73c0-6.43,5.23-11.66,11.66-11.66h.25c6.43,0,11.66,5.23,11.66,11.66v12.66h5.28v-12.06c0-3.38-1-6.65-2.89-9.45-3.16-4.67-8.4-7.46-14.02-7.46h-.3c-9.33,0-16.91,7.59-16.91,16.91v13.13c0,.59-.48,1.07-1.07,1.07s-1.07-.48-1.07-1.07v-13.13c0-10.5,8.55-19.05,19.05-19.05h.3c6.33,0,12.23,3.14,15.79,8.41,2.13,3.15,3.26,6.83,3.26,10.65v13.13c0,.59-.48,1.07-1.07,1.07Z"/>
  <path class="cls-1" d="M93.73,55.67c0-2.52-2.04-4.56-4.56-4.56s-4.56,2.04-4.56,4.56c0,1.46.7,2.75,1.78,3.59v6.14c0,.64.52,1.16,1.16,1.16h3.24c.64,0,1.16-.52,1.16-1.16v-6.14c1.07-.83,1.78-2.12,1.78-3.59Z"/>
  <path class="cls-1" d="M153.57,101.91H21.12c-.55,0-1-.45-1-1s.45-1,1-1h132.45c.55,0,1,.45,1,1s-.45,1-1,1Z"/>
  <path class="cls-1" d="M87.55,110.37c-.55,0-1-.45-1-1v-16.23c0-.55.45-1,1-1s1,.45,1,1v16.23c0,.55-.45,1-1,1Z"/>
  <path class="cls-1" d="M70.37,110.37s-.04,0-.06,0c-.55-.03-.97-.51-.94-1.06l1.03-16.23c.03-.55.51-.98,1.06-.94.55.03.97.51.94,1.06l-1.03,16.23c-.03.53-.47.94-1,.94Z"/>
  <path class="cls-1" d="M105.73,110.37c-.52,0-.96-.41-1-.94l-1.03-16.23c-.03-.55.38-1.03.94-1.06.56-.03,1.03.38,1.06.94l1.03,16.23c.03.55-.38,1.03-.94,1.06-.02,0-.04,0-.06,0Z"/>
  <path class="cls-1" d="M123.13,110.37c-.49,0-.92-.37-.99-.87l-2.15-16.23c-.07-.55.31-1.05.86-1.12.55-.07,1.05.31,1.12.86l2.15,16.23c.07.55-.31,1.05-.86,1.12-.04,0-.09,0-.13,0Z"/>
  <path class="cls-1" d="M52.91,110.37s-.09,0-.13,0c-.55-.07-.93-.58-.86-1.12l2.15-16.23c.07-.55.58-.93,1.12-.86.55.07.93.58.86,1.12l-2.15,16.23c-.07.5-.5.87-.99.87Z"/>
  <path class="cls-1" d="M35.39,110.37c-.1,0-.21-.02-.31-.05-.52-.17-.81-.74-.63-1.26l5.38-16.23c.17-.52.74-.81,1.26-.63.52.17.81.74.63,1.26l-5.38,16.23c-.14.42-.53.69-.95.69Z"/>
  <path class="cls-1" d="M139.84,110.37c-.42,0-.81-.27-.95-.69l-5.38-16.23c-.17-.52.11-1.09.63-1.26.53-.18,1.09.11,1.26.63l5.38,16.23c.17.52-.11,1.09-.63,1.26-.1.03-.21.05-.31.05Z"/>
  <g>
    <g>
      <path class="cls-1" d="M107.3,40.49h3.8l2.01.4.83.98c-.75-.98-3.17-4.36-3.71-4.96-.62-.69-1.52-1.12-2.52-1.12h-.4v4.71Z"/>
      <path class="cls-1" d="M113.94,42.94c-.3,0-.61-.13-.82-.38l-.58-.69-1.54-.3h-3.7c-.59,0-1.07-.48-1.07-1.07v-4.71c0-.59.48-1.07,1.07-1.07h.4c1.26,0,2.47.54,3.32,1.47.35.39,1.23,1.59,2.44,3.23.55.75,1.05,1.44,1.33,1.8.35.46.28,1.12-.18,1.48-.2.16-.43.24-.67.24ZM108.37,39.42h2.44c-.61-.82-1.17-1.58-1.38-1.8-.29-.32-.66-.55-1.06-.67v2.48Z"/>
    </g>
    <g>
      <path class="cls-1" d="M63.59,43.9c0-1.88,1.52-3.4,3.4-3.4h4.04v-13.12c0-3.67,1.1-7.08,3-9.93,3.22-4.85,8.74-8.05,14.98-8.05h.3c4.73,0,10.91,2.2,14.36,7.46-1.8-2.63-5.89-7.84-8.61-9.51s-5.95-2.66-9.39-2.66h-.3c-9.92,0-17.98,8.07-17.98,17.98v13.12h-4.04c-1.88,0-3.4,1.52-3.4,3.4v28.7c0,.98.58,1.73,1.09,2.49.64.95,2.22,3.05,3.19,4.48l-.6-1.13-.04-2.44v-27.39Z"/>
      <path class="cls-1" d="M64.23,75.92c-.34,0-.68-.16-.88-.47-.5-.73-1.17-1.65-1.77-2.49-.58-.8-1.11-1.53-1.42-2l-.13-.2c-.51-.74-1.13-1.67-1.13-2.89v-28.7c0-2.47,2.01-4.47,4.47-4.47h2.97v-12.05c0-10.5,8.55-19.05,19.05-19.05h.3c3.52,0,6.96.97,9.95,2.81,2.77,1.7,6.52,6.45,8.33,8.96.21.28.42.57.62.87.32.49.19,1.15-.3,1.47-.49.33-1.15.2-1.48-.28-.16-.23-.33-.48-.51-.73-3.45-4.6-9.06-6.26-12.97-6.26h-.3c-5.67,0-10.94,2.83-14.09,7.57-1.84,2.77-2.82,6-2.82,9.34v13.12c0,.59-.48,1.07-1.07,1.07h-4.04c-1.29,0-2.33,1.05-2.33,2.33l.03,29.56.48.9c.27.5.1,1.12-.39,1.42-.17.1-.36.15-.55.15ZM63.35,36.85c-1.29,0-2.33,1.05-2.33,2.33v28.7c0,.57.35,1.09.76,1.69l.14.21c.15.23.36.52.6.85v-26.74c0-2.47,2.01-4.47,4.47-4.47h2.97v-12.05c0-3.76,1.1-7.4,3.18-10.52,3.55-5.34,9.49-8.53,15.88-8.53h.3c2.07,0,4.56.41,7.03,1.39-.66-.62-1.29-1.13-1.84-1.47-2.65-1.63-5.71-2.5-8.83-2.5h-.3c-9.33,0-16.91,7.59-16.91,16.91v13.12c0,.59-.48,1.07-1.07,1.07h-4.04Z"/>
    </g>
    <g>
      <path class="cls-1" d="M99.88,26.78c0-3.51-1.7-6.3-4.34-8.22.47,1.19.7,2.15.7,3.51v13.71h-17.79v4.71h21.43v-13.71Z"/>
      <path class="cls-1" d="M99.88,41.56h-21.43c-.59,0-1.07-.48-1.07-1.07v-4.71c0-.59.48-1.07,1.07-1.07h16.72v-12.64c0-1.27-.23-2.1-.63-3.12-.17-.44-.03-.95.34-1.24s.9-.3,1.28-.02c3.13,2.28,4.78,5.42,4.78,9.09v13.71c0,.59-.48,1.07-1.07,1.07ZM79.52,39.42h19.29v-12.64c0-2.04-.64-3.67-1.5-4.93,0,.07,0,.14,0,.22v13.71c0,.59-.48,1.07-1.07,1.07h-16.72v2.57Z"/>
    </g>
  </g>
</svg>