<?xml version="1.0" encoding="UTF-8"?>
<svg id="Layer_2" data-name="Layer 2" xmlns="http://www.w3.org/2000/svg" viewBox="0 0 176.19 120">
  <defs>
    <style>
      .cls-1 {
        fill: #BDDFC2;
      }
    </style>
  </defs>
  <path class="cls-1" d="M130.88,106.75H53.93c-2.8,0-5.08-2.28-5.08-5.08V24.73c0-2.8,2.28-5.08,5.08-5.08h76.94c2.8,0,5.08,2.28,5.08,5.08v76.94c0,2.8-2.28,5.08-5.08,5.08ZM53.93,21.65c-1.7,0-3.08,1.38-3.08,3.08v76.94c0,1.7,1.38,3.08,3.08,3.08h76.94c1.7,0,3.08-1.38,3.08-3.08V24.73c0-1.7-1.38-3.08-3.08-3.08H53.93Z"/>
  <path class="cls-1" d="M122.12,97.07h-59.43c-2.29,0-4.15-1.86-4.15-4.15v-59.43c0-2.29,1.86-4.15,4.15-4.15h59.43c2.29,0,4.15,1.86,4.15,4.15v59.43c0,2.29-1.86,4.15-4.15,4.15ZM62.69,31.34c-1.19,0-2.15.97-2.15,2.15v59.43c0,1.19.97,2.15,2.15,2.15h59.43c1.19,0,2.15-.96,2.15-2.15v-59.43c0-1.19-.96-2.15-2.15-2.15h-59.43Z"/>
  <path class="cls-1" d="M114.42,86.22h-44.03c-.55,0-1-.45-1-1v-44.03c0-.55.45-1,1-1h44.03c.55,0,1,.45,1,1v44.03c0,.55-.45,1-1,1ZM71.39,84.22h42.03v-42.03h-42.03v42.03Z"/>
  <path class="cls-1" d="M43.85,42.41h-10c-.24,0-.47-.08-.65-.24l-4.26-3.6h-6.21c-.55,0-1-.45-1-1s.45-1,1-1h6.57c.24,0,.47.08.65.24l4.26,3.6h9.63c.55,0,1,.45,1,1s-.45,1-1,1Z"/>
  <path class="cls-1" d="M44.23,51.61h-14.5c-.55,0-1-.45-1-1s.45-1,1-1h14.5c.55,0,1,.45,1,1s-.45,1-1,1Z"/>
  <path class="cls-1" d="M44.23,59.17h-25.21c-.55,0-1-.45-1-1s.45-1,1-1h25.21c.55,0,1,.45,1,1s-.45,1-1,1Z"/>
  <path class="cls-1" d="M26.7,70.16c-.27,0-.54-.11-.73-.32-.38-.4-.35-1.04.05-1.41l2.44-2.27c.19-.17.43-.27.68-.27h14.71c.55,0,1,.45,1,1s-.45,1-1,1h-14.32l-2.15,2c-.19.18-.44.27-.68.27Z"/>
  <path class="cls-1" d="M31.06,81.84h-10.19c-.55,0-1-.45-1-1s.45-1,1-1h9.74l4.59-5.24c.19-.22.46-.34.75-.34h8.28c.55,0,1,.45,1,1s-.45,1-1,1h-7.83l-4.59,5.24c-.19.22-.46.34-.75.34Z"/>
  <circle class="cls-1" cx="19.69" cy="37.66" r="2.7"/>
  <path class="cls-1" d="M16.32,61.92c-2.02,0-3.66-1.64-3.66-3.66s1.64-3.66,3.66-3.66,3.66,1.64,3.66,3.66-1.64,3.66-3.66,3.66ZM16.32,56.51c-.96,0-1.75.78-1.75,1.75s.78,1.75,1.75,1.75,1.75-.78,1.75-1.75-.78-1.75-1.75-1.75Z"/>
  <circle class="cls-1" cx="24.87" cy="71.17" r="2.7"/>
  <path class="cls-1" d="M17.99,84.41c-2.02,0-3.66-1.64-3.66-3.66s1.64-3.66,3.66-3.66,3.66,1.64,3.66,3.66-1.64,3.66-3.66,3.66ZM17.99,79.01c-.96,0-1.75.78-1.75,1.75s.78,1.75,1.75,1.75,1.75-.78,1.75-1.75-.78-1.75-1.75-1.75Z"/>
  <circle class="cls-1" cx="28.25" cy="50.57" r="1.68"/>
  <path class="cls-1" d="M156.82,85.67h-6.87c-.24,0-.47-.08-.65-.24l-4.26-3.6h-10.14c-.55,0-1-.45-1-1s.45-1,1-1h10.51c.24,0,.47.08.65.24l4.26,3.6h6.5c.55,0,1,.45,1,1s-.45,1-1,1Z"/>
  <path class="cls-1" d="M146.11,73.56h-10.86c-.55,0-1-.45-1-1s.45-1,1-1h10.86c.55,0,1,.45,1,1s-.45,1-1,1Z"/>
  <path class="cls-1" d="M155.73,66h-20.63c-.55,0-1-.45-1-1s.45-1,1-1h20.63c.55,0,1,.45,1,1s-.45,1-1,1Z"/>
  <path class="cls-1" d="M150.13,57.28h-15.22c-.55,0-1-.45-1-1s.45-1,1-1h14.83l2.15-2c.4-.38,1.04-.35,1.41.05.38.4.35,1.04-.05,1.41l-2.44,2.27c-.19.17-.43.27-.68.27Z"/>
  <path class="cls-1" d="M140.19,47.99h-4.47c-.55,0-1-.45-1-1s.45-1,1-1h4.01l4.59-5.24c.19-.22.46-.34.75-.34h11.36c.55,0,1,.45,1,1s-.45,1-1,1h-10.9l-4.59,5.24c-.19.22-.46.34-.75.34Z"/>
  <path class="cls-1" d="M159.87,88.25c-2.02,0-3.66-1.64-3.66-3.66s1.64-3.66,3.66-3.66,3.66,1.64,3.66,3.66-1.64,3.66-3.66,3.66ZM159.87,82.84c-.96,0-1.75.78-1.75,1.75s.78,1.75,1.75,1.75,1.75-.78,1.75-1.75-.78-1.75-1.75-1.75Z"/>
  <circle class="cls-1" cx="158.43" cy="64.91" r="2.7"/>
  <path class="cls-1" d="M154.4,55.67c-2.02,0-3.66-1.64-3.66-3.66s1.64-3.66,3.66-3.66,3.66,1.64,3.66,3.66-1.64,3.66-3.66,3.66ZM154.4,50.26c-.96,0-1.75.78-1.75,1.75s.78,1.75,1.75,1.75,1.75-.78,1.75-1.75-.78-1.75-1.75-1.75Z"/>
  <path class="cls-1" d="M159.31,45.16c-2.02,0-3.66-1.64-3.66-3.66s1.64-3.66,3.66-3.66,3.66,1.64,3.66,3.66-1.64,3.66-3.66,3.66ZM159.31,39.75c-.96,0-1.75.78-1.75,1.75s.78,1.75,1.75,1.75,1.75-.78,1.75-1.75-.78-1.75-1.75-1.75Z"/>
  <circle class="cls-1" cx="147.6" cy="72.6" r="1.68"/>
  <g>
    <circle class="cls-1" cx="79.79" cy="51.33" r="1.61"/>
    <circle class="cls-1" cx="79.79" cy="59.3" r="1.61"/>
    <circle class="cls-1" cx="79.79" cy="67.27" r="1.61"/>
    <circle class="cls-1" cx="79.79" cy="75.24" r="1.61"/>
  </g>
  <g>
    <circle class="cls-1" cx="86.46" cy="51.33" r="1.61"/>
    <circle class="cls-1" cx="86.46" cy="59.3" r="1.61"/>
    <circle class="cls-1" cx="86.46" cy="67.27" r="1.61"/>
    <circle class="cls-1" cx="86.46" cy="75.24" r="1.61"/>
  </g>
  <g>
    <circle class="cls-1" cx="93.12" cy="51.33" r="1.61"/>
    <circle class="cls-1" cx="93.12" cy="59.3" r="1.61"/>
    <circle class="cls-1" cx="93.12" cy="67.27" r="1.61"/>
    <circle class="cls-1" cx="93.12" cy="75.24" r="1.61"/>
  </g>
  <g>
    <circle class="cls-1" cx="99.79" cy="51.33" r="1.61"/>
    <circle class="cls-1" cx="99.79" cy="59.3" r="1.61"/>
    <circle class="cls-1" cx="99.79" cy="67.27" r="1.61"/>
    <circle class="cls-1" cx="99.79" cy="75.24" r="1.61"/>
  </g>
  <g>
    <circle class="cls-1" cx="106.46" cy="51.33" r="1.61"/>
    <circle class="cls-1" cx="106.46" cy="59.3" r="1.61"/>
    <circle class="cls-1" cx="106.46" cy="67.27" r="1.61"/>
    <circle class="cls-1" cx="106.46" cy="75.24" r="1.61"/>
  </g>
  <g>
    <path class="cls-1" d="M49.86,24.73c0-2.25,1.83-4.08,4.08-4.08h74.09l3.96-.18,1.39,1.04c-.63-.77-5.5-5.01-6.3-5.8s-1.88-1.47-3.14-1.47H47c-2.25,0-4.08,1.83-4.08,4.08v76.94c0,1.26.57,2.38,1.46,3.13.53.45,5.12,5.01,6.5,6.1.23.19-.37-.2-.7-.7-.31-.47-.33-1.04-.33-1.04V24.73Z"/>
    <path class="cls-1" d="M50.95,105.55c-.47,0-.91-.37-1.22-.7-1.1-.97-2.93-2.74-4.33-4.09-.78-.75-1.51-1.46-1.67-1.59-1.16-.97-1.82-2.39-1.82-3.9V18.33c0-2.8,2.28-5.08,5.08-5.08h76.94c1.36,0,2.65.59,3.84,1.76.28.28,1.18,1.08,2.13,1.94,2.22,1.99,3.83,3.44,4.24,3.94.32.39.3.96-.05,1.33-.35.37-.92.41-1.32.11l-1.1-.83-3.6.16H53.93c-1.7,0-3.08,1.38-3.08,3.08v78.03s.04.31.16.5c.04.06.09.12.15.18.13.11.24.2.33.28.31.25.5.7.4,1.08-.1.38-.42.67-.81.74-.05,0-.09.01-.14.01ZM47,15.25c-1.7,0-3.08,1.38-3.08,3.08v76.94c0,.91.4,1.77,1.1,2.36.2.17.75.7,1.78,1.69.61.59,1.34,1.3,2.06,1.98V24.73c0-2.8,2.28-5.08,5.08-5.08h74.09l1.82-.08c-.44-.4-.88-.79-1.27-1.14-1.05-.94-1.89-1.69-2.2-2-.81-.79-1.6-1.18-2.43-1.18H47Z"/>
  </g>
</svg>