<svg width="730" height="411" viewBox="0 0 730 411" fill="none" xmlns="http://www.w3.org/2000/svg">
<g clip-path="url(#clip0_24_104)">
<mask id="mask0_24_104" style="mask-type:luminance" maskUnits="userSpaceOnUse" x="0" y="0" width="730" height="411">
<path d="M729.75 0H0V410.484H729.75V0Z" fill="white"/>
</mask>
<g mask="url(#mask0_24_104)">
<mask id="mask1_24_104" style="mask-type:luminance" maskUnits="userSpaceOnUse" x="128" y="-198" width="1519" height="1092">
<path d="M1646.25 -197.929H128.25V893.071H1646.25V-197.929Z" fill="white"/>
</mask>
<g mask="url(#mask1_24_104)">
<path opacity="0.5" d="M1096.64 563.707C303.622 384.076 131.399 357.376 128.613 368.45C123.312 389.52 700.031 671.656 1139.49 466.561C1425.61 333.029 1569.44 32.2339 1645.93 -197.823" stroke="#2D684B" stroke-miterlimit="10"/>
<path opacity="0.5" d="M1080.67 577.43C320.694 391.8 158.13 354.159 159.358 356.749C159.523 362.008 344.725 452.395 583.68 493.162C762.59 523.337 971.005 531.589 1152.64 454.952C1430.9 337.548 1569.28 56.7932 1642.59 -152.365" stroke="#2D684B" stroke-miterlimit="10"/>
<path opacity="0.5" d="M1064.7 591.153C337.767 399.53 184.854 350.941 190.096 345.054C193.47 343.468 374.764 425.939 607.849 464.929C784.423 493.796 989.285 509.442 1165.8 443.336C1435.99 342.146 1569.13 81.3453 1639.25 -106.921" stroke="#2D684B" stroke-miterlimit="10"/>
<path opacity="0.5" d="M1048.73 604.877C354.839 407.254 210.938 347.287 220.834 333.353C227.027 324.631 404.802 399.478 632.012 436.696C806.242 464.248 1007.37 487.361 1178.94 431.728C1440.83 346.811 1568.97 105.905 1635.9 -61.4629" stroke="#2D684B" stroke-miterlimit="10"/>
<path opacity="0.5" d="M1032.75 618.6C371.912 414.978 237.808 344.208 251.573 321.651C261.027 306.157 434.834 373.016 656.181 408.464C828.074 434.708 1025.22 465.332 1192.09 420.119C1445.4 351.489 1568.81 130.464 1632.56 -16.0117" stroke="#2D684B" stroke-miterlimit="10"/>
<path opacity="0.5" d="M1016.78 632.323C388.977 422.708 264.605 341.05 282.311 309.957C295.006 287.651 464.872 346.561 680.344 380.238C849.9 405.167 1042.79 443.33 1205.25 408.517C1449.63 356.141 1568.65 155.024 1629.22 29.4526" stroke="#2D684B" stroke-miterlimit="10"/>
<path opacity="0.5" d="M1000.81 646.047C406.05 430.433 291.382 337.865 313.05 298.255C328.98 269.124 494.904 320.099 704.514 352.005C871.726 375.619 1060.06 421.308 1218.4 396.901C1453.49 360.667 1568.5 179.576 1625.87 74.8975" stroke="#2D684B" stroke-miterlimit="10"/>
<path opacity="0.5" d="M984.842 659.77C423.122 438.157 318.146 334.668 343.788 286.554C362.953 250.597 524.943 293.637 728.676 323.766C893.551 346.072 1077 399.214 1231.54 385.286C1456.93 364.975 1568.33 204.128 1622.52 120.349" stroke="#2D684B" stroke-miterlimit="10"/>
<path opacity="0.5" d="M968.872 673.493C440.195 445.887 344.897 331.47 374.526 274.859C396.919 232.064 554.981 267.181 752.846 295.54C915.384 316.531 1097.5 407.949 1244.69 373.683C1454.43 324.856 1568.18 228.694 1619.18 165.807" stroke="#2D684B" stroke-miterlimit="10"/>
<path opacity="0.5" d="M952.896 687.216C457.267 453.611 371.654 328.265 405.264 263.157C430.886 213.53 585.013 240.719 777.009 267.306C937.203 286.989 1112.17 389.091 1257.84 362.074C1459.45 324.677 1568.02 253.253 1615.84 211.264" stroke="#2D684B" stroke-miterlimit="10"/>
<path opacity="0.5" d="M936.926 700.94C474.333 461.335 398.405 325.06 436.002 251.456C464.846 194.99 615.052 214.264 801.171 239.074C959.029 257.442 1125.9 369.507 1270.99 350.459C1464.86 325.014 1567.86 277.799 1612.49 256.709" stroke="#2D684B" stroke-miterlimit="10"/>
<path opacity="0.5" d="M920.956 714.663C491.406 469.059 425.149 321.856 466.741 239.761C498.813 176.457 645.084 187.808 825.341 210.848C980.861 227.908 1141.6 308.668 1284.14 338.856C1467.02 377.588 1567.71 302.365 1609.14 302.173" stroke="#2D684B" stroke-miterlimit="10"/>
<path opacity="0.5" d="M904.986 728.386C508.478 476.789 451.9 318.652 497.479 228.06C532.773 157.917 675.122 161.347 849.504 182.609C1002.68 198.354 1157.25 285.008 1297.28 327.241C1469.02 379.035 1567.54 326.917 1605.79 347.618" stroke="#2D684B" stroke-miterlimit="10"/>
<path opacity="0.5" d="M889.016 742.109C525.55 484.513 478.842 315.54 528.217 216.358C566.885 139.45 705.161 134.885 873.673 154.376C1024.51 168.806 1172.96 260.792 1310.44 315.632C1471.12 379.722 1567.4 351.476 1602.45 393.076" stroke="#2D684B" stroke-miterlimit="10"/>
<path opacity="0.5" d="M873.046 755.833C542.623 492.237 505.566 312.322 558.956 204.664C600.831 120.91 735.192 108.429 897.836 126.15C1046.33 139.272 1188.87 235.989 1323.58 304.023C1473.46 379.716 1567.23 376.036 1599.11 438.527" stroke="#2D684B" stroke-miterlimit="10"/>
<path opacity="0.5" d="M857.069 769.556C559.688 499.967 532.284 309.104 589.694 192.962C634.778 102.364 765.231 81.9671 922.005 97.917C1068.16 109.724 1205.19 210.623 1336.73 292.414C1476.23 379.141 1567.08 400.588 1595.77 483.984" stroke="#2D684B" stroke-miterlimit="10"/>
<path opacity="0.5" d="M841.1 783.279C576.761 507.691 559.015 305.886 620.432 181.261C668.725 83.8104 795.263 55.505 946.169 69.6841C1089.99 80.183 1222.04 184.782 1349.89 280.805C1479.52 378.176 1566.92 425.147 1592.42 529.435" stroke="#2D684B" stroke-miterlimit="10"/>
<path opacity="0.5" d="M825.13 797.002C593.833 515.415 585.739 302.669 651.17 169.566C702.672 65.2708 825.301 29.0499 970.331 41.4517C1111.81 50.6358 1239.54 158.585 1363.03 269.197C1483.4 377.007 1566.76 449.706 1589.07 574.894" stroke="#2D684B" stroke-miterlimit="10"/>
<path opacity="0.5" d="M809.16 810.725C610.906 523.138 612.47 299.444 681.909 157.864C736.618 46.7231 855.34 2.58685 994.5 13.2178C1133.64 21.0871 1257.72 132.195 1376.18 257.58C1487.88 375.81 1566.6 474.258 1585.73 620.337" stroke="#2D684B" stroke-miterlimit="10"/>
<path opacity="0.5" d="M793.19 824.449C627.978 530.869 639.195 296.227 712.647 146.163C770.565 28.1777 885.372 -23.8741 1018.66 -15.0138C1155.47 -8.45286 1276.55 105.766 1389.33 245.972C1492.92 374.76 1566.44 498.818 1582.38 665.796" stroke="#2D684B" stroke-miterlimit="10"/>
<path opacity="0.5" d="M777.22 838.172C645.051 538.593 665.919 293.009 743.392 134.468C804.519 9.63088 915.417 -50.3298 1042.84 -43.2402C1177.3 -37.9941 1295.96 79.4364 1402.49 234.369C1498.47 373.974 1566.3 523.377 1579.05 711.253" stroke="#2D684B" stroke-miterlimit="10"/>
<path opacity="0.5" d="M761.243 851.895C662.116 546.316 692.643 289.791 774.124 122.766C838.459 -8.916 945.442 -76.7921 1067 -71.4799C1199.12 -67.542 1315.82 53.2911 1415.63 222.754C1504.4 373.491 1566.13 547.929 1575.69 756.704" stroke="#2D684B" stroke-miterlimit="10"/>
<path opacity="0.5" d="M745.274 865.617C679.189 554.046 719.368 286.573 804.862 111.065C872.406 -27.4627 975.481 -103.254 1091.17 -99.7128C1220.95 -97.0897 1336.05 27.417 1428.78 211.138C1510.66 373.372 1565.97 572.481 1572.35 802.148" stroke="#2D684B" stroke-miterlimit="10"/>
<path opacity="0.5" d="M729.304 879.341C696.262 561.771 746.099 283.356 835.6 99.3702C906.353 -46.0088 1005.52 -129.709 1115.33 -127.938C1242.77 -126.623 1356.51 1.84081 1441.92 199.536C1517.14 373.63 1565.81 597.047 1569 847.614" stroke="#2D684B" stroke-miterlimit="10"/>
<path opacity="0.5" d="M713.334 893.072C713.334 313.591 904.134 -156.164 1139.5 -156.164C1374.86 -156.164 1565.66 313.597 1565.66 893.072" stroke="#2D684B" stroke-miterlimit="10"/>
</g>
</g>
</g>
<defs>
<clipPath id="clip0_24_104">
<rect width="730" height="411" fill="white"/>
</clipPath>
</defs>
</svg>
